<mxfile host="app.diagrams.net" modified="2023-02-07T23:03:17.832Z" agent="5.0 (Windows)" etag="zuehBr-2OWSp3xMSEoAe" version="20.8.18" type="github" pages="2">
  <diagram id="C5RBs43oDa-KdzZeNtuy" name="Page-1">
    <mxGraphModel dx="2514" dy="2056" grid="0" gridSize="10" guides="1" tooltips="1" connect="1" arrows="1" fold="1" page="1" pageScale="1" pageWidth="827" pageHeight="1169" background="#ffffff" math="0" shadow="0">
      <root>
        <mxCell id="WIyWlLk6GJQsqaUBKTNV-0" />
        <mxCell id="WIyWlLk6GJQsqaUBKTNV-1" parent="WIyWlLk6GJQsqaUBKTNV-0" />
        <mxCell id="TLsfVrz0yq-yXyJu7jA5-1" value="Marié à" style="rhombus;whiteSpace=wrap;html=1;" parent="WIyWlLk6GJQsqaUBKTNV-1" vertex="1">
          <mxGeometry x="533" y="157" width="130" height="70" as="geometry" />
        </mxCell>
        <mxCell id="TLsfVrz0yq-yXyJu7jA5-8" value="Date de mariage" style="text;html=1;align=center;verticalAlign=middle;resizable=0;points=[];autosize=1;strokeColor=none;fillColor=none;" parent="WIyWlLk6GJQsqaUBKTNV-1" vertex="1">
          <mxGeometry x="718" y="94" width="120" height="30" as="geometry" />
        </mxCell>
        <mxCell id="TLsfVrz0yq-yXyJu7jA5-9" value="" style="endArrow=none;html=1;rounded=0;entryX=-0.014;entryY=0.659;entryDx=0;entryDy=0;entryPerimeter=0;exitX=1;exitY=0.5;exitDx=0;exitDy=0;" parent="WIyWlLk6GJQsqaUBKTNV-1" source="TLsfVrz0yq-yXyJu7jA5-1" target="TLsfVrz0yq-yXyJu7jA5-8" edge="1">
          <mxGeometry width="50" height="50" relative="1" as="geometry">
            <mxPoint x="536" y="171" as="sourcePoint" />
            <mxPoint x="586" y="121" as="targetPoint" />
          </mxGeometry>
        </mxCell>
        <mxCell id="TLsfVrz0yq-yXyJu7jA5-10" value="Lieu de mariage" style="text;html=1;align=center;verticalAlign=middle;resizable=0;points=[];autosize=1;strokeColor=none;fillColor=none;" parent="WIyWlLk6GJQsqaUBKTNV-1" vertex="1">
          <mxGeometry x="725" y="173" width="110" height="30" as="geometry" />
        </mxCell>
        <mxCell id="TLsfVrz0yq-yXyJu7jA5-11" value="" style="endArrow=none;html=1;rounded=0;exitX=1;exitY=0.5;exitDx=0;exitDy=0;entryX=-0.009;entryY=0.6;entryDx=0;entryDy=0;entryPerimeter=0;" parent="WIyWlLk6GJQsqaUBKTNV-1" source="TLsfVrz0yq-yXyJu7jA5-1" target="TLsfVrz0yq-yXyJu7jA5-10" edge="1">
          <mxGeometry width="50" height="50" relative="1" as="geometry">
            <mxPoint x="596" y="171" as="sourcePoint" />
            <mxPoint x="646" y="121" as="targetPoint" />
          </mxGeometry>
        </mxCell>
        <mxCell id="TLsfVrz0yq-yXyJu7jA5-13" value="" style="endArrow=none;html=1;rounded=0;entryX=-0.012;entryY=0.615;entryDx=0;entryDy=0;entryPerimeter=0;" parent="WIyWlLk6GJQsqaUBKTNV-1" target="TLsfVrz0yq-yXyJu7jA5-130" edge="1">
          <mxGeometry width="50" height="50" relative="1" as="geometry">
            <mxPoint x="841" y="111" as="sourcePoint" />
            <mxPoint x="474" y="33" as="targetPoint" />
          </mxGeometry>
        </mxCell>
        <mxCell id="TLsfVrz0yq-yXyJu7jA5-14" value="m" style="text;html=1;align=center;verticalAlign=middle;resizable=0;points=[];autosize=1;strokeColor=none;fillColor=none;" parent="WIyWlLk6GJQsqaUBKTNV-1" vertex="1">
          <mxGeometry x="892.5" y="78" width="29" height="26" as="geometry" />
        </mxCell>
        <mxCell id="TLsfVrz0yq-yXyJu7jA5-16" value="" style="endArrow=none;html=1;rounded=0;entryX=-0.004;entryY=0.63;entryDx=0;entryDy=0;entryPerimeter=0;exitX=1.025;exitY=0.567;exitDx=0;exitDy=0;exitPerimeter=0;" parent="WIyWlLk6GJQsqaUBKTNV-1" source="TLsfVrz0yq-yXyJu7jA5-8" target="TLsfVrz0yq-yXyJu7jA5-14" edge="1">
          <mxGeometry width="50" height="50" relative="1" as="geometry">
            <mxPoint x="359" y="110" as="sourcePoint" />
            <mxPoint x="409" y="60" as="targetPoint" />
          </mxGeometry>
        </mxCell>
        <mxCell id="TLsfVrz0yq-yXyJu7jA5-17" value="a" style="text;html=1;align=center;verticalAlign=middle;resizable=0;points=[];autosize=1;strokeColor=none;fillColor=none;" parent="WIyWlLk6GJQsqaUBKTNV-1" vertex="1">
          <mxGeometry x="894" y="102" width="25" height="26" as="geometry" />
        </mxCell>
        <mxCell id="TLsfVrz0yq-yXyJu7jA5-18" value="" style="endArrow=none;html=1;rounded=0;exitX=1.025;exitY=0.533;exitDx=0;exitDy=0;exitPerimeter=0;entryX=-0.008;entryY=0.568;entryDx=0;entryDy=0;entryPerimeter=0;" parent="WIyWlLk6GJQsqaUBKTNV-1" source="TLsfVrz0yq-yXyJu7jA5-8" target="TLsfVrz0yq-yXyJu7jA5-17" edge="1">
          <mxGeometry width="50" height="50" relative="1" as="geometry">
            <mxPoint x="649" y="30" as="sourcePoint" />
            <mxPoint x="699" y="-20" as="targetPoint" />
          </mxGeometry>
        </mxCell>
        <mxCell id="TLsfVrz0yq-yXyJu7jA5-22" value="" style="shape=image;verticalLabelPosition=bottom;labelBackgroundColor=default;verticalAlign=top;aspect=fixed;imageAspect=0;image=data:image/png,iVBORw0KGgoAAAANSUhEUgAABIsAAACGCAIAAADSPJ30AAAAAXNSR0IArs4c6QAAAARnQU1BAACxjwv8YQUAAAAJcEhZcwAADsMAAA7DAcdvqGQAABunSURBVHhe7d0NcFTlvcfxpQYIhuUlvIXwYqCmhGogIiYR5YbaAeaKliuO4wVnpFYdBsR6nekUgU5b74hC596pVJFxtO3AnUqZe5VyKXQgo02s0vByMSS1ILES3paAGCIBCRHN/bPnn5OTs7snJ5vdzdnN9zM77f855+zZs6tZz2/P8zynV0tLiw8AAAAA4AHf0P8HAAAAAHQ3EhoAAAAAeAUJDQAAAAC8goQGAAAAAF5BQgMAAAAAryChAQAAAIBXkNAAAAAAwCtIaAAAAADgFSQ0AAAAAPAKEhoAAAAAeAUJDQAAAAC8goQGAAAAAF5BQgMAAAAAryChAQAAAIBXkNAAAAAAwCtIaAAAAADgFSQ0AAAAAPAKEhoAAAAAeAUJDQAAAAC8goQGAAAAAF5BQgMAAAAAryChAQAAAIBXkNAAAAAAwCtIaAAAAADgFSQ0AAAAAPAKEhoAAAAAeAUJDQAAAAC8goQGAAAAAF5BQgMAAAAAryChAQAAAIBXkNAAAAAAwCtIaAAAAADgFSQ0AAAAAPAKEhoAAAAAeAUJDQAAAAC8goQGAAAAAF5BQgMAAAAAryChAQAAAIBXkNAAAAAAwCtIaAAAAADgFSQ0AAAAAPAKEhoAAAAAeAUJDQAAJLELu3fXLFny/pAh5b16yeNAUVFg3TpdBwBJqFdLS4uWAAAASeXMxo2HFy7UhoW/sPDmLVv6ZGdrGwCSBwkNAAAkpfOlpVWzZmkjRObdd+dv364NAEge9HIEAABJ6eSLL2oVTv2OHRLhtAEAyYOEBgAAks+F3bslg2nD58vbsKGkpWVqVZW/sFAX+Xx1v/2tVgCQPOjlCACIXm1tbVNTkzZcy8vL08pRXV1dZ3eenp6elZWlDUdy5Fq5NihIG5HJMcuRayN4SFo5cnnYDQ0NUXzgLnduPWzh8sjdfCbxcHz16qPLlxv12BUrxq1aZdSXqqv3T5pk1EJim1bte0WG9oEs79XLKIxVsrEEvPqdO6/W18vC4fPnZz3yyOCZM41tACB+SGgAgOht3bq1srJSG6797Gc/08rRq6++assMHcrJyVkYbt6IUM8++6xWrhUXF8+ePVsbkUn227BhgzZcmzt3bkFBgTYiq6io2LlzpzZcW7RokZuQFtd/mjFXPWeOeQ1t0q5d1uwUaZX7hNa/oOD4888bTStrFASAOKGXIwAASD5fnjunlc/Xp33+TL/hBq18vq8aG7VyTdJd2HgmZPmF3bu1ASD4g4jxOLpypTQvVVcfX73aWFKzZIl1LKiskm3MjSMNEzU2MB66qJW53Hit5kAgsG7doQULjIVSyxJjy2RHQgOQUHJyI1/K8ojh16i5T/n210UAUl3j3r1a+XwZ+flaBfUdO1Yrn++LI0e06qSxK1ZMraoqaWnJ27AhLTNTl/p8De++qxWA4C8axuNiZaVks/2TJh1dvtxYEli/vmrWLMlpstmZjRtl1fHnnzdWSSGrZHtjJ1bGBsZDF7Uyl8trnXvrrX35+TVLl57dtMlYKLUskRfSrZNZx70cz+6rC/z5hDYc9c1M7zesX87cG7WNVpW/2KdVUMGPb9MK6EkC69adXLv2ck2NtoPjOsYuX247teos65iTcS+8MPaZZ4waiUEvx1D0ckwMs1OisA42E9Yhau6/Fqw7zF68OPeVV7Th8x1dudK8qpZck/gboxbdjF10Ob6xw81itR/hcldXrlzRKrJYvVwMDzthL5eenv7UU09pIw6sfziRyH/uJUdpoz1bF2Xh8KdtrkrLzDQGiIaSVQVlZV08teh2HSc0SRefvNV2RtWh3hm9x8zOIYSYTr59fO/K97Qh3+w3D53xesSbtwCpqmbJksD69dqwkG/S/G3bBkybpu3OO1BUZP6UTkLrFub5gcvzEuFybgnZoft9mlzuvKGhQSuLDl8uuik33JCzKJdH7rzzsG9BDtvNtB/ymYT9WJxJKtYqseKa0GxnjefeeuvD++836uRKaOXl5WVlZdpAjyR/+8uWLdNGHNgSmjGnzleNjcfXrLFe6BbGqubTpz9++mkzX8nCiW+8YdQGNwnN4C8sHPXEE31Gjjy3ZYv1HCP35Zezn3hCG8mp44T23pPvnN3X6f/SZM8YU7x6ujZ6tkOvV8tDGz7f2LvHTf3p7doAeoYzGzcejnxZo19ubmFU3ZCaA4GPHn+83tILgoQG9BxxTWi2HZ53nGLEy0hoEHG90G39w7HGLevvGiLSKklZU/bsMWqD/Llp5fM5XF6z/SVafwgOTX1Jp+NxaI3HLmjVGYGyE9ZY0pNdClzUKigju79WQI9x7LnntAqSb1VJZdrw+S7X1ETRa1y+wStnzLDGMwAA0I1GLV2qVfDnV62Csh55RKv2q2zX2YSkMvOhi8IZ+eijWgUNKC7Wyue7+vnnWiWtDq6hSTwrffCP2mjtwaiN9j49cKaxtl2W6zf8+n/+33/RRg9W9tiu+r+1zTdVuOrO0d9tG8EMpDzrT2XW3uHWn7s69ROarDr54othsxnX0ICew9rDeWpVlXXYifXr5aY33xw6b55RO+Mamse5vEGfm80SuY1I5Mv17dtXK4tiS3qJOYc/nOhWObA+6/ZTp/pkZ2sjmf9Iw+ogodVu/fjAC23R1nkMVfVLH9T87pA2gu586a7ht7nqsp/C3ipud5l1XsUCrYCewTrC3to1vDkQ2Jefb/ZEt33VOnx3V1vudCQk3TEOrRsdPnz4zJkz2nCtpKREK0eVlZWfO/4UGnouMmjQoDx3t8OuqKjQyrWcnBw349AaGhrkY9FGR8xTLtm5m3FodUHacE0+EzfndrW1tVGMQ3MzwUk8WL8KXN4PzZnD107ynvzJvy2h/0xjFQZEgncFD4ouhjmscpCSf6RhdZDQbNOEjJ+X6zwFiC2NTFleGHZqx7P76j6vOX/ppHb/65uZ7h830OHKknUuRNl44mPXfieTnXx28NMr9deGRGeM7p91xyj/DQOCm9hJzmz46Lw2fL7s74wxcqO5/Lp+aYO/PcTlpa2Tbx9vPPq58bodPpFpQoDozqIcvoXNZ6VlZk547bUvjhyJYsAJYoW5HEMxl2NiWAebWadebA4E/jpqlFELTv6AuIouhjmsctBz/kg7GId28US7+zxKENIqWjVvHCr91z++9+Q71b/6QLKf8Tj0erXEmD997w+yVrezkCRmbikPiUaypOKZv8hO5InGQtlb2Q92Rhr5VvfX0+bT5SHxTLaUlzvwwl5jSc3vDskBlD22y3nQnQRFeZZsab6u8URZKGFPN2pPspxWQf3H+rVyR3YrL2o+JO/pCiB5XLZMr59x001aBfW3nI82nz6tlTvy/VtQVuay8xKA1OO/9VatfL7A+vWBdeukuFRd/dHjjxsLxfD587UCgOTRQUKzJZaBuYO1Cic0P6T176NVkMQqiVK24Wqmy2e/kLWhKevzmrbLX6KpvmnPM38JlNlv0fblpS/luWFDWmNtW0zqN/x6I9rJy+miVvV/O1ex7N2wIU0yoQRLiWShzxKyUMJe2Jfu4jQhtmx59WKzrgCShzWhWfsxiuv8bb9ZXGl/A2sJYOZDF7UaOH36pF278rdvT/a7nQDoisEzZ1rnG6hZurS8V6/9kyaZV+aFdXICcb60VLYxHtVz5uhSwGOC9xnp2LWbY3Qk2C260/2i0e2cejmGThNy79sPaCMcyTDW9GXbfv+///X4jqPacGQbvVbZyRuyhQ5+s/W9dBZ6nwCJZ5IJJQFqO7LQWUC6OE2I7SOdufmeSD05Ac9y6JMQ3YzYNjHZCaJWXl4eRb84l7dP3bBhQ2fPLbKyslz2clyzZo1WrhUUFNDLMVR39XIUtum8bTJDejo594Ny+LJK3g5U8hckp+naiEDO9bWKzM02osObR7vcT6wOKXlfLobSE3g/NPddGR1WOUjJP9KwnBKa+2lCJMMc/M/9totj1ht/2YZjCX/OgGFTRkhx8USjPN1YaMh9aGL+k7doIyTkGIynX226+un+M7brWraIZXsXBkmPw27LSs9MD311Yct4tpgkZG3/MX559dPlJ63JTZbLc7UR1MVpQqxPZ25MJCmH71MSGuA1UZw7du8ED5Fut+gvLLx5yxbbdfsemNC4HxqSLqFZr2/3hD/SsJx6OVpn1zBYx0QZD4lPf/reH9578h1bhpEINGFh24CTk6XHtAqSEDXz9/cU/Pg2eUikGT+v3Q0Tvrp8Vasg21AuMfGxfOPpkgAltMjedEXQ+b9/plVQ4/F2Q+mEpLsZv5ktKc549cJVd8rR6rqgzw5+qpX8W/JSu26ZsqVsL88yXl32I3vTdcGkau0kaev2KRFXK3dsT+fqGQAg3uRkrrP0md1kxMMPT62qyl682OzxKNks9+WXp+zZY4tnQM+U4Et2XVe/Y4f50EU9j9M1NMldodeX3JAYc8uKImt3Pgkbxhiqy59evlLf9M0HJ1jzhm38mHXGSDkAOQyjNtiusAlbb0xhvVRV0X7QWr/h10u+sqUdWw9M6wFI/rReowudnbLmjUPVv/pAG+03sL0v60VFN+S9B/7cduSDJgwOOzFmWHGdo2zz5s3acG3u3Ll5Lua/rqioKC8v14ZrixYtcjNF9datW835r92fUrjvi9VhNxKbnJwc+Vi04Wjt2rVaWTi/haKiou6a/zqUwy9eXEMDgLjiGhpEXLsix/waWnSrelAvR1s4cSnz5qE3zs9zOdpKQsgXgYu12z6x9mOc+Fi+MZ++sIWcSD39bD0hrTHJ9i6sOzdF6s9pS1/+nAEzf3+PNlrZMqT1pW3BL+xLxwmzSIdiTvDuYp1S/5b33x8wbZpRi0MLFpzdtMmo3d+zyIaEBgCRxCOhufyV081mCd5Vgg8p7M2jQ8XkqJw3kFMOreKAhBYPERNa6IUpB70zevvHDRz0rcFDbx0RKZvJDuveP3Xp5MWGI9c6T0pqihT/7rQMA7OFnEiXoSIltNB3EXayjUgJrbL9JCWyXN6jNiys21gTWhenCekKElooElp3scawm9580zo//oGiIvNm07bw5h4JDQAiaQoy6hhmD8Ak0Uir4AyrWgUlclVzIHDpww+N+rqMjOjOKLwj4ji0zyrPahXUb/j14+flGo/sGWOkqSuCvrz05ai7xhT8+LZICeTaiLUf7KwO3gNNQos8IsUzCXvWWTouth9FNnTyMK0cmbP8296FRCw3o7nS+qUZhREmTXLYcvyhD10dwhrP5H0lLJ4BnjLwjju08vlO//rXWvl8F3bvNuNZWmZmsn+ZAoAHSdwa1EpqN/SZgDuSlMyHLmqVyFV9srPNVSlwRhHxGprt8pF1aJZoPHbhw/UHreO7JIEUrZ5uDVcm20gwkz9nQO9glLImGdt0iC7nQtz23f+2zqlobub8LkzVL31Q87u2m2Wbm4WdRtKZeQ3NNn2leV0uMWwXi9wMEpXv7jwXQ8VkV1FcicrJyXFzmauhocEcKmbqcOreoqIiN/9FkT2fOXNGG66VlJRo5aiiosL5OEP/EQwcOLC4uFgbjqK4rjhixAjvjEOTJPaBJaQNnz8/65FHmk+fPvbcc5dbb5WWvXhx7iuvGLXB4XcyG66hAQCAVBIxodmmCcn/4S25CyZqI0hCmmxjvRQWOte8sA0kkyA3smT00MnDzK6AtvxmnQgkdI7+sAnNYbSY7V1ESmi2+fTNN2tLaPJ0rSIzJ0GxvfFILw30BNahaGFNraqy3X7aoa+5DQkNAACkkoi9HCWAaRU0MNc+/kpyyMRHb9ZGkGSh2q0fa6OVdeZ6IeFn6k9vN+OZsE2O7x/r10qOIWSe/bA+q2p3mWvwt4doFfIuwpLDtt0qIOuOUVq1J+lLUpbzw+xFeSlw0SgMGaP7awX0PDesXJmWmamNEGNXrLDFMwAAgB4rfEKTYGO9OGYbG2aSoJXZ/h5ftds+0aqVLYBZs5mQRGcbkGbdwBZyRGgClCW2LpRmvrK9C2EbV2b4+6tVWgXJOzVTVn9LXBS2u7oJeYlDr1fbblxmsI2gC424QM8xYNq0/G3bzLsVWUk8G7dqlTYAAAB6vOt+/vOfa2lxuvzE6fdOaePanbgyc773TW209+XF5rN72roRSiLqN6zfoLy2H8s/XH9QqyD/uIEDxg80agk2B/9j/9dffm00heQ96wsd+a9Dtoh18WSjxKeMUXo9KuweJv3bFKO2vQshe7t6+eqIopHaDvaxPLu33RR8ExZ+2zz+r6+2nHqnLX19/tH5jNF+8/glnlUse/fUOydkm483HT79l1NpGb3NtQee32MUQiLulOVF2nBB3tcn/3Ok7v2A8Wg6d9n6kQLJqO+YMaOefLLf+PF9Ro7sPXy4pLVhDzwwfvXqrO9/X7dor3HfPtnGeIx46CFdGk7TJ5983dxsbDnw9tv7T56sKwAAAJJQ+HFoLifYMNhuOGYbjWYb4mWMQ0tLT7t4otE6QsyQPWNM8erp2giZJsQgexh2W1Z6ZnroHmSVdbYS27sw+XMGDJsy4mrT1U/3n7ElwNDZ/G1D0cxXb6pv+nRfnXV6Euu9sG0j6Do7TYjtyBN5IzUAAAAA3Sh8L0cJP1oFOY+hsl1ek9RkDU6ShbQKkkhzfMdRiR+h8UxI8tEqGHK0CjLn95c9BMpOhN1D3qM3W3tj2t6FuQdJjPJ0OQxbPJPkFnqztRvn50kq04bl1eV/rfFMtsl/aorZPdI2gi7sXdQc2I7cP06vywEAAABIbRHHoWkV5DyGavTMG6wZRhz/U9s9pq/NbZijuSWUwypbyBl55yjn60iyNnS2Sa2Crl3gcjyS4jX/pA2L0d8de8uKItsbtJG1so31dmddnCbEduTcSA0AAADoIcIkNIkH1otLEj/CThNi8t8wYGTJaG0EnS4/aWYMWSvJxzahiJDd5j40MXd+uxtwWWfyCA05ksHyf3hLaFiSnReuutOW32zvQgKYcSSh70V2OH5e7szf32NeAbORgFS0enr2jDHatpDnyvIZv5ltC1FdmSYk9Mi1AgAAAJDqwoxDO7uvLvDnttkR+2amdzgIyvYUkf2dMbYsdPLt4+f+79r9gq/rl+Yf6zfnbKz8xT6jMJgD3mwDwO586S5zhzVvHLp08lp+k2MbMnlY2ABZu/XjAy/s1Ub7EW5ytGcqTn91+arUgyYMtk0v6UCyU937p4yXFg7PjfSm3Iji8wcAAACQGiLesbrbWacJ6Z3R+963H9CGO7bJNqw3wgYAAAAAb4p4x+ruZZsmJIqpMuyTbbS/sxkAAAAAeJBHE1oX50IU5kA4g/uujAAAAADQXTya0Lo+FyKTbQAAAABIOh5NaF2ZC1F8VnlWqyB/DvcTAwAAAJAEPJrQrLM49u5ouv9QDR+1zdovMkZ17hIcAAAAAHQLL87l2Hjswj82f6SNqKabN6fjN4RO/Q8AAAAAHuTd2fYBAAAAoKfxaC9HAAAAAOiBSGgAAAAA4BUkNAAAAADwChIaAAAAAHgFCQ0AAAAAvIKEBgAAAABeQUIDAAAAAK8goQEAAACAV5DQAAAAAMArSGgAAAAA4BUkNAAAAADwChIaAAAAAHgFCQ0AAKSC86Wl5b16GQ+pdSkAJBsSGgAASHrNgcDRn/xEGwCQzEhoAAAguUk8+8ePftS4d6+2ASCZkdAAAEASu7B799/uu+/spk3aBoAkR0IDAABJ6VJ1dc2SJR/ccQdXzwCkEhIaAABISvsnTQqsX68Nny8tM1OrCKxTiVTPmaNLW9lWycaHFix4f8gQY6HUzD4CIDFIaAAAILlJNsvbsGFAcbG2u+zoypVVs2ad3bTpan29sURqWSLLjSYAxA8JDQAAJDF/YWH+tm0jHn5Y211Wv2PH8eef10Z7svzC7t3aAID4IKEB6AbnS0uNR3MgoIu6QE6YjL1dqq7WRQB6gH65uXkbNkzZs2fAtGm6KHbGrlgxtaqqpKVFXsLaf7Lh3Xe1AoD46NXS0qIlACTEmY0bDy9caNSTdu0aPHOmUUdHUtn+SZOMetwLL4x95hmjBtDTVM+ZU79jh1FH8d1S3quXVj5f9uLFua+8oo1gp0fzqlrm3Xfnb99u1AAQD1xDA5BQEqg+fvppbcTCR489phUAxMjQ++7TKsh/661aAUD8kdAAJM6F3bs/vP9+c+R9FzUHAtVz5jDLNoCYs11/u87v1woA4o+EBiBBAuvWVd977+WaGm13zfnS0soZM8weTQAAAKmBhAYg7s5s3Lj3W9+qWbrU/dUzY+YP46GLWsmS6jlzqmbNilXYAwAA8A5mCgEQd9bx92mZmb2HDDHDVaTR/NanlLT/mrJOBiD8hYVmR0dmComr2tra8vJybbg2e/bsrKwsbURWWVl58OBBbbj24IMPpqenayMyOey6ujptuCO7nTt3rjYcbd26tampSRvuyAdSUlKijchktzt37tSGaxMmTMjLy9NGZPKB7NmzRxuuFRUVufmn2V1iOFOI7WvnfGlp1axZRs1MIQDijYQGIO7M8x5JUzf+8pfHVq3q8CzKTUKTsDfhtde+OHLk6PLlxioSWlwdPnx48+bN2nBNQpSbwCAhqqysTBuuLVu2zE1Ck8OWg9eGO4MGDXrqqae04WjNmjWdTWjygcjHoo3IGhoa1q5dqw3XZsyY4Sb+xfWfZnchoQFIDfRyBJAgY1esuHnLlljdtkhOkgrKyobOm6dtAACAlEBCAxB32YsXT62qGrdqVZ/sbF3UEQlg5kMXtRo4ffqkXbvyt2/PyM/XRQDgwvnS0vJevYxH9Zw5uhQAPIZejgASrYs9kWyOr15NL8fEiG7k0uTJk3NycrQR2eHDh6MYhzZ37lw3vRwrKiqOHTumDXfcj0PbvHlzZ3s5ygfichxaFB0R5QMvKCjQRmS2UYUu34IcdlL3cnTurEgvRwAeQUIDkGgkNADxQEIDkBpIaCnL+EHUzc+iidxGxHBXV65c0SqCBB9SDN9aTHZVUlJSXFysDS8hoQGIBxIagNRAQktZzz77rFboqVxO6ZZ4JDQAAIBISGgpK4oJoJFiSGhIvEReJRax2kbEcFepfXl/4cKFgwYN0jYAIA5IaCmLhAYSGmIrujtoIcUsWrTIyzetBoAUQEJLWamU0NzM1RarbUSHm8VqPyJWu+rbt69WFnIW5WYOvcQjoSUpEhoECQ0A4o2ElrLkXEqrVjHMFSJW8cPlyyGVuElo50tLtfL5nCMcCS1hSGgQJDQAiDcSGoBEc5PQHCZVsyGhJQwJzSrBP2aJDjdLzCEVFRUxDg0A4oqEBiDRSGhJqqGhwXpxvosn+qZYbSMSvCsAAOKBhAYg0UhoAAAAkXxD/x8AEqV/QUHm3Xcbj+syMnRpe+YG8tBFEfTNzja3lFqXAgAAJCeuoQEAAACAV3ANDQAAAAC8goQGAAAAAF5BQgMAAAAAryChAQAAAIBXXJsp5HSQLgAAAAAAROD3+3Nzc7URcz7f/wP914umDWPqaAAAAABJRU5ErkJggg==;imageBorder=default;" parent="WIyWlLk6GJQsqaUBKTNV-1" vertex="1">
          <mxGeometry x="-537.46" y="555.25" width="433.96" height="50" as="geometry" />
        </mxCell>
        <mxCell id="TLsfVrz0yq-yXyJu7jA5-44" value="" style="shape=link;html=1;rounded=0;dashed=1;fontSize=10;fontColor=#B09646;endArrow=none;endFill=0;entryX=0.286;entryY=0.2;entryDx=0;entryDy=0;entryPerimeter=0;exitX=1;exitY=0.25;exitDx=0;exitDy=0;" parent="WIyWlLk6GJQsqaUBKTNV-1" source="TLsfVrz0yq-yXyJu7jA5-49" target="TLsfVrz0yq-yXyJu7jA5-1" edge="1">
          <mxGeometry relative="1" as="geometry">
            <mxPoint x="390" y="170" as="sourcePoint" />
            <mxPoint x="530" y="170" as="targetPoint" />
          </mxGeometry>
        </mxCell>
        <mxCell id="TLsfVrz0yq-yXyJu7jA5-46" value="Homme" style="edgeLabel;html=1;align=center;verticalAlign=middle;resizable=0;points=[];fontSize=10;fontColor=#000000;" parent="TLsfVrz0yq-yXyJu7jA5-44" vertex="1" connectable="0">
          <mxGeometry x="-0.1616" y="1" relative="1" as="geometry">
            <mxPoint x="-17" y="-13" as="offset" />
          </mxGeometry>
        </mxCell>
        <mxCell id="TLsfVrz0yq-yXyJu7jA5-47" value="" style="shape=link;html=1;rounded=0;dashed=1;fontSize=10;fontColor=#B09646;endArrow=none;endFill=0;entryX=0.17;entryY=0.646;entryDx=0;entryDy=0;entryPerimeter=0;exitX=1;exitY=0.75;exitDx=0;exitDy=0;" parent="WIyWlLk6GJQsqaUBKTNV-1" source="TLsfVrz0yq-yXyJu7jA5-49" target="TLsfVrz0yq-yXyJu7jA5-1" edge="1">
          <mxGeometry relative="1" as="geometry">
            <mxPoint x="380" y="202" as="sourcePoint" />
            <mxPoint x="542.51" y="230.29999999999995" as="targetPoint" />
          </mxGeometry>
        </mxCell>
        <mxCell id="TLsfVrz0yq-yXyJu7jA5-48" value="Femme" style="edgeLabel;html=1;align=center;verticalAlign=middle;resizable=0;points=[];fontSize=10;fontColor=#000000;" parent="TLsfVrz0yq-yXyJu7jA5-47" vertex="1" connectable="0">
          <mxGeometry x="-0.1616" y="1" relative="1" as="geometry">
            <mxPoint x="-9" y="-10" as="offset" />
          </mxGeometry>
        </mxCell>
        <mxCell id="TLsfVrz0yq-yXyJu7jA5-49" value="&lt;font style=&quot;font-size: 12px;&quot;&gt;Individu&lt;/font&gt;" style="rounded=0;whiteSpace=wrap;html=1;fontSize=10;fontColor=#000000;" parent="WIyWlLk6GJQsqaUBKTNV-1" vertex="1">
          <mxGeometry x="270" y="156" width="120" height="60" as="geometry" />
        </mxCell>
        <mxCell id="TLsfVrz0yq-yXyJu7jA5-50" value="Nom" style="text;html=1;align=center;verticalAlign=middle;resizable=0;points=[];autosize=1;strokeColor=none;fillColor=none;fontSize=12;fontColor=#000000;" parent="WIyWlLk6GJQsqaUBKTNV-1" vertex="1">
          <mxGeometry x="82" y="-16.83" width="45" height="26" as="geometry" />
        </mxCell>
        <mxCell id="TLsfVrz0yq-yXyJu7jA5-51" value="" style="endArrow=none;html=1;rounded=0;fontSize=12;fontColor=#000000;entryX=0;entryY=0.5;entryDx=0;entryDy=0;exitX=0.985;exitY=0.611;exitDx=0;exitDy=0;exitPerimeter=0;" parent="WIyWlLk6GJQsqaUBKTNV-1" source="TLsfVrz0yq-yXyJu7jA5-50" target="TLsfVrz0yq-yXyJu7jA5-49" edge="1">
          <mxGeometry width="50" height="50" relative="1" as="geometry">
            <mxPoint x="220" y="200" as="sourcePoint" />
            <mxPoint x="270" y="150" as="targetPoint" />
          </mxGeometry>
        </mxCell>
        <mxCell id="TLsfVrz0yq-yXyJu7jA5-77" style="edgeStyle=none;rounded=0;orthogonalLoop=1;jettySize=auto;html=1;entryX=0;entryY=0.5;entryDx=0;entryDy=0;fontSize=12;fontColor=#000000;endArrow=none;endFill=0;exitX=1.021;exitY=0.658;exitDx=0;exitDy=0;exitPerimeter=0;" parent="WIyWlLk6GJQsqaUBKTNV-1" source="TLsfVrz0yq-yXyJu7jA5-54" target="TLsfVrz0yq-yXyJu7jA5-49" edge="1">
          <mxGeometry relative="1" as="geometry" />
        </mxCell>
        <mxCell id="TLsfVrz0yq-yXyJu7jA5-78" value="1:N" style="edgeLabel;html=1;align=center;verticalAlign=middle;resizable=0;points=[];fontSize=12;fontColor=#000000;" parent="TLsfVrz0yq-yXyJu7jA5-77" vertex="1" connectable="0">
          <mxGeometry x="0.2266" y="1" relative="1" as="geometry">
            <mxPoint x="-83" y="-97" as="offset" />
          </mxGeometry>
        </mxCell>
        <mxCell id="TLsfVrz0yq-yXyJu7jA5-54" value="Prénom" style="text;html=1;align=center;verticalAlign=middle;resizable=0;points=[];autosize=1;strokeColor=none;fillColor=none;fontSize=12;fontColor=#000000;" parent="WIyWlLk6GJQsqaUBKTNV-1" vertex="1">
          <mxGeometry x="60" y="21.17" width="62" height="26" as="geometry" />
        </mxCell>
        <mxCell id="TLsfVrz0yq-yXyJu7jA5-80" style="edgeStyle=none;rounded=0;orthogonalLoop=1;jettySize=auto;html=1;entryX=0;entryY=0.5;entryDx=0;entryDy=0;fontSize=12;fontColor=#000000;endArrow=none;endFill=0;exitX=1.009;exitY=0.565;exitDx=0;exitDy=0;exitPerimeter=0;" parent="WIyWlLk6GJQsqaUBKTNV-1" source="TLsfVrz0yq-yXyJu7jA5-79" target="TLsfVrz0yq-yXyJu7jA5-49" edge="1">
          <mxGeometry relative="1" as="geometry" />
        </mxCell>
        <mxCell id="TLsfVrz0yq-yXyJu7jA5-79" value="Sexe" style="text;html=1;align=center;verticalAlign=middle;resizable=0;points=[];autosize=1;strokeColor=none;fillColor=none;fontSize=12;fontColor=#000000;" parent="WIyWlLk6GJQsqaUBKTNV-1" vertex="1">
          <mxGeometry x="82" y="47.17" width="45" height="26" as="geometry" />
        </mxCell>
        <mxCell id="TLsfVrz0yq-yXyJu7jA5-82" style="edgeStyle=none;rounded=0;orthogonalLoop=1;jettySize=auto;html=1;entryX=0;entryY=0.5;entryDx=0;entryDy=0;fontSize=12;fontColor=#000000;endArrow=none;endFill=0;exitX=1.005;exitY=0.611;exitDx=0;exitDy=0;exitPerimeter=0;" parent="WIyWlLk6GJQsqaUBKTNV-1" source="TLsfVrz0yq-yXyJu7jA5-81" target="TLsfVrz0yq-yXyJu7jA5-49" edge="1">
          <mxGeometry relative="1" as="geometry" />
        </mxCell>
        <mxCell id="TLsfVrz0yq-yXyJu7jA5-81" value="Lieu de naissance" style="text;html=1;align=center;verticalAlign=middle;resizable=0;points=[];autosize=1;strokeColor=none;fillColor=none;fontSize=12;fontColor=#000000;" parent="WIyWlLk6GJQsqaUBKTNV-1" vertex="1">
          <mxGeometry x="11" y="70.17" width="120" height="26" as="geometry" />
        </mxCell>
        <mxCell id="TLsfVrz0yq-yXyJu7jA5-87" style="edgeStyle=none;rounded=0;orthogonalLoop=1;jettySize=auto;html=1;fontSize=12;fontColor=#000000;endArrow=none;endFill=0;exitX=1.002;exitY=0.544;exitDx=0;exitDy=0;exitPerimeter=0;dashed=1;entryX=0;entryY=0.5;entryDx=0;entryDy=0;" parent="WIyWlLk6GJQsqaUBKTNV-1" source="TLsfVrz0yq-yXyJu7jA5-86" target="TLsfVrz0yq-yXyJu7jA5-49" edge="1">
          <mxGeometry relative="1" as="geometry">
            <mxPoint x="270.3103448275863" y="202.72413793103465" as="targetPoint" />
          </mxGeometry>
        </mxCell>
        <mxCell id="TLsfVrz0yq-yXyJu7jA5-86" value="Lieu de décès" style="text;html=1;align=center;verticalAlign=middle;resizable=0;points=[];autosize=1;strokeColor=none;fillColor=none;fontSize=12;fontColor=#000000;" parent="WIyWlLk6GJQsqaUBKTNV-1" vertex="1">
          <mxGeometry x="27" y="256.17" width="96" height="26" as="geometry" />
        </mxCell>
        <mxCell id="TLsfVrz0yq-yXyJu7jA5-89" style="edgeStyle=none;rounded=0;orthogonalLoop=1;jettySize=auto;html=1;entryX=0;entryY=0.5;entryDx=0;entryDy=0;fontSize=12;fontColor=#000000;endArrow=none;endFill=0;exitX=1.01;exitY=0.525;exitDx=0;exitDy=0;exitPerimeter=0;" parent="WIyWlLk6GJQsqaUBKTNV-1" source="TLsfVrz0yq-yXyJu7jA5-88" target="TLsfVrz0yq-yXyJu7jA5-49" edge="1">
          <mxGeometry relative="1" as="geometry" />
        </mxCell>
        <mxCell id="TLsfVrz0yq-yXyJu7jA5-88" value="Date de naissance" style="text;html=1;align=center;verticalAlign=middle;resizable=0;points=[];autosize=1;strokeColor=none;fillColor=none;fontSize=12;fontColor=#000000;" parent="WIyWlLk6GJQsqaUBKTNV-1" vertex="1">
          <mxGeometry x="11" y="154.17000000000002" width="122" height="26" as="geometry" />
        </mxCell>
        <mxCell id="TLsfVrz0yq-yXyJu7jA5-93" style="edgeStyle=none;rounded=0;orthogonalLoop=1;jettySize=auto;html=1;entryX=0.092;entryY=1.038;entryDx=0;entryDy=0;fontSize=12;fontColor=#000000;endArrow=none;endFill=0;exitX=0.119;exitY=0.394;exitDx=0;exitDy=0;exitPerimeter=0;entryPerimeter=0;" parent="WIyWlLk6GJQsqaUBKTNV-1" source="TLsfVrz0yq-yXyJu7jA5-91" target="TLsfVrz0yq-yXyJu7jA5-49" edge="1">
          <mxGeometry relative="1" as="geometry" />
        </mxCell>
        <mxCell id="TLsfVrz0yq-yXyJu7jA5-98" value="Père" style="edgeLabel;html=1;align=center;verticalAlign=middle;resizable=0;points=[];fontSize=12;fontColor=#000000;" parent="TLsfVrz0yq-yXyJu7jA5-93" vertex="1" connectable="0">
          <mxGeometry x="-0.3572" relative="1" as="geometry">
            <mxPoint x="-26" y="7" as="offset" />
          </mxGeometry>
        </mxCell>
        <mxCell id="TLsfVrz0yq-yXyJu7jA5-94" style="edgeStyle=none;rounded=0;orthogonalLoop=1;jettySize=auto;html=1;exitX=0.862;exitY=0.369;exitDx=0;exitDy=0;entryX=0.901;entryY=1.019;entryDx=0;entryDy=0;fontSize=12;fontColor=#000000;endArrow=none;endFill=0;entryPerimeter=0;exitPerimeter=0;" parent="WIyWlLk6GJQsqaUBKTNV-1" source="TLsfVrz0yq-yXyJu7jA5-91" target="TLsfVrz0yq-yXyJu7jA5-49" edge="1">
          <mxGeometry relative="1" as="geometry" />
        </mxCell>
        <mxCell id="TLsfVrz0yq-yXyJu7jA5-100" value="Mère" style="edgeLabel;html=1;align=center;verticalAlign=middle;resizable=0;points=[];fontSize=12;fontColor=#000000;" parent="TLsfVrz0yq-yXyJu7jA5-94" vertex="1" connectable="0">
          <mxGeometry x="-0.1141" y="-1" relative="1" as="geometry">
            <mxPoint x="14" y="20" as="offset" />
          </mxGeometry>
        </mxCell>
        <mxCell id="TLsfVrz0yq-yXyJu7jA5-102" style="edgeStyle=none;rounded=0;orthogonalLoop=1;jettySize=auto;html=1;entryX=0.5;entryY=1;entryDx=0;entryDy=0;fontSize=12;fontColor=#000000;endArrow=none;endFill=0;dashed=1;shape=link;" parent="WIyWlLk6GJQsqaUBKTNV-1" source="TLsfVrz0yq-yXyJu7jA5-91" target="TLsfVrz0yq-yXyJu7jA5-49" edge="1">
          <mxGeometry relative="1" as="geometry" />
        </mxCell>
        <mxCell id="TLsfVrz0yq-yXyJu7jA5-104" value="Enfant" style="edgeLabel;html=1;align=center;verticalAlign=middle;resizable=0;points=[];fontSize=12;fontColor=#000000;" parent="TLsfVrz0yq-yXyJu7jA5-102" vertex="1" connectable="0">
          <mxGeometry x="-0.1089" y="1" relative="1" as="geometry">
            <mxPoint x="-23" y="14" as="offset" />
          </mxGeometry>
        </mxCell>
        <mxCell id="TLsfVrz0yq-yXyJu7jA5-91" value="Lié à" style="rhombus;whiteSpace=wrap;html=1;" parent="WIyWlLk6GJQsqaUBKTNV-1" vertex="1">
          <mxGeometry x="265" y="395" width="130" height="70" as="geometry" />
        </mxCell>
        <mxCell id="TLsfVrz0yq-yXyJu7jA5-109" style="edgeStyle=none;rounded=0;orthogonalLoop=1;jettySize=auto;html=1;entryX=-0.008;entryY=0.526;entryDx=0;entryDy=0;entryPerimeter=0;fontSize=12;fontColor=#000000;endArrow=none;endFill=0;" parent="WIyWlLk6GJQsqaUBKTNV-1" source="TLsfVrz0yq-yXyJu7jA5-106" target="TLsfVrz0yq-yXyJu7jA5-81" edge="1">
          <mxGeometry relative="1" as="geometry" />
        </mxCell>
        <mxCell id="TLsfVrz0yq-yXyJu7jA5-106" value="Ville" style="text;html=1;align=center;verticalAlign=middle;resizable=0;points=[];autosize=1;strokeColor=none;fillColor=none;fontSize=12;fontColor=#000000;" parent="WIyWlLk6GJQsqaUBKTNV-1" vertex="1">
          <mxGeometry x="-107.5" y="55.17" width="41" height="26" as="geometry" />
        </mxCell>
        <mxCell id="TLsfVrz0yq-yXyJu7jA5-110" style="edgeStyle=none;rounded=0;orthogonalLoop=1;jettySize=auto;html=1;entryX=-0.014;entryY=0.5;entryDx=0;entryDy=0;entryPerimeter=0;fontSize=12;fontColor=#000000;endArrow=none;endFill=0;" parent="WIyWlLk6GJQsqaUBKTNV-1" source="TLsfVrz0yq-yXyJu7jA5-107" target="TLsfVrz0yq-yXyJu7jA5-81" edge="1">
          <mxGeometry relative="1" as="geometry" />
        </mxCell>
        <mxCell id="TLsfVrz0yq-yXyJu7jA5-107" value="Province" style="text;html=1;align=center;verticalAlign=middle;resizable=0;points=[];autosize=1;strokeColor=none;fillColor=none;fontSize=12;fontColor=#000000;" parent="WIyWlLk6GJQsqaUBKTNV-1" vertex="1">
          <mxGeometry x="-121" y="81.17" width="65" height="26" as="geometry" />
        </mxCell>
        <mxCell id="TLsfVrz0yq-yXyJu7jA5-111" style="edgeStyle=none;rounded=0;orthogonalLoop=1;jettySize=auto;html=1;entryX=-0.003;entryY=0.526;entryDx=0;entryDy=0;entryPerimeter=0;fontSize=12;fontColor=#000000;endArrow=none;endFill=0;" parent="WIyWlLk6GJQsqaUBKTNV-1" source="TLsfVrz0yq-yXyJu7jA5-108" target="TLsfVrz0yq-yXyJu7jA5-81" edge="1">
          <mxGeometry relative="1" as="geometry" />
        </mxCell>
        <mxCell id="TLsfVrz0yq-yXyJu7jA5-108" value="codeP" style="text;html=1;align=center;verticalAlign=middle;resizable=0;points=[];autosize=1;strokeColor=none;fillColor=none;fontSize=12;fontColor=#000000;" parent="WIyWlLk6GJQsqaUBKTNV-1" vertex="1">
          <mxGeometry x="-121" y="107.17" width="53" height="26" as="geometry" />
        </mxCell>
        <mxCell id="TLsfVrz0yq-yXyJu7jA5-117" style="edgeStyle=none;rounded=0;orthogonalLoop=1;jettySize=auto;html=1;entryX=-0.015;entryY=0.558;entryDx=0;entryDy=0;entryPerimeter=0;fontSize=12;fontColor=#000000;endArrow=none;endFill=0;" parent="WIyWlLk6GJQsqaUBKTNV-1" source="TLsfVrz0yq-yXyJu7jA5-116" target="TLsfVrz0yq-yXyJu7jA5-81" edge="1">
          <mxGeometry relative="1" as="geometry" />
        </mxCell>
        <mxCell id="TLsfVrz0yq-yXyJu7jA5-116" value="no" style="text;html=1;align=center;verticalAlign=middle;resizable=0;points=[];autosize=1;strokeColor=none;fillColor=none;fontSize=12;fontColor=#000000;" parent="WIyWlLk6GJQsqaUBKTNV-1" vertex="1">
          <mxGeometry x="-103" y="33.17" width="32" height="26" as="geometry" />
        </mxCell>
        <mxCell id="TLsfVrz0yq-yXyJu7jA5-124" style="edgeStyle=none;rounded=0;orthogonalLoop=1;jettySize=auto;html=1;fontSize=12;fontColor=#000000;endArrow=none;endFill=0;entryX=1.009;entryY=0.522;entryDx=0;entryDy=0;entryPerimeter=0;" parent="WIyWlLk6GJQsqaUBKTNV-1" source="TLsfVrz0yq-yXyJu7jA5-118" target="TLsfVrz0yq-yXyJu7jA5-10" edge="1">
          <mxGeometry relative="1" as="geometry">
            <mxPoint x="836" y="193" as="targetPoint" />
          </mxGeometry>
        </mxCell>
        <mxCell id="TLsfVrz0yq-yXyJu7jA5-118" value="Ville" style="text;html=1;align=center;verticalAlign=middle;resizable=0;points=[];autosize=1;strokeColor=none;fillColor=none;fontSize=12;fontColor=#000000;" parent="WIyWlLk6GJQsqaUBKTNV-1" vertex="1">
          <mxGeometry x="892" y="188" width="41" height="26" as="geometry" />
        </mxCell>
        <mxCell id="TLsfVrz0yq-yXyJu7jA5-123" style="edgeStyle=none;rounded=0;orthogonalLoop=1;jettySize=auto;html=1;entryX=1.018;entryY=0.567;entryDx=0;entryDy=0;entryPerimeter=0;fontSize=12;fontColor=#000000;endArrow=none;endFill=0;" parent="WIyWlLk6GJQsqaUBKTNV-1" source="TLsfVrz0yq-yXyJu7jA5-119" target="TLsfVrz0yq-yXyJu7jA5-10" edge="1">
          <mxGeometry relative="1" as="geometry" />
        </mxCell>
        <mxCell id="TLsfVrz0yq-yXyJu7jA5-119" value="Province" style="text;html=1;align=center;verticalAlign=middle;resizable=0;points=[];autosize=1;strokeColor=none;fillColor=none;fontSize=12;fontColor=#000000;" parent="WIyWlLk6GJQsqaUBKTNV-1" vertex="1">
          <mxGeometry x="879" y="166" width="65" height="26" as="geometry" />
        </mxCell>
        <mxCell id="TLsfVrz0yq-yXyJu7jA5-122" style="edgeStyle=none;rounded=0;orthogonalLoop=1;jettySize=auto;html=1;fontSize=12;fontColor=#000000;endArrow=none;endFill=0;entryX=1.009;entryY=0.6;entryDx=0;entryDy=0;entryPerimeter=0;" parent="WIyWlLk6GJQsqaUBKTNV-1" source="TLsfVrz0yq-yXyJu7jA5-120" target="TLsfVrz0yq-yXyJu7jA5-10" edge="1">
          <mxGeometry relative="1" as="geometry" />
        </mxCell>
        <mxCell id="TLsfVrz0yq-yXyJu7jA5-120" value="codeP" style="text;html=1;align=center;verticalAlign=middle;resizable=0;points=[];autosize=1;strokeColor=none;fillColor=none;fontSize=12;fontColor=#000000;" parent="WIyWlLk6GJQsqaUBKTNV-1" vertex="1">
          <mxGeometry x="885.5" y="149" width="53" height="26" as="geometry" />
        </mxCell>
        <mxCell id="TLsfVrz0yq-yXyJu7jA5-125" style="edgeStyle=none;rounded=0;orthogonalLoop=1;jettySize=auto;html=1;fontSize=12;fontColor=#000000;endArrow=none;endFill=0;entryX=1.009;entryY=0.6;entryDx=0;entryDy=0;entryPerimeter=0;" parent="WIyWlLk6GJQsqaUBKTNV-1" source="TLsfVrz0yq-yXyJu7jA5-121" target="TLsfVrz0yq-yXyJu7jA5-10" edge="1">
          <mxGeometry relative="1" as="geometry" />
        </mxCell>
        <mxCell id="TLsfVrz0yq-yXyJu7jA5-121" value="no" style="text;html=1;align=center;verticalAlign=middle;resizable=0;points=[];autosize=1;strokeColor=none;fillColor=none;fontSize=12;fontColor=#000000;" parent="WIyWlLk6GJQsqaUBKTNV-1" vertex="1">
          <mxGeometry x="897" y="209" width="32" height="26" as="geometry" />
        </mxCell>
        <mxCell id="TLsfVrz0yq-yXyJu7jA5-130" value="j" style="text;html=1;align=center;verticalAlign=middle;resizable=0;points=[];autosize=1;strokeColor=none;fillColor=none;fontSize=12;fontColor=#000000;" parent="WIyWlLk6GJQsqaUBKTNV-1" vertex="1">
          <mxGeometry x="896.5" y="57" width="21" height="26" as="geometry" />
        </mxCell>
        <mxCell id="TLsfVrz0yq-yXyJu7jA5-135" style="edgeStyle=none;rounded=0;orthogonalLoop=1;jettySize=auto;html=1;entryX=1;entryY=0.5;entryDx=0;entryDy=0;dashed=1;fontSize=12;fontColor=#000000;endArrow=none;endFill=0;exitX=-0.005;exitY=0.505;exitDx=0;exitDy=0;exitPerimeter=0;" parent="WIyWlLk6GJQsqaUBKTNV-1" source="TLsfVrz0yq-yXyJu7jA5-134" target="TLsfVrz0yq-yXyJu7jA5-1" edge="1">
          <mxGeometry relative="1" as="geometry" />
        </mxCell>
        <mxCell id="TLsfVrz0yq-yXyJu7jA5-134" value="Date de divorce" style="text;html=1;align=center;verticalAlign=middle;resizable=0;points=[];autosize=1;strokeColor=none;fillColor=none;" parent="WIyWlLk6GJQsqaUBKTNV-1" vertex="1">
          <mxGeometry x="734" y="264" width="103" height="26" as="geometry" />
        </mxCell>
        <mxCell id="TLsfVrz0yq-yXyJu7jA5-136" value="" style="endArrow=none;html=1;rounded=0;entryX=-0.012;entryY=0.615;entryDx=0;entryDy=0;entryPerimeter=0;exitX=1.004;exitY=0.637;exitDx=0;exitDy=0;exitPerimeter=0;" parent="WIyWlLk6GJQsqaUBKTNV-1" source="TLsfVrz0yq-yXyJu7jA5-134" target="TLsfVrz0yq-yXyJu7jA5-141" edge="1">
          <mxGeometry width="50" height="50" relative="1" as="geometry">
            <mxPoint x="835" y="281" as="sourcePoint" />
            <mxPoint x="468" y="203" as="targetPoint" />
          </mxGeometry>
        </mxCell>
        <mxCell id="TLsfVrz0yq-yXyJu7jA5-137" value="m" style="text;html=1;align=center;verticalAlign=middle;resizable=0;points=[];autosize=1;strokeColor=none;fillColor=none;" parent="WIyWlLk6GJQsqaUBKTNV-1" vertex="1">
          <mxGeometry x="888.5" y="259" width="29" height="26" as="geometry" />
        </mxCell>
        <mxCell id="TLsfVrz0yq-yXyJu7jA5-138" value="" style="endArrow=none;html=1;rounded=0;entryX=-0.004;entryY=0.63;entryDx=0;entryDy=0;entryPerimeter=0;exitX=1.01;exitY=0.571;exitDx=0;exitDy=0;exitPerimeter=0;" parent="WIyWlLk6GJQsqaUBKTNV-1" source="TLsfVrz0yq-yXyJu7jA5-134" target="TLsfVrz0yq-yXyJu7jA5-137" edge="1">
          <mxGeometry width="50" height="50" relative="1" as="geometry">
            <mxPoint x="835" y="281.01" as="sourcePoint" />
            <mxPoint x="403" y="230" as="targetPoint" />
          </mxGeometry>
        </mxCell>
        <mxCell id="TLsfVrz0yq-yXyJu7jA5-139" value="a" style="text;html=1;align=center;verticalAlign=middle;resizable=0;points=[];autosize=1;strokeColor=none;fillColor=none;" parent="WIyWlLk6GJQsqaUBKTNV-1" vertex="1">
          <mxGeometry x="890" y="283" width="25" height="26" as="geometry" />
        </mxCell>
        <mxCell id="TLsfVrz0yq-yXyJu7jA5-140" value="" style="endArrow=none;html=1;rounded=0;exitX=1.01;exitY=0.549;exitDx=0;exitDy=0;exitPerimeter=0;entryX=-0.008;entryY=0.568;entryDx=0;entryDy=0;entryPerimeter=0;" parent="WIyWlLk6GJQsqaUBKTNV-1" source="TLsfVrz0yq-yXyJu7jA5-134" target="TLsfVrz0yq-yXyJu7jA5-139" edge="1">
          <mxGeometry width="50" height="50" relative="1" as="geometry">
            <mxPoint x="835" y="279.99" as="sourcePoint" />
            <mxPoint x="693" y="150" as="targetPoint" />
          </mxGeometry>
        </mxCell>
        <mxCell id="TLsfVrz0yq-yXyJu7jA5-141" value="j" style="text;html=1;align=center;verticalAlign=middle;resizable=0;points=[];autosize=1;strokeColor=none;fillColor=none;fontSize=12;fontColor=#000000;" parent="WIyWlLk6GJQsqaUBKTNV-1" vertex="1">
          <mxGeometry x="892.5" y="238" width="21" height="26" as="geometry" />
        </mxCell>
        <mxCell id="TLsfVrz0yq-yXyJu7jA5-143" value="&lt;font color=&quot;#FF0000&quot;&gt;TODO: Contraintes d&#39;intégrité&lt;br&gt;&lt;/font&gt;" style="text;html=1;align=center;verticalAlign=middle;resizable=0;points=[];autosize=1;strokeColor=none;fillColor=none;fontSize=12;fontColor=#000000;labelBackgroundColor=none;labelBorderColor=none;" parent="WIyWlLk6GJQsqaUBKTNV-1" vertex="1">
          <mxGeometry x="124" y="-70.83" width="178" height="26" as="geometry" />
        </mxCell>
        <mxCell id="q3S81RTZLH9Rm7Bedyzz-1" style="rounded=0;orthogonalLoop=1;jettySize=auto;html=1;entryX=0;entryY=0.5;entryDx=0;entryDy=0;exitX=1.01;exitY=0.462;exitDx=0;exitDy=0;exitPerimeter=0;dashed=1;endArrow=none;endFill=0;" parent="WIyWlLk6GJQsqaUBKTNV-1" source="q3S81RTZLH9Rm7Bedyzz-0" target="TLsfVrz0yq-yXyJu7jA5-49" edge="1">
          <mxGeometry relative="1" as="geometry" />
        </mxCell>
        <mxCell id="q3S81RTZLH9Rm7Bedyzz-0" value="Date de décès" style="text;html=1;align=center;verticalAlign=middle;resizable=0;points=[];autosize=1;strokeColor=none;fillColor=none;fontSize=12;fontColor=#000000;" parent="WIyWlLk6GJQsqaUBKTNV-1" vertex="1">
          <mxGeometry x="24" y="358.17" width="98" height="26" as="geometry" />
        </mxCell>
        <mxCell id="q3S81RTZLH9Rm7Bedyzz-2" style="edgeStyle=none;rounded=0;orthogonalLoop=1;jettySize=auto;html=1;entryX=-0.001;entryY=0.562;entryDx=0;entryDy=0;entryPerimeter=0;fontSize=12;fontColor=#000000;endArrow=none;endFill=0;" parent="WIyWlLk6GJQsqaUBKTNV-1" source="q3S81RTZLH9Rm7Bedyzz-3" target="TLsfVrz0yq-yXyJu7jA5-86" edge="1">
          <mxGeometry relative="1" as="geometry">
            <mxPoint x="14.039999999999964" y="269.84599999999995" as="targetPoint" />
          </mxGeometry>
        </mxCell>
        <mxCell id="q3S81RTZLH9Rm7Bedyzz-3" value="Ville" style="text;html=1;align=center;verticalAlign=middle;resizable=0;points=[];autosize=1;strokeColor=none;fillColor=none;fontSize=12;fontColor=#000000;" parent="WIyWlLk6GJQsqaUBKTNV-1" vertex="1">
          <mxGeometry x="-103.5" y="241.17000000000002" width="41" height="26" as="geometry" />
        </mxCell>
        <mxCell id="q3S81RTZLH9Rm7Bedyzz-4" style="edgeStyle=none;rounded=0;orthogonalLoop=1;jettySize=auto;html=1;entryX=-0.009;entryY=0.509;entryDx=0;entryDy=0;entryPerimeter=0;fontSize=12;fontColor=#000000;endArrow=none;endFill=0;" parent="WIyWlLk6GJQsqaUBKTNV-1" source="q3S81RTZLH9Rm7Bedyzz-5" target="TLsfVrz0yq-yXyJu7jA5-86" edge="1">
          <mxGeometry relative="1" as="geometry">
            <mxPoint x="13.320000000000164" y="269.17" as="targetPoint" />
          </mxGeometry>
        </mxCell>
        <mxCell id="q3S81RTZLH9Rm7Bedyzz-5" value="Province" style="text;html=1;align=center;verticalAlign=middle;resizable=0;points=[];autosize=1;strokeColor=none;fillColor=none;fontSize=12;fontColor=#000000;" parent="WIyWlLk6GJQsqaUBKTNV-1" vertex="1">
          <mxGeometry x="-117" y="267.17" width="65" height="26" as="geometry" />
        </mxCell>
        <mxCell id="q3S81RTZLH9Rm7Bedyzz-6" style="edgeStyle=none;rounded=0;orthogonalLoop=1;jettySize=auto;html=1;entryX=-0.011;entryY=0.535;entryDx=0;entryDy=0;entryPerimeter=0;fontSize=12;fontColor=#000000;endArrow=none;endFill=0;" parent="WIyWlLk6GJQsqaUBKTNV-1" source="q3S81RTZLH9Rm7Bedyzz-7" target="TLsfVrz0yq-yXyJu7jA5-86" edge="1">
          <mxGeometry relative="1" as="geometry">
            <mxPoint x="14.639999999999873" y="269.84599999999995" as="targetPoint" />
          </mxGeometry>
        </mxCell>
        <mxCell id="q3S81RTZLH9Rm7Bedyzz-7" value="codeP" style="text;html=1;align=center;verticalAlign=middle;resizable=0;points=[];autosize=1;strokeColor=none;fillColor=none;fontSize=12;fontColor=#000000;" parent="WIyWlLk6GJQsqaUBKTNV-1" vertex="1">
          <mxGeometry x="-117" y="293.17" width="53" height="26" as="geometry" />
        </mxCell>
        <mxCell id="q3S81RTZLH9Rm7Bedyzz-8" style="edgeStyle=none;rounded=0;orthogonalLoop=1;jettySize=auto;html=1;entryX=-0.01;entryY=0.538;entryDx=0;entryDy=0;entryPerimeter=0;fontSize=12;fontColor=#000000;endArrow=none;endFill=0;" parent="WIyWlLk6GJQsqaUBKTNV-1" source="q3S81RTZLH9Rm7Bedyzz-9" target="TLsfVrz0yq-yXyJu7jA5-86" edge="1">
          <mxGeometry relative="1" as="geometry">
            <mxPoint x="13.199999999999818" y="270.6779999999998" as="targetPoint" />
          </mxGeometry>
        </mxCell>
        <mxCell id="q3S81RTZLH9Rm7Bedyzz-9" value="no" style="text;html=1;align=center;verticalAlign=middle;resizable=0;points=[];autosize=1;strokeColor=none;fillColor=none;fontSize=12;fontColor=#000000;" parent="WIyWlLk6GJQsqaUBKTNV-1" vertex="1">
          <mxGeometry x="-99" y="219.17000000000002" width="32" height="26" as="geometry" />
        </mxCell>
        <mxCell id="q3S81RTZLH9Rm7Bedyzz-14" style="edgeStyle=none;rounded=0;orthogonalLoop=1;jettySize=auto;html=1;entryX=-0.009;entryY=0.524;entryDx=0;entryDy=0;entryPerimeter=0;endArrow=none;endFill=0;" parent="WIyWlLk6GJQsqaUBKTNV-1" source="q3S81RTZLH9Rm7Bedyzz-10" target="TLsfVrz0yq-yXyJu7jA5-88" edge="1">
          <mxGeometry relative="1" as="geometry" />
        </mxCell>
        <mxCell id="q3S81RTZLH9Rm7Bedyzz-10" value="m" style="text;html=1;align=center;verticalAlign=middle;resizable=0;points=[];autosize=1;strokeColor=none;fillColor=none;" parent="WIyWlLk6GJQsqaUBKTNV-1" vertex="1">
          <mxGeometry x="-105" y="156.17000000000002" width="29" height="26" as="geometry" />
        </mxCell>
        <mxCell id="q3S81RTZLH9Rm7Bedyzz-15" style="edgeStyle=none;rounded=0;orthogonalLoop=1;jettySize=auto;html=1;entryX=0.011;entryY=0.542;entryDx=0;entryDy=0;entryPerimeter=0;endArrow=none;endFill=0;" parent="WIyWlLk6GJQsqaUBKTNV-1" source="q3S81RTZLH9Rm7Bedyzz-11" target="TLsfVrz0yq-yXyJu7jA5-88" edge="1">
          <mxGeometry relative="1" as="geometry" />
        </mxCell>
        <mxCell id="q3S81RTZLH9Rm7Bedyzz-11" value="a" style="text;html=1;align=center;verticalAlign=middle;resizable=0;points=[];autosize=1;strokeColor=none;fillColor=none;" parent="WIyWlLk6GJQsqaUBKTNV-1" vertex="1">
          <mxGeometry x="-103.5" y="180.17000000000002" width="25" height="26" as="geometry" />
        </mxCell>
        <mxCell id="q3S81RTZLH9Rm7Bedyzz-13" style="edgeStyle=none;rounded=0;orthogonalLoop=1;jettySize=auto;html=1;entryX=-0.001;entryY=0.542;entryDx=0;entryDy=0;entryPerimeter=0;endArrow=none;endFill=0;" parent="WIyWlLk6GJQsqaUBKTNV-1" source="q3S81RTZLH9Rm7Bedyzz-12" target="TLsfVrz0yq-yXyJu7jA5-88" edge="1">
          <mxGeometry relative="1" as="geometry" />
        </mxCell>
        <mxCell id="q3S81RTZLH9Rm7Bedyzz-12" value="j" style="text;html=1;align=center;verticalAlign=middle;resizable=0;points=[];autosize=1;strokeColor=none;fillColor=none;fontSize=12;fontColor=#000000;" parent="WIyWlLk6GJQsqaUBKTNV-1" vertex="1">
          <mxGeometry x="-101" y="135.17000000000002" width="21" height="26" as="geometry" />
        </mxCell>
        <mxCell id="q3S81RTZLH9Rm7Bedyzz-16" style="edgeStyle=none;rounded=0;orthogonalLoop=1;jettySize=auto;html=1;entryX=0.005;entryY=0.544;entryDx=0;entryDy=0;entryPerimeter=0;endArrow=none;endFill=0;" parent="WIyWlLk6GJQsqaUBKTNV-1" source="q3S81RTZLH9Rm7Bedyzz-17" target="q3S81RTZLH9Rm7Bedyzz-0" edge="1">
          <mxGeometry relative="1" as="geometry">
            <mxPoint x="24.56200000000027" y="372.79400000000027" as="targetPoint" />
          </mxGeometry>
        </mxCell>
        <mxCell id="q3S81RTZLH9Rm7Bedyzz-17" value="m" style="text;html=1;align=center;verticalAlign=middle;resizable=0;points=[];autosize=1;strokeColor=none;fillColor=none;" parent="WIyWlLk6GJQsqaUBKTNV-1" vertex="1">
          <mxGeometry x="-90.34" y="361.17" width="29" height="26" as="geometry" />
        </mxCell>
        <mxCell id="q3S81RTZLH9Rm7Bedyzz-18" style="edgeStyle=none;rounded=0;orthogonalLoop=1;jettySize=auto;html=1;entryX=-0.002;entryY=0.562;entryDx=0;entryDy=0;entryPerimeter=0;endArrow=none;endFill=0;exitX=1.013;exitY=0.551;exitDx=0;exitDy=0;exitPerimeter=0;" parent="WIyWlLk6GJQsqaUBKTNV-1" source="q3S81RTZLH9Rm7Bedyzz-19" target="q3S81RTZLH9Rm7Bedyzz-0" edge="1">
          <mxGeometry relative="1" as="geometry">
            <mxPoint x="27.0020000000001" y="373.2620000000001" as="targetPoint" />
            <mxPoint x="-63.840000000000146" y="395.00106326889266" as="sourcePoint" />
          </mxGeometry>
        </mxCell>
        <mxCell id="q3S81RTZLH9Rm7Bedyzz-19" value="a" style="text;html=1;align=center;verticalAlign=middle;resizable=0;points=[];autosize=1;strokeColor=none;fillColor=none;" parent="WIyWlLk6GJQsqaUBKTNV-1" vertex="1">
          <mxGeometry x="-88.34" y="379" width="25" height="26" as="geometry" />
        </mxCell>
        <mxCell id="q3S81RTZLH9Rm7Bedyzz-20" style="edgeStyle=none;rounded=0;orthogonalLoop=1;jettySize=auto;html=1;entryX=0;entryY=0.571;entryDx=0;entryDy=0;entryPerimeter=0;endArrow=none;endFill=0;" parent="WIyWlLk6GJQsqaUBKTNV-1" source="q3S81RTZLH9Rm7Bedyzz-21" target="q3S81RTZLH9Rm7Bedyzz-0" edge="1">
          <mxGeometry relative="1" as="geometry">
            <mxPoint x="25.53799999999993" y="373.2620000000001" as="targetPoint" />
          </mxGeometry>
        </mxCell>
        <mxCell id="q3S81RTZLH9Rm7Bedyzz-21" value="j" style="text;html=1;align=center;verticalAlign=middle;resizable=0;points=[];autosize=1;strokeColor=none;fillColor=none;fontSize=12;fontColor=#000000;" parent="WIyWlLk6GJQsqaUBKTNV-1" vertex="1">
          <mxGeometry x="-86.34" y="340.17" width="21" height="26" as="geometry" />
        </mxCell>
        <mxCell id="ZDbLmmGyUOGMyYLeXSUg-54" style="edgeStyle=none;rounded=0;orthogonalLoop=1;jettySize=auto;html=1;entryX=0;entryY=0.5;entryDx=0;entryDy=0;fontColor=#000000;endArrow=none;endFill=0;dashed=1;shape=link;" parent="WIyWlLk6GJQsqaUBKTNV-1" source="nYDkDCYANupg0JcjzxnK-0" target="ZDbLmmGyUOGMyYLeXSUg-40" edge="1">
          <mxGeometry relative="1" as="geometry" />
        </mxCell>
        <mxCell id="nYDkDCYANupg0JcjzxnK-0" value="Concessionnaire " style="rounded=0;whiteSpace=wrap;html=1;" parent="WIyWlLk6GJQsqaUBKTNV-1" vertex="1">
          <mxGeometry x="1467" y="699.16" width="120" height="60" as="geometry" />
        </mxCell>
        <mxCell id="ZDbLmmGyUOGMyYLeXSUg-11" style="edgeStyle=none;rounded=0;orthogonalLoop=1;jettySize=auto;html=1;entryX=0;entryY=0;entryDx=0;entryDy=0;fontColor=#000000;endArrow=none;endFill=0;shape=link;dashed=1;" parent="WIyWlLk6GJQsqaUBKTNV-1" source="nYDkDCYANupg0JcjzxnK-1" target="ZDbLmmGyUOGMyYLeXSUg-10" edge="1">
          <mxGeometry relative="1" as="geometry" />
        </mxCell>
        <mxCell id="nYDkDCYANupg0JcjzxnK-1" value="Client" style="rounded=0;whiteSpace=wrap;html=1;" parent="WIyWlLk6GJQsqaUBKTNV-1" vertex="1">
          <mxGeometry x="1464" y="899.66" width="120" height="60" as="geometry" />
        </mxCell>
        <mxCell id="nYDkDCYANupg0JcjzxnK-2" value="Nom" style="text;html=1;align=center;verticalAlign=middle;resizable=0;points=[];autosize=1;strokeColor=none;fillColor=none;" parent="WIyWlLk6GJQsqaUBKTNV-1" vertex="1">
          <mxGeometry x="1448" y="622.66" width="43" height="26" as="geometry" />
        </mxCell>
        <mxCell id="nYDkDCYANupg0JcjzxnK-3" value="&lt;u&gt;ID-Concessionnaire &lt;/u&gt;" style="text;html=1;align=center;verticalAlign=middle;resizable=0;points=[];autosize=1;strokeColor=none;fillColor=none;" parent="WIyWlLk6GJQsqaUBKTNV-1" vertex="1">
          <mxGeometry x="1537" y="622.66" width="129" height="26" as="geometry" />
        </mxCell>
        <mxCell id="nYDkDCYANupg0JcjzxnK-4" value="" style="endArrow=none;html=1;rounded=0;entryX=0.25;entryY=0;entryDx=0;entryDy=0;exitX=0.488;exitY=1.231;exitDx=0;exitDy=0;exitPerimeter=0;" parent="WIyWlLk6GJQsqaUBKTNV-1" source="nYDkDCYANupg0JcjzxnK-2" target="nYDkDCYANupg0JcjzxnK-0" edge="1">
          <mxGeometry width="50" height="50" relative="1" as="geometry">
            <mxPoint x="1508" y="607.66" as="sourcePoint" />
            <mxPoint x="1570" y="521.16" as="targetPoint" />
            <Array as="points" />
          </mxGeometry>
        </mxCell>
        <mxCell id="nYDkDCYANupg0JcjzxnK-6" value="" style="endArrow=none;html=1;rounded=0;exitX=0.481;exitY=1.077;exitDx=0;exitDy=0;exitPerimeter=0;entryX=0.815;entryY=0.015;entryDx=0;entryDy=0;entryPerimeter=0;" parent="WIyWlLk6GJQsqaUBKTNV-1" source="nYDkDCYANupg0JcjzxnK-3" target="nYDkDCYANupg0JcjzxnK-0" edge="1">
          <mxGeometry width="50" height="50" relative="1" as="geometry">
            <mxPoint x="1413" y="805.16" as="sourcePoint" />
            <mxPoint x="1448" y="765.66" as="targetPoint" />
          </mxGeometry>
        </mxCell>
        <mxCell id="ZDbLmmGyUOGMyYLeXSUg-8" style="edgeStyle=none;rounded=0;orthogonalLoop=1;jettySize=auto;html=1;entryX=0;entryY=0.5;entryDx=0;entryDy=0;fontColor=#000000;endArrow=none;endFill=0;" parent="WIyWlLk6GJQsqaUBKTNV-1" source="nYDkDCYANupg0JcjzxnK-7" target="ZDbLmmGyUOGMyYLeXSUg-2" edge="1">
          <mxGeometry relative="1" as="geometry" />
        </mxCell>
        <mxCell id="nYDkDCYANupg0JcjzxnK-7" value="Vend" style="rhombus;whiteSpace=wrap;html=1;" parent="WIyWlLk6GJQsqaUBKTNV-1" vertex="1">
          <mxGeometry x="1682" y="749.66" width="108" height="68" as="geometry" />
        </mxCell>
        <mxCell id="ZDbLmmGyUOGMyYLeXSUg-95" style="edgeStyle=none;rounded=0;orthogonalLoop=1;jettySize=auto;html=1;entryX=0.5;entryY=0;entryDx=0;entryDy=0;fontColor=#000000;endArrow=none;endFill=0;dashed=1;shape=link;" parent="WIyWlLk6GJQsqaUBKTNV-1" source="nYDkDCYANupg0JcjzxnK-8" target="ZDbLmmGyUOGMyYLeXSUg-94" edge="1">
          <mxGeometry relative="1" as="geometry" />
        </mxCell>
        <mxCell id="nYDkDCYANupg0JcjzxnK-8" value="Voiture" style="rounded=0;whiteSpace=wrap;html=1;" parent="WIyWlLk6GJQsqaUBKTNV-1" vertex="1">
          <mxGeometry x="2146" y="869.16" width="120" height="60" as="geometry" />
        </mxCell>
        <mxCell id="ZDbLmmGyUOGMyYLeXSUg-9" style="edgeStyle=none;rounded=0;orthogonalLoop=1;jettySize=auto;html=1;entryX=0;entryY=0.5;entryDx=0;entryDy=0;fontColor=#000000;endArrow=none;endFill=0;" parent="WIyWlLk6GJQsqaUBKTNV-1" source="nYDkDCYANupg0JcjzxnK-9" target="ZDbLmmGyUOGMyYLeXSUg-2" edge="1">
          <mxGeometry relative="1" as="geometry" />
        </mxCell>
        <mxCell id="nYDkDCYANupg0JcjzxnK-9" value="Achète" style="rhombus;whiteSpace=wrap;html=1;" parent="WIyWlLk6GJQsqaUBKTNV-1" vertex="1">
          <mxGeometry x="1682" y="840.66" width="108" height="68" as="geometry" />
        </mxCell>
        <mxCell id="nYDkDCYANupg0JcjzxnK-14" value="Nom" style="text;html=1;align=center;verticalAlign=middle;resizable=0;points=[];autosize=1;strokeColor=none;fillColor=none;" parent="WIyWlLk6GJQsqaUBKTNV-1" vertex="1">
          <mxGeometry x="1500.8200000000002" y="1027.66" width="43" height="26" as="geometry" />
        </mxCell>
        <mxCell id="nYDkDCYANupg0JcjzxnK-15" value="&lt;u&gt;ID_Client&lt;/u&gt;" style="text;html=1;align=center;verticalAlign=middle;resizable=0;points=[];autosize=1;strokeColor=none;fillColor=none;" parent="WIyWlLk6GJQsqaUBKTNV-1" vertex="1">
          <mxGeometry x="1428" y="1027.66" width="69" height="26" as="geometry" />
        </mxCell>
        <mxCell id="nYDkDCYANupg0JcjzxnK-16" value="" style="endArrow=none;html=1;rounded=0;entryX=0.5;entryY=1;entryDx=0;entryDy=0;" parent="WIyWlLk6GJQsqaUBKTNV-1" source="nYDkDCYANupg0JcjzxnK-14" target="nYDkDCYANupg0JcjzxnK-1" edge="1">
          <mxGeometry width="50" height="50" relative="1" as="geometry">
            <mxPoint x="1695" y="844.66" as="sourcePoint" />
            <mxPoint x="1488" y="864.66" as="targetPoint" />
            <Array as="points" />
          </mxGeometry>
        </mxCell>
        <mxCell id="nYDkDCYANupg0JcjzxnK-17" value="" style="endArrow=none;html=1;rounded=0;entryX=0.25;entryY=1;entryDx=0;entryDy=0;" parent="WIyWlLk6GJQsqaUBKTNV-1" source="nYDkDCYANupg0JcjzxnK-15" target="nYDkDCYANupg0JcjzxnK-1" edge="1">
          <mxGeometry width="50" height="50" relative="1" as="geometry">
            <mxPoint x="1695" y="844.66" as="sourcePoint" />
            <mxPoint x="1745" y="794.66" as="targetPoint" />
          </mxGeometry>
        </mxCell>
        <mxCell id="nYDkDCYANupg0JcjzxnK-18" value="&lt;u&gt;num_série&lt;/u&gt;" style="text;html=1;align=center;verticalAlign=middle;resizable=0;points=[];autosize=1;strokeColor=none;fillColor=none;" parent="WIyWlLk6GJQsqaUBKTNV-1" vertex="1">
          <mxGeometry x="2350" y="797.66" width="78" height="26" as="geometry" />
        </mxCell>
        <mxCell id="nYDkDCYANupg0JcjzxnK-19" value="" style="endArrow=none;html=1;rounded=0;exitX=1;exitY=0;exitDx=0;exitDy=0;" parent="WIyWlLk6GJQsqaUBKTNV-1" source="nYDkDCYANupg0JcjzxnK-8" target="nYDkDCYANupg0JcjzxnK-18" edge="1">
          <mxGeometry width="50" height="50" relative="1" as="geometry">
            <mxPoint x="2228" y="840.16" as="sourcePoint" />
            <mxPoint x="2221" y="818.16" as="targetPoint" />
          </mxGeometry>
        </mxCell>
        <mxCell id="nYDkDCYANupg0JcjzxnK-20" value="type_voiture" style="text;html=1;align=center;verticalAlign=middle;resizable=0;points=[];autosize=1;strokeColor=none;fillColor=none;" parent="WIyWlLk6GJQsqaUBKTNV-1" vertex="1">
          <mxGeometry x="2357" y="836.66" width="83" height="26" as="geometry" />
        </mxCell>
        <mxCell id="nYDkDCYANupg0JcjzxnK-21" value="" style="endArrow=none;html=1;rounded=0;entryX=0.001;entryY=0.573;entryDx=0;entryDy=0;entryPerimeter=0;exitX=1;exitY=0.25;exitDx=0;exitDy=0;" parent="WIyWlLk6GJQsqaUBKTNV-1" source="nYDkDCYANupg0JcjzxnK-8" target="nYDkDCYANupg0JcjzxnK-20" edge="1">
          <mxGeometry width="50" height="50" relative="1" as="geometry">
            <mxPoint x="2273" y="853.16" as="sourcePoint" />
            <mxPoint x="2011" y="721.16" as="targetPoint" />
          </mxGeometry>
        </mxCell>
        <mxCell id="pozmHgs2AGZeO1yeL5DR-3" value="" style="shape=link;html=1;rounded=0;dashed=1;fontSize=10;fontColor=#B09646;endArrow=none;endFill=0;entryX=0;entryY=1;entryDx=0;entryDy=0;exitX=1;exitY=0.5;exitDx=0;exitDy=0;" parent="WIyWlLk6GJQsqaUBKTNV-1" source="nYDkDCYANupg0JcjzxnK-1" target="nYDkDCYANupg0JcjzxnK-9" edge="1">
          <mxGeometry relative="1" as="geometry">
            <mxPoint x="1584" y="932.6643137254904" as="sourcePoint" />
            <mxPoint x="1677" y="933.88" as="targetPoint" />
            <Array as="points" />
          </mxGeometry>
        </mxCell>
        <mxCell id="pozmHgs2AGZeO1yeL5DR-5" value="" style="shape=link;html=1;rounded=0;dashed=1;fontSize=10;fontColor=#B09646;endArrow=none;endFill=0;entryX=0;entryY=0;entryDx=0;entryDy=0;exitX=1;exitY=0.5;exitDx=0;exitDy=0;" parent="WIyWlLk6GJQsqaUBKTNV-1" source="nYDkDCYANupg0JcjzxnK-0" target="nYDkDCYANupg0JcjzxnK-7" edge="1">
          <mxGeometry relative="1" as="geometry">
            <mxPoint x="1594" y="942.6643137254906" as="sourcePoint" />
            <mxPoint x="1681" y="939.66" as="targetPoint" />
            <Array as="points" />
          </mxGeometry>
        </mxCell>
        <mxCell id="GetTwJJiKlDFc-GXk2Wy-19" value="Modèle" style="text;html=1;align=center;verticalAlign=middle;resizable=0;points=[];autosize=1;strokeColor=none;fillColor=none;" parent="WIyWlLk6GJQsqaUBKTNV-1" vertex="1">
          <mxGeometry x="2358.25" y="874.66" width="57" height="26" as="geometry" />
        </mxCell>
        <mxCell id="GetTwJJiKlDFc-GXk2Wy-20" value="Marque" style="text;html=1;align=center;verticalAlign=middle;resizable=0;points=[];autosize=1;strokeColor=none;fillColor=none;" parent="WIyWlLk6GJQsqaUBKTNV-1" vertex="1">
          <mxGeometry x="2360.75" y="904.16" width="59" height="26" as="geometry" />
        </mxCell>
        <mxCell id="GetTwJJiKlDFc-GXk2Wy-21" value="Année" style="text;html=1;align=center;verticalAlign=middle;resizable=0;points=[];autosize=1;strokeColor=none;fillColor=none;" parent="WIyWlLk6GJQsqaUBKTNV-1" vertex="1">
          <mxGeometry x="2363.75" y="965.66" width="53" height="26" as="geometry" />
        </mxCell>
        <mxCell id="GetTwJJiKlDFc-GXk2Wy-22" value="Prix" style="text;html=1;align=center;verticalAlign=middle;resizable=0;points=[];autosize=1;strokeColor=none;fillColor=none;" parent="WIyWlLk6GJQsqaUBKTNV-1" vertex="1">
          <mxGeometry x="2363.75" y="933.66" width="39" height="26" as="geometry" />
        </mxCell>
        <mxCell id="GetTwJJiKlDFc-GXk2Wy-23" value="" style="endArrow=none;html=1;rounded=0;exitX=1;exitY=0.5;exitDx=0;exitDy=0;entryX=-0.047;entryY=0.6;entryDx=0;entryDy=0;entryPerimeter=0;" parent="WIyWlLk6GJQsqaUBKTNV-1" source="nYDkDCYANupg0JcjzxnK-8" target="GetTwJJiKlDFc-GXk2Wy-19" edge="1">
          <mxGeometry width="50" height="50" relative="1" as="geometry">
            <mxPoint x="2356" y="993.66" as="sourcePoint" />
            <mxPoint x="2406" y="943.66" as="targetPoint" />
          </mxGeometry>
        </mxCell>
        <mxCell id="GetTwJJiKlDFc-GXk2Wy-24" value="" style="endArrow=none;html=1;rounded=0;exitX=1;exitY=0.75;exitDx=0;exitDy=0;entryX=-0.059;entryY=0.485;entryDx=0;entryDy=0;entryPerimeter=0;" parent="WIyWlLk6GJQsqaUBKTNV-1" source="nYDkDCYANupg0JcjzxnK-8" target="GetTwJJiKlDFc-GXk2Wy-20" edge="1">
          <mxGeometry width="50" height="50" relative="1" as="geometry">
            <mxPoint x="2356" y="993.66" as="sourcePoint" />
            <mxPoint x="2406" y="943.66" as="targetPoint" />
          </mxGeometry>
        </mxCell>
        <mxCell id="GetTwJJiKlDFc-GXk2Wy-26" value="" style="endArrow=none;html=1;rounded=0;exitX=-0.014;exitY=0.385;exitDx=0;exitDy=0;exitPerimeter=0;entryX=1;entryY=1;entryDx=0;entryDy=0;" parent="WIyWlLk6GJQsqaUBKTNV-1" source="GetTwJJiKlDFc-GXk2Wy-21" target="nYDkDCYANupg0JcjzxnK-8" edge="1">
          <mxGeometry width="50" height="50" relative="1" as="geometry">
            <mxPoint x="2356" y="993.66" as="sourcePoint" />
            <mxPoint x="2406" y="943.66" as="targetPoint" />
            <Array as="points" />
          </mxGeometry>
        </mxCell>
        <mxCell id="GetTwJJiKlDFc-GXk2Wy-27" value="" style="endArrow=none;html=1;rounded=0;exitX=0.032;exitY=0.538;exitDx=0;exitDy=0;exitPerimeter=0;entryX=1;entryY=0.892;entryDx=0;entryDy=0;entryPerimeter=0;" parent="WIyWlLk6GJQsqaUBKTNV-1" source="GetTwJJiKlDFc-GXk2Wy-22" target="nYDkDCYANupg0JcjzxnK-8" edge="1">
          <mxGeometry width="50" height="50" relative="1" as="geometry">
            <mxPoint x="2356" y="993.66" as="sourcePoint" />
            <mxPoint x="2406" y="943.66" as="targetPoint" />
          </mxGeometry>
        </mxCell>
        <mxCell id="t3gbEmW65aFLrgszG5lH-2" style="rounded=0;orthogonalLoop=1;jettySize=auto;html=1;entryX=0.5;entryY=1;entryDx=0;entryDy=0;endArrow=block;endFill=0;" parent="WIyWlLk6GJQsqaUBKTNV-1" source="t3gbEmW65aFLrgszG5lH-0" target="t3gbEmW65aFLrgszG5lH-1" edge="1">
          <mxGeometry relative="1" as="geometry" />
        </mxCell>
        <mxCell id="t3gbEmW65aFLrgszG5lH-0" value="&lt;div&gt;Étudiant&lt;/div&gt;" style="rounded=0;whiteSpace=wrap;html=1;" parent="WIyWlLk6GJQsqaUBKTNV-1" vertex="1">
          <mxGeometry x="3.2900000000000205" y="2205" width="120" height="39" as="geometry" />
        </mxCell>
        <mxCell id="yDomjnnmyjTK1vdxLF3f-3" value="" style="edgeStyle=none;rounded=0;orthogonalLoop=1;jettySize=auto;html=1;endArrow=none;endFill=0;" parent="WIyWlLk6GJQsqaUBKTNV-1" source="t3gbEmW65aFLrgszG5lH-1" target="yDomjnnmyjTK1vdxLF3f-0" edge="1">
          <mxGeometry relative="1" as="geometry" />
        </mxCell>
        <mxCell id="yDomjnnmyjTK1vdxLF3f-40" style="edgeStyle=none;rounded=0;orthogonalLoop=1;jettySize=auto;html=1;entryX=0;entryY=0.5;entryDx=0;entryDy=0;endArrow=none;endFill=0;" parent="WIyWlLk6GJQsqaUBKTNV-1" source="t3gbEmW65aFLrgszG5lH-1" target="yDomjnnmyjTK1vdxLF3f-39" edge="1">
          <mxGeometry relative="1" as="geometry" />
        </mxCell>
        <mxCell id="yDomjnnmyjTK1vdxLF3f-41" value="1:N" style="edgeLabel;html=1;align=center;verticalAlign=middle;resizable=0;points=[];" parent="yDomjnnmyjTK1vdxLF3f-40" vertex="1" connectable="0">
          <mxGeometry x="0.3393" y="1" relative="1" as="geometry">
            <mxPoint x="-8" y="-9" as="offset" />
          </mxGeometry>
        </mxCell>
        <mxCell id="yDomjnnmyjTK1vdxLF3f-48" style="edgeStyle=none;rounded=0;orthogonalLoop=1;jettySize=auto;html=1;exitX=0.25;exitY=0;exitDx=0;exitDy=0;entryX=0.5;entryY=1;entryDx=0;entryDy=0;endArrow=none;endFill=0;dashed=1;shape=link;" parent="WIyWlLk6GJQsqaUBKTNV-1" source="t3gbEmW65aFLrgszG5lH-1" target="yDomjnnmyjTK1vdxLF3f-47" edge="1">
          <mxGeometry relative="1" as="geometry">
            <Array as="points">
              <mxPoint x="33" y="1995" />
              <mxPoint x="-252" y="1988" />
            </Array>
          </mxGeometry>
        </mxCell>
        <mxCell id="Ph438IjxgKNGPO0ka1Jd-136" style="edgeStyle=none;rounded=0;orthogonalLoop=1;jettySize=auto;html=1;exitX=0.75;exitY=0;exitDx=0;exitDy=0;entryX=0;entryY=1;entryDx=0;entryDy=0;endArrow=none;endFill=0;dashed=1;shape=link;" edge="1" parent="WIyWlLk6GJQsqaUBKTNV-1" source="t3gbEmW65aFLrgszG5lH-1" target="Ph438IjxgKNGPO0ka1Jd-135">
          <mxGeometry relative="1" as="geometry" />
        </mxCell>
        <mxCell id="Ph438IjxgKNGPO0ka1Jd-146" style="edgeStyle=none;rounded=0;orthogonalLoop=1;jettySize=auto;html=1;exitX=0;exitY=0.5;exitDx=0;exitDy=0;entryX=1;entryY=0.57;entryDx=0;entryDy=0;entryPerimeter=0;endArrow=none;endFill=0;dashed=1;" edge="1" parent="WIyWlLk6GJQsqaUBKTNV-1" source="t3gbEmW65aFLrgszG5lH-1" target="Ph438IjxgKNGPO0ka1Jd-145">
          <mxGeometry relative="1" as="geometry" />
        </mxCell>
        <mxCell id="t3gbEmW65aFLrgszG5lH-1" value="Frère" style="rounded=0;whiteSpace=wrap;html=1;" parent="WIyWlLk6GJQsqaUBKTNV-1" vertex="1">
          <mxGeometry x="3.2900000000000205" y="2033" width="120" height="39" as="geometry" />
        </mxCell>
        <mxCell id="t3gbEmW65aFLrgszG5lH-4" style="edgeStyle=none;rounded=0;orthogonalLoop=1;jettySize=auto;html=1;entryX=0.25;entryY=1;entryDx=0;entryDy=0;endArrow=none;endFill=0;" parent="WIyWlLk6GJQsqaUBKTNV-1" source="t3gbEmW65aFLrgszG5lH-3" target="t3gbEmW65aFLrgszG5lH-0" edge="1">
          <mxGeometry relative="1" as="geometry" />
        </mxCell>
        <mxCell id="t3gbEmW65aFLrgszG5lH-3" value="Cycle" style="text;html=1;align=center;verticalAlign=middle;resizable=0;points=[];autosize=1;strokeColor=none;fillColor=none;" parent="WIyWlLk6GJQsqaUBKTNV-1" vertex="1">
          <mxGeometry x="9.29000000000002" y="2263" width="48" height="26" as="geometry" />
        </mxCell>
        <mxCell id="Ph438IjxgKNGPO0ka1Jd-119" style="edgeStyle=none;rounded=0;orthogonalLoop=1;jettySize=auto;html=1;entryX=0;entryY=1;entryDx=0;entryDy=0;endArrow=block;endFill=0;" edge="1" parent="WIyWlLk6GJQsqaUBKTNV-1" source="t3gbEmW65aFLrgszG5lH-5" target="t3gbEmW65aFLrgszG5lH-7">
          <mxGeometry relative="1" as="geometry" />
        </mxCell>
        <mxCell id="t3gbEmW65aFLrgszG5lH-5" value="Président" style="rounded=0;whiteSpace=wrap;html=1;" parent="WIyWlLk6GJQsqaUBKTNV-1" vertex="1">
          <mxGeometry x="612.59" y="1759" width="120" height="39" as="geometry" />
        </mxCell>
        <mxCell id="Ph438IjxgKNGPO0ka1Jd-120" style="edgeStyle=none;rounded=0;orthogonalLoop=1;jettySize=auto;html=1;entryX=0.25;entryY=1;entryDx=0;entryDy=0;endArrow=block;endFill=0;exitX=1;exitY=0.5;exitDx=0;exitDy=0;" edge="1" parent="WIyWlLk6GJQsqaUBKTNV-1" source="t3gbEmW65aFLrgszG5lH-6" target="t3gbEmW65aFLrgszG5lH-7">
          <mxGeometry relative="1" as="geometry" />
        </mxCell>
        <mxCell id="Ph438IjxgKNGPO0ka1Jd-132" style="edgeStyle=none;rounded=0;orthogonalLoop=1;jettySize=auto;html=1;entryX=1;entryY=0.5;entryDx=0;entryDy=0;endArrow=none;endFill=0;" edge="1" parent="WIyWlLk6GJQsqaUBKTNV-1" source="t3gbEmW65aFLrgszG5lH-6" target="Ph438IjxgKNGPO0ka1Jd-130">
          <mxGeometry relative="1" as="geometry" />
        </mxCell>
        <mxCell id="t3gbEmW65aFLrgszG5lH-6" value="Vice-président" style="rounded=0;whiteSpace=wrap;html=1;" parent="WIyWlLk6GJQsqaUBKTNV-1" vertex="1">
          <mxGeometry x="611.4100000000001" y="1806" width="120" height="39" as="geometry" />
        </mxCell>
        <mxCell id="Ph438IjxgKNGPO0ka1Jd-127" style="edgeStyle=none;rounded=0;orthogonalLoop=1;jettySize=auto;html=1;exitX=0.883;exitY=0.987;exitDx=0;exitDy=0;endArrow=block;endFill=0;entryX=1;entryY=0.5;entryDx=0;entryDy=0;exitPerimeter=0;" edge="1" parent="WIyWlLk6GJQsqaUBKTNV-1" source="t3gbEmW65aFLrgszG5lH-7" target="t3gbEmW65aFLrgszG5lH-0">
          <mxGeometry relative="1" as="geometry">
            <mxPoint x="946.8571428571431" y="2201.142857142858" as="targetPoint" />
            <Array as="points">
              <mxPoint x="933" y="2225" />
            </Array>
          </mxGeometry>
        </mxCell>
        <mxCell id="Ph438IjxgKNGPO0ka1Jd-139" style="edgeStyle=none;rounded=0;orthogonalLoop=1;jettySize=auto;html=1;entryX=-0.027;entryY=0.5;entryDx=0;entryDy=0;entryPerimeter=0;endArrow=none;endFill=0;" edge="1" parent="WIyWlLk6GJQsqaUBKTNV-1" source="t3gbEmW65aFLrgszG5lH-7" target="Ph438IjxgKNGPO0ka1Jd-138">
          <mxGeometry relative="1" as="geometry" />
        </mxCell>
        <mxCell id="t3gbEmW65aFLrgszG5lH-7" value="Membre exécutif" style="rounded=0;whiteSpace=wrap;html=1;" parent="WIyWlLk6GJQsqaUBKTNV-1" vertex="1">
          <mxGeometry x="826.9999999999999" y="1711.5000000000007" width="120" height="39" as="geometry" />
        </mxCell>
        <mxCell id="Ph438IjxgKNGPO0ka1Jd-122" style="edgeStyle=none;rounded=0;orthogonalLoop=1;jettySize=auto;html=1;entryX=0.75;entryY=1;entryDx=0;entryDy=0;endArrow=block;endFill=0;exitX=1;exitY=0.5;exitDx=0;exitDy=0;" edge="1" parent="WIyWlLk6GJQsqaUBKTNV-1" source="t3gbEmW65aFLrgszG5lH-8" target="t3gbEmW65aFLrgszG5lH-7">
          <mxGeometry relative="1" as="geometry" />
        </mxCell>
        <mxCell id="t3gbEmW65aFLrgszG5lH-8" value="Trésorier" style="rounded=0;whiteSpace=wrap;html=1;" parent="WIyWlLk6GJQsqaUBKTNV-1" vertex="1">
          <mxGeometry x="612.59" y="1918.5" width="120" height="39" as="geometry" />
        </mxCell>
        <mxCell id="t3gbEmW65aFLrgszG5lH-14" style="edgeStyle=none;rounded=0;orthogonalLoop=1;jettySize=auto;html=1;entryX=0;entryY=0.5;entryDx=0;entryDy=0;endArrow=none;endFill=0;exitX=1.03;exitY=0.577;exitDx=0;exitDy=0;exitPerimeter=0;" parent="WIyWlLk6GJQsqaUBKTNV-1" source="t3gbEmW65aFLrgszG5lH-13" target="t3gbEmW65aFLrgszG5lH-0" edge="1">
          <mxGeometry relative="1" as="geometry">
            <mxPoint x="-45.70999999999998" y="2052.4999999999995" as="sourcePoint" />
          </mxGeometry>
        </mxCell>
        <mxCell id="t3gbEmW65aFLrgszG5lH-13" value="Nom" style="text;html=1;align=center;verticalAlign=middle;resizable=0;points=[];autosize=1;strokeColor=none;fillColor=none;" parent="WIyWlLk6GJQsqaUBKTNV-1" vertex="1">
          <mxGeometry x="-140.5" y="2213.5" width="45" height="26" as="geometry" />
        </mxCell>
        <mxCell id="yDomjnnmyjTK1vdxLF3f-2" style="edgeStyle=none;shape=link;rounded=0;orthogonalLoop=1;jettySize=auto;html=1;entryX=0.5;entryY=0;entryDx=0;entryDy=0;dashed=1;" parent="WIyWlLk6GJQsqaUBKTNV-1" source="t3gbEmW65aFLrgszG5lH-17" target="yDomjnnmyjTK1vdxLF3f-0" edge="1">
          <mxGeometry relative="1" as="geometry" />
        </mxCell>
        <mxCell id="t3gbEmW65aFLrgszG5lH-17" value="Fraternité " style="rounded=0;whiteSpace=wrap;html=1;" parent="WIyWlLk6GJQsqaUBKTNV-1" vertex="1">
          <mxGeometry x="8.000000000000028" y="1777" width="120" height="44" as="geometry" />
        </mxCell>
        <mxCell id="t3gbEmW65aFLrgszG5lH-20" style="edgeStyle=none;rounded=0;orthogonalLoop=1;jettySize=auto;html=1;entryX=0.75;entryY=1;entryDx=0;entryDy=0;endArrow=none;endFill=0;" parent="WIyWlLk6GJQsqaUBKTNV-1" source="t3gbEmW65aFLrgszG5lH-19" target="nYDkDCYANupg0JcjzxnK-1" edge="1">
          <mxGeometry relative="1" as="geometry" />
        </mxCell>
        <mxCell id="t3gbEmW65aFLrgszG5lH-21" value="1:N" style="edgeLabel;html=1;align=center;verticalAlign=middle;resizable=0;points=[];" parent="t3gbEmW65aFLrgszG5lH-20" vertex="1" connectable="0">
          <mxGeometry x="-0.3329" y="-1" relative="1" as="geometry">
            <mxPoint x="13" y="5" as="offset" />
          </mxGeometry>
        </mxCell>
        <mxCell id="t3gbEmW65aFLrgszG5lH-19" value="Prénom" style="text;html=1;align=center;verticalAlign=middle;resizable=0;points=[];autosize=1;strokeColor=none;fillColor=none;" parent="WIyWlLk6GJQsqaUBKTNV-1" vertex="1">
          <mxGeometry x="1541" y="1027.66" width="62" height="26" as="geometry" />
        </mxCell>
        <mxCell id="t3gbEmW65aFLrgszG5lH-22" value="&lt;font color=&quot;#CC99FF&quot;&gt;[NEUVE,OCCASION]&lt;/font&gt;" style="text;html=1;align=center;verticalAlign=middle;resizable=0;points=[];autosize=1;" parent="WIyWlLk6GJQsqaUBKTNV-1" vertex="1">
          <mxGeometry x="2432.5" y="836.66" width="131" height="26" as="geometry" />
        </mxCell>
        <mxCell id="t3gbEmW65aFLrgszG5lH-25" style="edgeStyle=none;rounded=0;orthogonalLoop=1;jettySize=auto;html=1;entryX=0.5;entryY=0;entryDx=0;entryDy=0;fontColor=#CC99FF;endArrow=none;endFill=0;" parent="WIyWlLk6GJQsqaUBKTNV-1" source="t3gbEmW65aFLrgszG5lH-23" target="nYDkDCYANupg0JcjzxnK-0" edge="1">
          <mxGeometry relative="1" as="geometry" />
        </mxCell>
        <mxCell id="t3gbEmW65aFLrgszG5lH-28" value="1:N" style="edgeLabel;html=1;align=center;verticalAlign=middle;resizable=0;points=[];fontColor=#000000;" parent="t3gbEmW65aFLrgszG5lH-25" vertex="1" connectable="0">
          <mxGeometry x="-0.5911" relative="1" as="geometry">
            <mxPoint x="11" y="8" as="offset" />
          </mxGeometry>
        </mxCell>
        <mxCell id="t3gbEmW65aFLrgszG5lH-23" value="Prénom" style="text;html=1;align=center;verticalAlign=middle;resizable=0;points=[];autosize=1;strokeColor=none;fillColor=none;" parent="WIyWlLk6GJQsqaUBKTNV-1" vertex="1">
          <mxGeometry x="1485" y="622.66" width="62" height="26" as="geometry" />
        </mxCell>
        <mxCell id="t3gbEmW65aFLrgszG5lH-45" value="Facture" style="rounded=0;whiteSpace=wrap;html=1;" parent="WIyWlLk6GJQsqaUBKTNV-1" vertex="1">
          <mxGeometry x="2146" y="704.66" width="120" height="60" as="geometry" />
        </mxCell>
        <mxCell id="t3gbEmW65aFLrgszG5lH-46" style="edgeStyle=none;rounded=0;orthogonalLoop=1;jettySize=auto;html=1;entryX=1;entryY=0.25;entryDx=0;entryDy=0;fontColor=#000000;endArrow=none;endFill=0;exitX=-0.013;exitY=0.724;exitDx=0;exitDy=0;exitPerimeter=0;" parent="WIyWlLk6GJQsqaUBKTNV-1" source="t3gbEmW65aFLrgszG5lH-47" target="t3gbEmW65aFLrgszG5lH-45" edge="1">
          <mxGeometry relative="1" as="geometry">
            <mxPoint x="2507.9400000000005" y="664.2199999999999" as="targetPoint" />
          </mxGeometry>
        </mxCell>
        <mxCell id="t3gbEmW65aFLrgszG5lH-47" value="Date de facture" style="text;html=1;align=center;verticalAlign=middle;resizable=0;points=[];autosize=1;strokeColor=none;fillColor=none;fontSize=12;fontColor=#000000;" parent="WIyWlLk6GJQsqaUBKTNV-1" vertex="1">
          <mxGeometry x="2348" y="686.16" width="101" height="26" as="geometry" />
        </mxCell>
        <mxCell id="t3gbEmW65aFLrgszG5lH-48" style="edgeStyle=none;rounded=0;orthogonalLoop=1;jettySize=auto;html=1;entryX=1.01;entryY=0.596;entryDx=0;entryDy=0;entryPerimeter=0;endArrow=none;endFill=0;" parent="WIyWlLk6GJQsqaUBKTNV-1" source="t3gbEmW65aFLrgszG5lH-49" target="t3gbEmW65aFLrgszG5lH-47" edge="1">
          <mxGeometry relative="1" as="geometry" />
        </mxCell>
        <mxCell id="t3gbEmW65aFLrgszG5lH-49" value="m" style="text;html=1;align=center;verticalAlign=middle;resizable=0;points=[];autosize=1;strokeColor=none;fillColor=none;" parent="WIyWlLk6GJQsqaUBKTNV-1" vertex="1">
          <mxGeometry x="2549.8599999999997" y="684.66" width="29" height="26" as="geometry" />
        </mxCell>
        <mxCell id="t3gbEmW65aFLrgszG5lH-50" style="edgeStyle=none;rounded=0;orthogonalLoop=1;jettySize=auto;html=1;entryX=1.021;entryY=0.511;entryDx=0;entryDy=0;entryPerimeter=0;endArrow=none;endFill=0;" parent="WIyWlLk6GJQsqaUBKTNV-1" source="t3gbEmW65aFLrgszG5lH-51" target="t3gbEmW65aFLrgszG5lH-47" edge="1">
          <mxGeometry relative="1" as="geometry" />
        </mxCell>
        <mxCell id="t3gbEmW65aFLrgszG5lH-51" value="a" style="text;html=1;align=center;verticalAlign=middle;resizable=0;points=[];autosize=1;strokeColor=none;fillColor=none;" parent="WIyWlLk6GJQsqaUBKTNV-1" vertex="1">
          <mxGeometry x="2551.3599999999997" y="708.66" width="25" height="26" as="geometry" />
        </mxCell>
        <mxCell id="t3gbEmW65aFLrgszG5lH-52" style="edgeStyle=none;rounded=0;orthogonalLoop=1;jettySize=auto;html=1;entryX=1.032;entryY=0.553;entryDx=0;entryDy=0;entryPerimeter=0;endArrow=none;endFill=0;" parent="WIyWlLk6GJQsqaUBKTNV-1" source="t3gbEmW65aFLrgszG5lH-53" target="t3gbEmW65aFLrgszG5lH-47" edge="1">
          <mxGeometry relative="1" as="geometry" />
        </mxCell>
        <mxCell id="t3gbEmW65aFLrgszG5lH-53" value="j" style="text;html=1;align=center;verticalAlign=middle;resizable=0;points=[];autosize=1;strokeColor=none;fillColor=none;fontSize=12;fontColor=#000000;" parent="WIyWlLk6GJQsqaUBKTNV-1" vertex="1">
          <mxGeometry x="2553.8599999999997" y="663.66" width="21" height="26" as="geometry" />
        </mxCell>
        <mxCell id="ZDbLmmGyUOGMyYLeXSUg-6" style="edgeStyle=none;rounded=0;orthogonalLoop=1;jettySize=auto;html=1;entryX=1;entryY=0.5;entryDx=0;entryDy=0;fontColor=#000000;endArrow=none;endFill=0;" parent="WIyWlLk6GJQsqaUBKTNV-1" source="t3gbEmW65aFLrgszG5lH-55" target="t3gbEmW65aFLrgszG5lH-45" edge="1">
          <mxGeometry relative="1" as="geometry" />
        </mxCell>
        <mxCell id="t3gbEmW65aFLrgszG5lH-55" value="&lt;u&gt;#-Facture&lt;/u&gt;" style="text;html=1;align=center;verticalAlign=middle;resizable=0;points=[];autosize=1;strokeColor=none;fillColor=none;fontColor=#000000;" parent="WIyWlLk6GJQsqaUBKTNV-1" vertex="1">
          <mxGeometry x="2379" y="714.16" width="70" height="26" as="geometry" />
        </mxCell>
        <mxCell id="ZDbLmmGyUOGMyYLeXSUg-7" style="edgeStyle=none;rounded=0;orthogonalLoop=1;jettySize=auto;html=1;entryX=1;entryY=0.75;entryDx=0;entryDy=0;fontColor=#000000;endArrow=none;endFill=0;" parent="WIyWlLk6GJQsqaUBKTNV-1" source="t3gbEmW65aFLrgszG5lH-57" target="t3gbEmW65aFLrgszG5lH-45" edge="1">
          <mxGeometry relative="1" as="geometry" />
        </mxCell>
        <mxCell id="t3gbEmW65aFLrgszG5lH-57" value="Montant" style="text;html=1;align=center;verticalAlign=middle;resizable=0;points=[];autosize=1;strokeColor=none;fillColor=none;fontColor=#000000;" parent="WIyWlLk6GJQsqaUBKTNV-1" vertex="1">
          <mxGeometry x="2383.5" y="743.16" width="61" height="26" as="geometry" />
        </mxCell>
        <mxCell id="ZDbLmmGyUOGMyYLeXSUg-1" style="edgeStyle=none;rounded=0;orthogonalLoop=1;jettySize=auto;html=1;entryX=0;entryY=0.5;entryDx=0;entryDy=0;fontColor=#000000;endArrow=none;endFill=0;exitX=0.914;exitY=0.384;exitDx=0;exitDy=0;exitPerimeter=0;" parent="WIyWlLk6GJQsqaUBKTNV-1" source="ZDbLmmGyUOGMyYLeXSUg-0" target="t3gbEmW65aFLrgszG5lH-45" edge="1">
          <mxGeometry relative="1" as="geometry" />
        </mxCell>
        <mxCell id="ZDbLmmGyUOGMyYLeXSUg-4" style="edgeStyle=none;rounded=0;orthogonalLoop=1;jettySize=auto;html=1;exitX=0.872;exitY=0.678;exitDx=0;exitDy=0;entryX=0;entryY=0.5;entryDx=0;entryDy=0;fontColor=#000000;endArrow=none;endFill=0;exitPerimeter=0;" parent="WIyWlLk6GJQsqaUBKTNV-1" source="ZDbLmmGyUOGMyYLeXSUg-0" target="nYDkDCYANupg0JcjzxnK-8" edge="1">
          <mxGeometry relative="1" as="geometry" />
        </mxCell>
        <mxCell id="ZDbLmmGyUOGMyYLeXSUg-0" value="Contient" style="rhombus;whiteSpace=wrap;html=1;" parent="WIyWlLk6GJQsqaUBKTNV-1" vertex="1">
          <mxGeometry x="2002" y="785.66" width="108" height="68" as="geometry" />
        </mxCell>
        <mxCell id="ZDbLmmGyUOGMyYLeXSUg-3" style="edgeStyle=none;rounded=0;orthogonalLoop=1;jettySize=auto;html=1;entryX=0;entryY=0.5;entryDx=0;entryDy=0;fontColor=#000000;endArrow=none;endFill=0;" parent="WIyWlLk6GJQsqaUBKTNV-1" source="ZDbLmmGyUOGMyYLeXSUg-2" target="ZDbLmmGyUOGMyYLeXSUg-0" edge="1">
          <mxGeometry relative="1" as="geometry" />
        </mxCell>
        <mxCell id="ZDbLmmGyUOGMyYLeXSUg-2" value="Voiture en vente" style="rounded=0;whiteSpace=wrap;html=1;" parent="WIyWlLk6GJQsqaUBKTNV-1" vertex="1">
          <mxGeometry x="1845" y="789.66" width="120" height="60" as="geometry" />
        </mxCell>
        <mxCell id="ZDbLmmGyUOGMyYLeXSUg-24" style="edgeStyle=none;rounded=0;orthogonalLoop=1;jettySize=auto;html=1;exitX=1;exitY=0.5;exitDx=0;exitDy=0;entryX=0;entryY=0.5;entryDx=0;entryDy=0;fontColor=#000000;endArrow=none;endFill=0;" parent="WIyWlLk6GJQsqaUBKTNV-1" source="ZDbLmmGyUOGMyYLeXSUg-10" target="ZDbLmmGyUOGMyYLeXSUg-23" edge="1">
          <mxGeometry relative="1" as="geometry" />
        </mxCell>
        <mxCell id="ZDbLmmGyUOGMyYLeXSUg-10" value="Demande" style="rhombus;whiteSpace=wrap;html=1;" parent="WIyWlLk6GJQsqaUBKTNV-1" vertex="1">
          <mxGeometry x="1671" y="1001.16" width="108" height="68" as="geometry" />
        </mxCell>
        <mxCell id="ZDbLmmGyUOGMyYLeXSUg-18" style="edgeStyle=none;rounded=0;orthogonalLoop=1;jettySize=auto;html=1;entryX=0.176;entryY=-0.008;entryDx=0;entryDy=0;fontColor=#000000;endArrow=none;endFill=0;entryPerimeter=0;" parent="WIyWlLk6GJQsqaUBKTNV-1" source="ZDbLmmGyUOGMyYLeXSUg-17" target="t3gbEmW65aFLrgszG5lH-45" edge="1">
          <mxGeometry relative="1" as="geometry">
            <Array as="points">
              <mxPoint x="2168" y="586.66" />
            </Array>
          </mxGeometry>
        </mxCell>
        <mxCell id="ZDbLmmGyUOGMyYLeXSUg-27" style="edgeStyle=none;rounded=0;orthogonalLoop=1;jettySize=auto;html=1;entryX=1;entryY=0.25;entryDx=0;entryDy=0;fontColor=#000000;endArrow=none;endFill=0;exitX=0;exitY=0.5;exitDx=0;exitDy=0;dashed=1;shape=link;" parent="WIyWlLk6GJQsqaUBKTNV-1" source="ZDbLmmGyUOGMyYLeXSUg-17" target="nYDkDCYANupg0JcjzxnK-0" edge="1">
          <mxGeometry relative="1" as="geometry" />
        </mxCell>
        <mxCell id="ZDbLmmGyUOGMyYLeXSUg-17" value="Établit" style="rhombus;whiteSpace=wrap;html=1;" parent="WIyWlLk6GJQsqaUBKTNV-1" vertex="1">
          <mxGeometry x="1824" y="554.66" width="108" height="68" as="geometry" />
        </mxCell>
        <mxCell id="ZDbLmmGyUOGMyYLeXSUg-21" style="edgeStyle=none;rounded=0;orthogonalLoop=1;jettySize=auto;html=1;exitX=0;exitY=0.5;exitDx=0;exitDy=0;entryX=0;entryY=0.5;entryDx=0;entryDy=0;fontColor=#000000;endArrow=none;endFill=0;dashed=1;shape=link;" parent="WIyWlLk6GJQsqaUBKTNV-1" source="ZDbLmmGyUOGMyYLeXSUg-20" target="nYDkDCYANupg0JcjzxnK-1" edge="1">
          <mxGeometry relative="1" as="geometry">
            <Array as="points">
              <mxPoint x="1377" y="508.66" />
              <mxPoint x="1377" y="929.66" />
            </Array>
          </mxGeometry>
        </mxCell>
        <mxCell id="ZDbLmmGyUOGMyYLeXSUg-22" style="edgeStyle=none;rounded=0;orthogonalLoop=1;jettySize=auto;html=1;entryX=0.668;entryY=-0.008;entryDx=0;entryDy=0;fontColor=#000000;endArrow=none;endFill=0;entryPerimeter=0;" parent="WIyWlLk6GJQsqaUBKTNV-1" source="ZDbLmmGyUOGMyYLeXSUg-20" target="t3gbEmW65aFLrgszG5lH-45" edge="1">
          <mxGeometry relative="1" as="geometry">
            <Array as="points">
              <mxPoint x="2226" y="514.66" />
            </Array>
          </mxGeometry>
        </mxCell>
        <mxCell id="ZDbLmmGyUOGMyYLeXSUg-20" value="Reçoit" style="rhombus;whiteSpace=wrap;html=1;" parent="WIyWlLk6GJQsqaUBKTNV-1" vertex="1">
          <mxGeometry x="1831.5" y="482.66" width="93" height="58" as="geometry" />
        </mxCell>
        <mxCell id="ZDbLmmGyUOGMyYLeXSUg-30" style="edgeStyle=none;rounded=0;orthogonalLoop=1;jettySize=auto;html=1;exitX=0.48;exitY=0.999;exitDx=0;exitDy=0;entryX=0.5;entryY=0;entryDx=0;entryDy=0;fontColor=#000000;endArrow=none;endFill=0;exitPerimeter=0;" parent="WIyWlLk6GJQsqaUBKTNV-1" source="ZDbLmmGyUOGMyYLeXSUg-23" target="ZDbLmmGyUOGMyYLeXSUg-26" edge="1">
          <mxGeometry relative="1" as="geometry" />
        </mxCell>
        <mxCell id="ZDbLmmGyUOGMyYLeXSUg-98" value="&lt;div&gt;1:N&lt;/div&gt;" style="edgeLabel;html=1;align=center;verticalAlign=middle;resizable=0;points=[];fontColor=#000000;" parent="ZDbLmmGyUOGMyYLeXSUg-30" vertex="1" connectable="0">
          <mxGeometry x="0.1923" relative="1" as="geometry">
            <mxPoint x="13" y="-1" as="offset" />
          </mxGeometry>
        </mxCell>
        <mxCell id="ZDbLmmGyUOGMyYLeXSUg-96" style="edgeStyle=none;rounded=0;orthogonalLoop=1;jettySize=auto;html=1;entryX=0;entryY=0.5;entryDx=0;entryDy=0;fontColor=#000000;endArrow=none;endFill=0;" parent="WIyWlLk6GJQsqaUBKTNV-1" source="ZDbLmmGyUOGMyYLeXSUg-23" target="ZDbLmmGyUOGMyYLeXSUg-94" edge="1">
          <mxGeometry relative="1" as="geometry" />
        </mxCell>
        <mxCell id="ZDbLmmGyUOGMyYLeXSUg-23" value="Entretient" style="rounded=0;whiteSpace=wrap;html=1;" parent="WIyWlLk6GJQsqaUBKTNV-1" vertex="1">
          <mxGeometry x="1852" y="1005.16" width="120" height="60" as="geometry" />
        </mxCell>
        <mxCell id="ZDbLmmGyUOGMyYLeXSUg-26" value="Effectue" style="rhombus;whiteSpace=wrap;html=1;" parent="WIyWlLk6GJQsqaUBKTNV-1" vertex="1">
          <mxGeometry x="1856" y="1094.66" width="108" height="68" as="geometry" />
        </mxCell>
        <mxCell id="ZDbLmmGyUOGMyYLeXSUg-29" style="edgeStyle=none;rounded=0;orthogonalLoop=1;jettySize=auto;html=1;entryX=0.5;entryY=1;entryDx=0;entryDy=0;fontColor=#000000;endArrow=none;endFill=0;shape=link;dashed=1;" parent="WIyWlLk6GJQsqaUBKTNV-1" source="ZDbLmmGyUOGMyYLeXSUg-28" target="ZDbLmmGyUOGMyYLeXSUg-26" edge="1">
          <mxGeometry relative="1" as="geometry" />
        </mxCell>
        <mxCell id="ZDbLmmGyUOGMyYLeXSUg-102" style="edgeStyle=none;rounded=0;orthogonalLoop=1;jettySize=auto;html=1;entryX=0;entryY=0.5;entryDx=0;entryDy=0;dashed=1;fontColor=#000000;endArrow=none;endFill=0;shape=link;" parent="WIyWlLk6GJQsqaUBKTNV-1" source="ZDbLmmGyUOGMyYLeXSUg-28" target="ZDbLmmGyUOGMyYLeXSUg-101" edge="1">
          <mxGeometry relative="1" as="geometry" />
        </mxCell>
        <mxCell id="ZDbLmmGyUOGMyYLeXSUg-28" value="Mécanicien" style="rounded=0;whiteSpace=wrap;html=1;" parent="WIyWlLk6GJQsqaUBKTNV-1" vertex="1">
          <mxGeometry x="1850" y="1186.66" width="120" height="60" as="geometry" />
        </mxCell>
        <mxCell id="ZDbLmmGyUOGMyYLeXSUg-40" value="Conserve" style="rhombus;whiteSpace=wrap;html=1;" parent="WIyWlLk6GJQsqaUBKTNV-1" vertex="1">
          <mxGeometry x="1831.5" y="639.66" width="93" height="58" as="geometry" />
        </mxCell>
        <mxCell id="ZDbLmmGyUOGMyYLeXSUg-48" style="edgeStyle=none;rounded=0;orthogonalLoop=1;jettySize=auto;html=1;entryX=0.5;entryY=1;entryDx=0;entryDy=0;fontColor=#000000;endArrow=none;endFill=0;" parent="WIyWlLk6GJQsqaUBKTNV-1" source="ZDbLmmGyUOGMyYLeXSUg-43" target="ZDbLmmGyUOGMyYLeXSUg-28" edge="1">
          <mxGeometry relative="1" as="geometry" />
        </mxCell>
        <mxCell id="ZDbLmmGyUOGMyYLeXSUg-43" value="Nom" style="text;html=1;align=center;verticalAlign=middle;resizable=0;points=[];autosize=1;strokeColor=none;fillColor=none;" parent="WIyWlLk6GJQsqaUBKTNV-1" vertex="1">
          <mxGeometry x="1899.8199999999997" y="1286.3300000000002" width="43" height="26" as="geometry" />
        </mxCell>
        <mxCell id="ZDbLmmGyUOGMyYLeXSUg-49" style="edgeStyle=none;rounded=0;orthogonalLoop=1;jettySize=auto;html=1;entryX=0.25;entryY=1;entryDx=0;entryDy=0;fontColor=#000000;endArrow=none;endFill=0;" parent="WIyWlLk6GJQsqaUBKTNV-1" source="ZDbLmmGyUOGMyYLeXSUg-44" target="ZDbLmmGyUOGMyYLeXSUg-28" edge="1">
          <mxGeometry relative="1" as="geometry" />
        </mxCell>
        <mxCell id="ZDbLmmGyUOGMyYLeXSUg-44" value="&lt;u&gt;ID_Mécanicien&lt;/u&gt;" style="text;html=1;align=center;verticalAlign=middle;resizable=0;points=[];autosize=1;strokeColor=none;fillColor=none;" parent="WIyWlLk6GJQsqaUBKTNV-1" vertex="1">
          <mxGeometry x="1800.8200000000002" y="1286.3300000000002" width="99" height="26" as="geometry" />
        </mxCell>
        <mxCell id="ZDbLmmGyUOGMyYLeXSUg-47" style="edgeStyle=none;rounded=0;orthogonalLoop=1;jettySize=auto;html=1;entryX=0.75;entryY=1;entryDx=0;entryDy=0;fontColor=#000000;endArrow=none;endFill=0;" parent="WIyWlLk6GJQsqaUBKTNV-1" source="ZDbLmmGyUOGMyYLeXSUg-46" target="ZDbLmmGyUOGMyYLeXSUg-28" edge="1">
          <mxGeometry relative="1" as="geometry" />
        </mxCell>
        <mxCell id="ZDbLmmGyUOGMyYLeXSUg-50" value="1:N" style="edgeLabel;html=1;align=center;verticalAlign=middle;resizable=0;points=[];fontColor=#000000;" parent="ZDbLmmGyUOGMyYLeXSUg-47" vertex="1" connectable="0">
          <mxGeometry x="-0.4483" y="1" relative="1" as="geometry">
            <mxPoint x="16" y="-1" as="offset" />
          </mxGeometry>
        </mxCell>
        <mxCell id="ZDbLmmGyUOGMyYLeXSUg-46" value="Prénom" style="text;html=1;align=center;verticalAlign=middle;resizable=0;points=[];autosize=1;strokeColor=none;fillColor=none;" parent="WIyWlLk6GJQsqaUBKTNV-1" vertex="1">
          <mxGeometry x="1940" y="1286.3300000000002" width="62" height="26" as="geometry" />
        </mxCell>
        <mxCell id="ZDbLmmGyUOGMyYLeXSUg-93" style="edgeStyle=none;rounded=0;orthogonalLoop=1;jettySize=auto;html=1;entryX=0.75;entryY=0;entryDx=0;entryDy=0;fontColor=#000000;endArrow=none;endFill=0;" parent="WIyWlLk6GJQsqaUBKTNV-1" source="ZDbLmmGyUOGMyYLeXSUg-56" target="ZDbLmmGyUOGMyYLeXSUg-23" edge="1">
          <mxGeometry relative="1" as="geometry" />
        </mxCell>
        <mxCell id="ZDbLmmGyUOGMyYLeXSUg-56" value="Date de l&#39;entretient" style="text;html=1;align=center;verticalAlign=middle;resizable=0;points=[];autosize=1;strokeColor=none;fillColor=none;fontSize=12;fontColor=#000000;" parent="WIyWlLk6GJQsqaUBKTNV-1" vertex="1">
          <mxGeometry x="1892.3199999999997" y="936.41" width="120" height="26" as="geometry" />
        </mxCell>
        <mxCell id="ZDbLmmGyUOGMyYLeXSUg-92" style="edgeStyle=none;rounded=0;orthogonalLoop=1;jettySize=auto;html=1;entryX=1.013;entryY=0.499;entryDx=0;entryDy=0;entryPerimeter=0;fontColor=#000000;endArrow=none;endFill=0;" parent="WIyWlLk6GJQsqaUBKTNV-1" source="ZDbLmmGyUOGMyYLeXSUg-58" target="ZDbLmmGyUOGMyYLeXSUg-56" edge="1">
          <mxGeometry relative="1" as="geometry" />
        </mxCell>
        <mxCell id="ZDbLmmGyUOGMyYLeXSUg-58" value="m" style="text;html=1;align=center;verticalAlign=middle;resizable=0;points=[];autosize=1;strokeColor=none;fillColor=none;" parent="WIyWlLk6GJQsqaUBKTNV-1" vertex="1">
          <mxGeometry x="2035" y="932.16" width="29" height="26" as="geometry" />
        </mxCell>
        <mxCell id="ZDbLmmGyUOGMyYLeXSUg-59" style="edgeStyle=none;rounded=0;orthogonalLoop=1;jettySize=auto;html=1;entryX=1.014;entryY=0.502;entryDx=0;entryDy=0;entryPerimeter=0;endArrow=none;endFill=0;" parent="WIyWlLk6GJQsqaUBKTNV-1" source="ZDbLmmGyUOGMyYLeXSUg-60" target="ZDbLmmGyUOGMyYLeXSUg-56" edge="1">
          <mxGeometry relative="1" as="geometry" />
        </mxCell>
        <mxCell id="ZDbLmmGyUOGMyYLeXSUg-60" value="a" style="text;html=1;align=center;verticalAlign=middle;resizable=0;points=[];autosize=1;strokeColor=none;fillColor=none;" parent="WIyWlLk6GJQsqaUBKTNV-1" vertex="1">
          <mxGeometry x="2036.5" y="956.16" width="25" height="26" as="geometry" />
        </mxCell>
        <mxCell id="ZDbLmmGyUOGMyYLeXSUg-61" style="edgeStyle=none;rounded=0;orthogonalLoop=1;jettySize=auto;html=1;endArrow=none;endFill=0;" parent="WIyWlLk6GJQsqaUBKTNV-1" source="ZDbLmmGyUOGMyYLeXSUg-62" edge="1">
          <mxGeometry relative="1" as="geometry">
            <mxPoint x="2014" y="948.66" as="targetPoint" />
          </mxGeometry>
        </mxCell>
        <mxCell id="ZDbLmmGyUOGMyYLeXSUg-62" value="j" style="text;html=1;align=center;verticalAlign=middle;resizable=0;points=[];autosize=1;strokeColor=none;fillColor=none;fontSize=12;fontColor=#000000;" parent="WIyWlLk6GJQsqaUBKTNV-1" vertex="1">
          <mxGeometry x="2039" y="911.16" width="21" height="26" as="geometry" />
        </mxCell>
        <mxCell id="ZDbLmmGyUOGMyYLeXSUg-91" style="edgeStyle=none;rounded=0;orthogonalLoop=1;jettySize=auto;html=1;entryX=0.5;entryY=0;entryDx=0;entryDy=0;fontColor=#000000;endArrow=none;endFill=0;" parent="WIyWlLk6GJQsqaUBKTNV-1" source="ZDbLmmGyUOGMyYLeXSUg-63" target="ZDbLmmGyUOGMyYLeXSUg-23" edge="1">
          <mxGeometry relative="1" as="geometry" />
        </mxCell>
        <mxCell id="ZDbLmmGyUOGMyYLeXSUg-63" value="&lt;u&gt;#-Entretient&lt;/u&gt;" style="text;html=1;align=center;verticalAlign=middle;resizable=0;points=[];autosize=1;strokeColor=none;fillColor=none;fontColor=#000000;" parent="WIyWlLk6GJQsqaUBKTNV-1" vertex="1">
          <mxGeometry x="1818.5" y="936.91" width="81" height="26" as="geometry" />
        </mxCell>
        <mxCell id="ZDbLmmGyUOGMyYLeXSUg-90" style="edgeStyle=none;rounded=0;orthogonalLoop=1;jettySize=auto;html=1;entryX=0.25;entryY=0;entryDx=0;entryDy=0;fontColor=#000000;endArrow=none;endFill=0;" parent="WIyWlLk6GJQsqaUBKTNV-1" source="ZDbLmmGyUOGMyYLeXSUg-64" target="ZDbLmmGyUOGMyYLeXSUg-23" edge="1">
          <mxGeometry relative="1" as="geometry" />
        </mxCell>
        <mxCell id="ZDbLmmGyUOGMyYLeXSUg-64" value="Coût" style="text;html=1;align=center;verticalAlign=middle;resizable=0;points=[];autosize=1;strokeColor=none;fillColor=none;fontColor=#000000;" parent="WIyWlLk6GJQsqaUBKTNV-1" vertex="1">
          <mxGeometry x="1778.6399999999999" y="936.91" width="44" height="26" as="geometry" />
        </mxCell>
        <mxCell id="ZDbLmmGyUOGMyYLeXSUg-94" value="Lié à" style="rhombus;whiteSpace=wrap;html=1;" parent="WIyWlLk6GJQsqaUBKTNV-1" vertex="1">
          <mxGeometry x="2152.5" y="1001.16" width="108" height="68" as="geometry" />
        </mxCell>
        <mxCell id="ZDbLmmGyUOGMyYLeXSUg-99" value="Pièce" style="rounded=0;whiteSpace=wrap;html=1;" parent="WIyWlLk6GJQsqaUBKTNV-1" vertex="1">
          <mxGeometry x="2145.5" y="1098.41" width="120" height="60" as="geometry" />
        </mxCell>
        <mxCell id="ZDbLmmGyUOGMyYLeXSUg-103" style="edgeStyle=none;rounded=0;orthogonalLoop=1;jettySize=auto;html=1;entryX=0.5;entryY=1;entryDx=0;entryDy=0;fontColor=#000000;endArrow=none;endFill=0;" parent="WIyWlLk6GJQsqaUBKTNV-1" source="ZDbLmmGyUOGMyYLeXSUg-101" target="ZDbLmmGyUOGMyYLeXSUg-99" edge="1">
          <mxGeometry relative="1" as="geometry" />
        </mxCell>
        <mxCell id="ZDbLmmGyUOGMyYLeXSUg-101" value="Utilise" style="rhombus;whiteSpace=wrap;html=1;" parent="WIyWlLk6GJQsqaUBKTNV-1" vertex="1">
          <mxGeometry x="2151.5" y="1182.41" width="108" height="68" as="geometry" />
        </mxCell>
        <mxCell id="ZDbLmmGyUOGMyYLeXSUg-106" style="edgeStyle=none;rounded=0;orthogonalLoop=1;jettySize=auto;html=1;entryX=1;entryY=0.5;entryDx=0;entryDy=0;fontColor=#000000;endArrow=none;endFill=0;" parent="WIyWlLk6GJQsqaUBKTNV-1" source="ZDbLmmGyUOGMyYLeXSUg-105" target="ZDbLmmGyUOGMyYLeXSUg-99" edge="1">
          <mxGeometry relative="1" as="geometry" />
        </mxCell>
        <mxCell id="ZDbLmmGyUOGMyYLeXSUg-105" value="Nom de pièce" style="text;html=1;align=center;verticalAlign=middle;resizable=0;points=[];autosize=1;strokeColor=none;fillColor=none;" parent="WIyWlLk6GJQsqaUBKTNV-1" vertex="1">
          <mxGeometry x="2317.5" y="1115.41" width="95" height="26" as="geometry" />
        </mxCell>
        <mxCell id="ZDbLmmGyUOGMyYLeXSUg-249" style="edgeStyle=none;shape=link;rounded=0;orthogonalLoop=1;jettySize=auto;html=1;entryX=0;entryY=0;entryDx=0;entryDy=0;dashed=1;fontColor=#000000;endArrow=none;endFill=0;" parent="WIyWlLk6GJQsqaUBKTNV-1" source="ZDbLmmGyUOGMyYLeXSUg-114" target="ZDbLmmGyUOGMyYLeXSUg-248" edge="1">
          <mxGeometry relative="1" as="geometry" />
        </mxCell>
        <mxCell id="ZDbLmmGyUOGMyYLeXSUg-253" value="Vend" style="edgeLabel;html=1;align=center;verticalAlign=middle;resizable=0;points=[];fontColor=#000000;" parent="ZDbLmmGyUOGMyYLeXSUg-249" vertex="1" connectable="0">
          <mxGeometry x="0.3483" y="5" relative="1" as="geometry">
            <mxPoint x="23" y="-4" as="offset" />
          </mxGeometry>
        </mxCell>
        <mxCell id="ZDbLmmGyUOGMyYLeXSUg-114" value="Concessionnaire " style="rounded=0;whiteSpace=wrap;html=1;" parent="WIyWlLk6GJQsqaUBKTNV-1" vertex="1">
          <mxGeometry x="27" y="699.5" width="120" height="60" as="geometry" />
        </mxCell>
        <mxCell id="ZDbLmmGyUOGMyYLeXSUg-219" style="edgeStyle=none;shape=link;rounded=0;orthogonalLoop=1;jettySize=auto;html=1;exitX=1;exitY=0.75;exitDx=0;exitDy=0;entryX=0;entryY=0.5;entryDx=0;entryDy=0;dashed=1;fontColor=#000000;endArrow=none;endFill=0;" parent="WIyWlLk6GJQsqaUBKTNV-1" source="ZDbLmmGyUOGMyYLeXSUg-116" target="ZDbLmmGyUOGMyYLeXSUg-218" edge="1">
          <mxGeometry relative="1" as="geometry" />
        </mxCell>
        <mxCell id="ZDbLmmGyUOGMyYLeXSUg-264" style="edgeStyle=none;shape=link;rounded=0;orthogonalLoop=1;jettySize=auto;html=1;entryX=0;entryY=0.5;entryDx=0;entryDy=0;dashed=1;fontColor=#000000;endArrow=none;endFill=0;" parent="WIyWlLk6GJQsqaUBKTNV-1" source="ZDbLmmGyUOGMyYLeXSUg-116" target="ZDbLmmGyUOGMyYLeXSUg-213" edge="1">
          <mxGeometry relative="1" as="geometry">
            <Array as="points">
              <mxPoint x="316" y="1073" />
            </Array>
          </mxGeometry>
        </mxCell>
        <mxCell id="ZDbLmmGyUOGMyYLeXSUg-265" value="demande" style="edgeLabel;html=1;align=center;verticalAlign=middle;resizable=0;points=[];fontColor=#000000;" parent="ZDbLmmGyUOGMyYLeXSUg-264" vertex="1" connectable="0">
          <mxGeometry x="0.3183" y="4" relative="1" as="geometry">
            <mxPoint x="102" y="20" as="offset" />
          </mxGeometry>
        </mxCell>
        <mxCell id="ZDbLmmGyUOGMyYLeXSUg-116" value="Client" style="rounded=0;whiteSpace=wrap;html=1;" parent="WIyWlLk6GJQsqaUBKTNV-1" vertex="1">
          <mxGeometry x="24" y="900" width="120" height="60" as="geometry" />
        </mxCell>
        <mxCell id="ZDbLmmGyUOGMyYLeXSUg-117" value="Nom" style="text;html=1;align=center;verticalAlign=middle;resizable=0;points=[];autosize=1;strokeColor=none;fillColor=none;" parent="WIyWlLk6GJQsqaUBKTNV-1" vertex="1">
          <mxGeometry x="-12" y="623" width="43" height="26" as="geometry" />
        </mxCell>
        <mxCell id="ZDbLmmGyUOGMyYLeXSUg-118" value="&lt;u&gt;ID-Concessionnaire &lt;/u&gt;" style="text;html=1;align=center;verticalAlign=middle;resizable=0;points=[];autosize=1;strokeColor=none;fillColor=none;" parent="WIyWlLk6GJQsqaUBKTNV-1" vertex="1">
          <mxGeometry x="77" y="623" width="129" height="26" as="geometry" />
        </mxCell>
        <mxCell id="ZDbLmmGyUOGMyYLeXSUg-119" value="" style="endArrow=none;html=1;rounded=0;entryX=0.25;entryY=0;entryDx=0;entryDy=0;exitX=0.488;exitY=1.231;exitDx=0;exitDy=0;exitPerimeter=0;" parent="WIyWlLk6GJQsqaUBKTNV-1" source="ZDbLmmGyUOGMyYLeXSUg-117" target="ZDbLmmGyUOGMyYLeXSUg-114" edge="1">
          <mxGeometry width="50" height="50" relative="1" as="geometry">
            <mxPoint x="68" y="608" as="sourcePoint" />
            <mxPoint x="130" y="521.5" as="targetPoint" />
            <Array as="points" />
          </mxGeometry>
        </mxCell>
        <mxCell id="ZDbLmmGyUOGMyYLeXSUg-120" value="" style="endArrow=none;html=1;rounded=0;exitX=0.481;exitY=1.077;exitDx=0;exitDy=0;exitPerimeter=0;entryX=0.815;entryY=0.015;entryDx=0;entryDy=0;entryPerimeter=0;" parent="WIyWlLk6GJQsqaUBKTNV-1" source="ZDbLmmGyUOGMyYLeXSUg-118" target="ZDbLmmGyUOGMyYLeXSUg-114" edge="1">
          <mxGeometry width="50" height="50" relative="1" as="geometry">
            <mxPoint x="-27" y="805.5" as="sourcePoint" />
            <mxPoint x="8" y="766" as="targetPoint" />
          </mxGeometry>
        </mxCell>
        <mxCell id="ZDbLmmGyUOGMyYLeXSUg-124" value="Voiture" style="rounded=0;whiteSpace=wrap;html=1;" parent="WIyWlLk6GJQsqaUBKTNV-1" vertex="1">
          <mxGeometry x="576" y="867.5" width="120" height="60" as="geometry" />
        </mxCell>
        <mxCell id="ZDbLmmGyUOGMyYLeXSUg-127" value="Nom" style="text;html=1;align=center;verticalAlign=middle;resizable=0;points=[];autosize=1;strokeColor=none;fillColor=none;" parent="WIyWlLk6GJQsqaUBKTNV-1" vertex="1">
          <mxGeometry x="60.819999999999936" y="1028" width="43" height="26" as="geometry" />
        </mxCell>
        <mxCell id="ZDbLmmGyUOGMyYLeXSUg-128" value="&lt;u&gt;ID_Client&lt;/u&gt;" style="text;html=1;align=center;verticalAlign=middle;resizable=0;points=[];autosize=1;strokeColor=none;fillColor=none;" parent="WIyWlLk6GJQsqaUBKTNV-1" vertex="1">
          <mxGeometry x="-12" y="1028" width="69" height="26" as="geometry" />
        </mxCell>
        <mxCell id="ZDbLmmGyUOGMyYLeXSUg-129" value="" style="endArrow=none;html=1;rounded=0;entryX=0.5;entryY=1;entryDx=0;entryDy=0;" parent="WIyWlLk6GJQsqaUBKTNV-1" source="ZDbLmmGyUOGMyYLeXSUg-127" target="ZDbLmmGyUOGMyYLeXSUg-116" edge="1">
          <mxGeometry width="50" height="50" relative="1" as="geometry">
            <mxPoint x="255" y="845" as="sourcePoint" />
            <mxPoint x="48" y="865" as="targetPoint" />
            <Array as="points" />
          </mxGeometry>
        </mxCell>
        <mxCell id="ZDbLmmGyUOGMyYLeXSUg-130" value="" style="endArrow=none;html=1;rounded=0;entryX=0.25;entryY=1;entryDx=0;entryDy=0;" parent="WIyWlLk6GJQsqaUBKTNV-1" source="ZDbLmmGyUOGMyYLeXSUg-128" target="ZDbLmmGyUOGMyYLeXSUg-116" edge="1">
          <mxGeometry width="50" height="50" relative="1" as="geometry">
            <mxPoint x="255" y="845" as="sourcePoint" />
            <mxPoint x="305" y="795" as="targetPoint" />
          </mxGeometry>
        </mxCell>
        <mxCell id="ZDbLmmGyUOGMyYLeXSUg-131" value="&lt;u&gt;num_série&lt;/u&gt;" style="text;html=1;align=center;verticalAlign=middle;resizable=0;points=[];autosize=1;strokeColor=none;fillColor=none;" parent="WIyWlLk6GJQsqaUBKTNV-1" vertex="1">
          <mxGeometry x="780" y="796" width="78" height="26" as="geometry" />
        </mxCell>
        <mxCell id="ZDbLmmGyUOGMyYLeXSUg-132" value="" style="endArrow=none;html=1;rounded=0;exitX=1;exitY=0;exitDx=0;exitDy=0;" parent="WIyWlLk6GJQsqaUBKTNV-1" source="ZDbLmmGyUOGMyYLeXSUg-124" target="ZDbLmmGyUOGMyYLeXSUg-131" edge="1">
          <mxGeometry width="50" height="50" relative="1" as="geometry">
            <mxPoint x="658" y="838.5" as="sourcePoint" />
            <mxPoint x="651" y="816.5" as="targetPoint" />
          </mxGeometry>
        </mxCell>
        <mxCell id="ZDbLmmGyUOGMyYLeXSUg-133" value="type_voiture" style="text;html=1;align=center;verticalAlign=middle;resizable=0;points=[];autosize=1;strokeColor=none;fillColor=none;" parent="WIyWlLk6GJQsqaUBKTNV-1" vertex="1">
          <mxGeometry x="787" y="835" width="83" height="26" as="geometry" />
        </mxCell>
        <mxCell id="ZDbLmmGyUOGMyYLeXSUg-134" value="" style="endArrow=none;html=1;rounded=0;entryX=0.001;entryY=0.573;entryDx=0;entryDy=0;entryPerimeter=0;exitX=1;exitY=0.25;exitDx=0;exitDy=0;" parent="WIyWlLk6GJQsqaUBKTNV-1" source="ZDbLmmGyUOGMyYLeXSUg-124" target="ZDbLmmGyUOGMyYLeXSUg-133" edge="1">
          <mxGeometry width="50" height="50" relative="1" as="geometry">
            <mxPoint x="703" y="851.5" as="sourcePoint" />
            <mxPoint x="441" y="719.5" as="targetPoint" />
          </mxGeometry>
        </mxCell>
        <mxCell id="ZDbLmmGyUOGMyYLeXSUg-135" value="" style="shape=link;html=1;rounded=0;dashed=1;fontSize=10;fontColor=#B09646;endArrow=none;endFill=0;entryX=0;entryY=1;entryDx=0;entryDy=0;exitX=1;exitY=0.5;exitDx=0;exitDy=0;" parent="WIyWlLk6GJQsqaUBKTNV-1" source="ZDbLmmGyUOGMyYLeXSUg-116" target="ZDbLmmGyUOGMyYLeXSUg-248" edge="1">
          <mxGeometry relative="1" as="geometry">
            <mxPoint x="144" y="933.0043137254904" as="sourcePoint" />
            <mxPoint x="268.9999999999991" y="891.9999999999995" as="targetPoint" />
            <Array as="points" />
          </mxGeometry>
        </mxCell>
        <mxCell id="ZDbLmmGyUOGMyYLeXSUg-255" value="Achete" style="edgeLabel;html=1;align=center;verticalAlign=middle;resizable=0;points=[];fontColor=#000000;" parent="ZDbLmmGyUOGMyYLeXSUg-135" vertex="1" connectable="0">
          <mxGeometry x="0.1511" y="2" relative="1" as="geometry">
            <mxPoint x="49" y="-44" as="offset" />
          </mxGeometry>
        </mxCell>
        <mxCell id="ZDbLmmGyUOGMyYLeXSUg-137" value="Modèle" style="text;html=1;align=center;verticalAlign=middle;resizable=0;points=[];autosize=1;strokeColor=none;fillColor=none;" parent="WIyWlLk6GJQsqaUBKTNV-1" vertex="1">
          <mxGeometry x="788.25" y="873" width="57" height="26" as="geometry" />
        </mxCell>
        <mxCell id="ZDbLmmGyUOGMyYLeXSUg-138" value="Marque" style="text;html=1;align=center;verticalAlign=middle;resizable=0;points=[];autosize=1;strokeColor=none;fillColor=none;" parent="WIyWlLk6GJQsqaUBKTNV-1" vertex="1">
          <mxGeometry x="790.75" y="902.5" width="59" height="26" as="geometry" />
        </mxCell>
        <mxCell id="ZDbLmmGyUOGMyYLeXSUg-139" value="Année" style="text;html=1;align=center;verticalAlign=middle;resizable=0;points=[];autosize=1;strokeColor=none;fillColor=none;" parent="WIyWlLk6GJQsqaUBKTNV-1" vertex="1">
          <mxGeometry x="793.75" y="964" width="53" height="26" as="geometry" />
        </mxCell>
        <mxCell id="ZDbLmmGyUOGMyYLeXSUg-140" value="Prix" style="text;html=1;align=center;verticalAlign=middle;resizable=0;points=[];autosize=1;strokeColor=none;fillColor=none;" parent="WIyWlLk6GJQsqaUBKTNV-1" vertex="1">
          <mxGeometry x="793.75" y="932" width="39" height="26" as="geometry" />
        </mxCell>
        <mxCell id="ZDbLmmGyUOGMyYLeXSUg-141" value="" style="endArrow=none;html=1;rounded=0;exitX=1;exitY=0.5;exitDx=0;exitDy=0;entryX=-0.047;entryY=0.6;entryDx=0;entryDy=0;entryPerimeter=0;" parent="WIyWlLk6GJQsqaUBKTNV-1" source="ZDbLmmGyUOGMyYLeXSUg-124" target="ZDbLmmGyUOGMyYLeXSUg-137" edge="1">
          <mxGeometry width="50" height="50" relative="1" as="geometry">
            <mxPoint x="786" y="992" as="sourcePoint" />
            <mxPoint x="836" y="942" as="targetPoint" />
          </mxGeometry>
        </mxCell>
        <mxCell id="ZDbLmmGyUOGMyYLeXSUg-142" value="" style="endArrow=none;html=1;rounded=0;exitX=1;exitY=0.75;exitDx=0;exitDy=0;entryX=-0.059;entryY=0.485;entryDx=0;entryDy=0;entryPerimeter=0;" parent="WIyWlLk6GJQsqaUBKTNV-1" source="ZDbLmmGyUOGMyYLeXSUg-124" target="ZDbLmmGyUOGMyYLeXSUg-138" edge="1">
          <mxGeometry width="50" height="50" relative="1" as="geometry">
            <mxPoint x="786" y="992" as="sourcePoint" />
            <mxPoint x="836" y="942" as="targetPoint" />
          </mxGeometry>
        </mxCell>
        <mxCell id="ZDbLmmGyUOGMyYLeXSUg-143" value="" style="endArrow=none;html=1;rounded=0;exitX=-0.014;exitY=0.385;exitDx=0;exitDy=0;exitPerimeter=0;entryX=1;entryY=1;entryDx=0;entryDy=0;" parent="WIyWlLk6GJQsqaUBKTNV-1" source="ZDbLmmGyUOGMyYLeXSUg-139" target="ZDbLmmGyUOGMyYLeXSUg-124" edge="1">
          <mxGeometry width="50" height="50" relative="1" as="geometry">
            <mxPoint x="786" y="992" as="sourcePoint" />
            <mxPoint x="836" y="942" as="targetPoint" />
            <Array as="points" />
          </mxGeometry>
        </mxCell>
        <mxCell id="ZDbLmmGyUOGMyYLeXSUg-144" value="" style="endArrow=none;html=1;rounded=0;exitX=0.032;exitY=0.538;exitDx=0;exitDy=0;exitPerimeter=0;entryX=1;entryY=0.892;entryDx=0;entryDy=0;entryPerimeter=0;" parent="WIyWlLk6GJQsqaUBKTNV-1" source="ZDbLmmGyUOGMyYLeXSUg-140" target="ZDbLmmGyUOGMyYLeXSUg-124" edge="1">
          <mxGeometry width="50" height="50" relative="1" as="geometry">
            <mxPoint x="786" y="992" as="sourcePoint" />
            <mxPoint x="836" y="942" as="targetPoint" />
          </mxGeometry>
        </mxCell>
        <mxCell id="ZDbLmmGyUOGMyYLeXSUg-145" style="edgeStyle=none;rounded=0;orthogonalLoop=1;jettySize=auto;html=1;entryX=0.75;entryY=1;entryDx=0;entryDy=0;endArrow=none;endFill=0;" parent="WIyWlLk6GJQsqaUBKTNV-1" source="ZDbLmmGyUOGMyYLeXSUg-147" target="ZDbLmmGyUOGMyYLeXSUg-116" edge="1">
          <mxGeometry relative="1" as="geometry" />
        </mxCell>
        <mxCell id="ZDbLmmGyUOGMyYLeXSUg-146" value="1:N" style="edgeLabel;html=1;align=center;verticalAlign=middle;resizable=0;points=[];" parent="ZDbLmmGyUOGMyYLeXSUg-145" vertex="1" connectable="0">
          <mxGeometry x="-0.3329" y="-1" relative="1" as="geometry">
            <mxPoint x="10" y="3" as="offset" />
          </mxGeometry>
        </mxCell>
        <mxCell id="ZDbLmmGyUOGMyYLeXSUg-147" value="Prénom" style="text;html=1;align=center;verticalAlign=middle;resizable=0;points=[];autosize=1;strokeColor=none;fillColor=none;" parent="WIyWlLk6GJQsqaUBKTNV-1" vertex="1">
          <mxGeometry x="101" y="1028" width="62" height="26" as="geometry" />
        </mxCell>
        <mxCell id="ZDbLmmGyUOGMyYLeXSUg-148" value="&lt;font color=&quot;#CC99FF&quot;&gt;[NEUVE,OCCASION]&lt;/font&gt;" style="text;html=1;align=center;verticalAlign=middle;resizable=0;points=[];autosize=1;" parent="WIyWlLk6GJQsqaUBKTNV-1" vertex="1">
          <mxGeometry x="862.5" y="835" width="131" height="26" as="geometry" />
        </mxCell>
        <mxCell id="ZDbLmmGyUOGMyYLeXSUg-149" style="edgeStyle=none;rounded=0;orthogonalLoop=1;jettySize=auto;html=1;entryX=0.5;entryY=0;entryDx=0;entryDy=0;fontColor=#CC99FF;endArrow=none;endFill=0;" parent="WIyWlLk6GJQsqaUBKTNV-1" source="ZDbLmmGyUOGMyYLeXSUg-151" target="ZDbLmmGyUOGMyYLeXSUg-114" edge="1">
          <mxGeometry relative="1" as="geometry" />
        </mxCell>
        <mxCell id="ZDbLmmGyUOGMyYLeXSUg-150" value="1:N" style="edgeLabel;html=1;align=center;verticalAlign=middle;resizable=0;points=[];fontColor=#000000;" parent="ZDbLmmGyUOGMyYLeXSUg-149" vertex="1" connectable="0">
          <mxGeometry x="-0.5911" relative="1" as="geometry">
            <mxPoint x="19" y="8" as="offset" />
          </mxGeometry>
        </mxCell>
        <mxCell id="ZDbLmmGyUOGMyYLeXSUg-151" value="Prénom" style="text;html=1;align=center;verticalAlign=middle;resizable=0;points=[];autosize=1;strokeColor=none;fillColor=none;" parent="WIyWlLk6GJQsqaUBKTNV-1" vertex="1">
          <mxGeometry x="25" y="623" width="62" height="26" as="geometry" />
        </mxCell>
        <mxCell id="ZDbLmmGyUOGMyYLeXSUg-259" style="edgeStyle=none;rounded=0;orthogonalLoop=1;jettySize=auto;html=1;entryX=0.5;entryY=0;entryDx=0;entryDy=0;fontColor=#000000;endArrow=none;endFill=0;" parent="WIyWlLk6GJQsqaUBKTNV-1" source="ZDbLmmGyUOGMyYLeXSUg-152" target="ZDbLmmGyUOGMyYLeXSUg-248" edge="1">
          <mxGeometry relative="1" as="geometry" />
        </mxCell>
        <mxCell id="ZDbLmmGyUOGMyYLeXSUg-261" value="Contient" style="edgeLabel;html=1;align=center;verticalAlign=middle;resizable=0;points=[];fontColor=#000000;" parent="ZDbLmmGyUOGMyYLeXSUg-259" vertex="1" connectable="0">
          <mxGeometry x="0.1884" relative="1" as="geometry">
            <mxPoint x="24" y="49" as="offset" />
          </mxGeometry>
        </mxCell>
        <mxCell id="ZDbLmmGyUOGMyYLeXSUg-152" value="Facture" style="rounded=0;whiteSpace=wrap;html=1;" parent="WIyWlLk6GJQsqaUBKTNV-1" vertex="1">
          <mxGeometry x="360.8900000000003" y="551.25" width="120" height="60" as="geometry" />
        </mxCell>
        <mxCell id="ZDbLmmGyUOGMyYLeXSUg-153" style="edgeStyle=none;rounded=0;orthogonalLoop=1;jettySize=auto;html=1;entryX=1;entryY=0.25;entryDx=0;entryDy=0;fontColor=#000000;endArrow=none;endFill=0;exitX=-0.013;exitY=0.724;exitDx=0;exitDy=0;exitPerimeter=0;" parent="WIyWlLk6GJQsqaUBKTNV-1" source="ZDbLmmGyUOGMyYLeXSUg-154" target="ZDbLmmGyUOGMyYLeXSUg-152" edge="1">
          <mxGeometry relative="1" as="geometry">
            <mxPoint x="722.8300000000004" y="510.80999999999995" as="targetPoint" />
          </mxGeometry>
        </mxCell>
        <mxCell id="ZDbLmmGyUOGMyYLeXSUg-154" value="Date de facture" style="text;html=1;align=center;verticalAlign=middle;resizable=0;points=[];autosize=1;strokeColor=none;fillColor=none;fontSize=12;fontColor=#000000;" parent="WIyWlLk6GJQsqaUBKTNV-1" vertex="1">
          <mxGeometry x="562.8900000000003" y="532.75" width="101" height="26" as="geometry" />
        </mxCell>
        <mxCell id="ZDbLmmGyUOGMyYLeXSUg-155" style="edgeStyle=none;rounded=0;orthogonalLoop=1;jettySize=auto;html=1;entryX=1.01;entryY=0.596;entryDx=0;entryDy=0;entryPerimeter=0;endArrow=none;endFill=0;" parent="WIyWlLk6GJQsqaUBKTNV-1" source="ZDbLmmGyUOGMyYLeXSUg-156" target="ZDbLmmGyUOGMyYLeXSUg-154" edge="1">
          <mxGeometry relative="1" as="geometry" />
        </mxCell>
        <mxCell id="ZDbLmmGyUOGMyYLeXSUg-156" value="m" style="text;html=1;align=center;verticalAlign=middle;resizable=0;points=[];autosize=1;strokeColor=none;fillColor=none;" parent="WIyWlLk6GJQsqaUBKTNV-1" vertex="1">
          <mxGeometry x="764.75" y="531.25" width="29" height="26" as="geometry" />
        </mxCell>
        <mxCell id="ZDbLmmGyUOGMyYLeXSUg-157" style="edgeStyle=none;rounded=0;orthogonalLoop=1;jettySize=auto;html=1;entryX=1.021;entryY=0.511;entryDx=0;entryDy=0;entryPerimeter=0;endArrow=none;endFill=0;" parent="WIyWlLk6GJQsqaUBKTNV-1" source="ZDbLmmGyUOGMyYLeXSUg-158" target="ZDbLmmGyUOGMyYLeXSUg-154" edge="1">
          <mxGeometry relative="1" as="geometry" />
        </mxCell>
        <mxCell id="ZDbLmmGyUOGMyYLeXSUg-158" value="a" style="text;html=1;align=center;verticalAlign=middle;resizable=0;points=[];autosize=1;strokeColor=none;fillColor=none;" parent="WIyWlLk6GJQsqaUBKTNV-1" vertex="1">
          <mxGeometry x="766.25" y="555.25" width="25" height="26" as="geometry" />
        </mxCell>
        <mxCell id="ZDbLmmGyUOGMyYLeXSUg-159" style="edgeStyle=none;rounded=0;orthogonalLoop=1;jettySize=auto;html=1;entryX=1.032;entryY=0.553;entryDx=0;entryDy=0;entryPerimeter=0;endArrow=none;endFill=0;" parent="WIyWlLk6GJQsqaUBKTNV-1" source="ZDbLmmGyUOGMyYLeXSUg-160" target="ZDbLmmGyUOGMyYLeXSUg-154" edge="1">
          <mxGeometry relative="1" as="geometry" />
        </mxCell>
        <mxCell id="ZDbLmmGyUOGMyYLeXSUg-160" value="j" style="text;html=1;align=center;verticalAlign=middle;resizable=0;points=[];autosize=1;strokeColor=none;fillColor=none;fontSize=12;fontColor=#000000;" parent="WIyWlLk6GJQsqaUBKTNV-1" vertex="1">
          <mxGeometry x="768.75" y="510.25" width="21" height="26" as="geometry" />
        </mxCell>
        <mxCell id="ZDbLmmGyUOGMyYLeXSUg-161" style="edgeStyle=none;rounded=0;orthogonalLoop=1;jettySize=auto;html=1;entryX=1;entryY=0.5;entryDx=0;entryDy=0;fontColor=#000000;endArrow=none;endFill=0;" parent="WIyWlLk6GJQsqaUBKTNV-1" source="ZDbLmmGyUOGMyYLeXSUg-162" target="ZDbLmmGyUOGMyYLeXSUg-152" edge="1">
          <mxGeometry relative="1" as="geometry" />
        </mxCell>
        <mxCell id="ZDbLmmGyUOGMyYLeXSUg-162" value="&lt;u&gt;#-Facture&lt;/u&gt;" style="text;html=1;align=center;verticalAlign=middle;resizable=0;points=[];autosize=1;strokeColor=none;fillColor=none;fontColor=#000000;" parent="WIyWlLk6GJQsqaUBKTNV-1" vertex="1">
          <mxGeometry x="593.8900000000003" y="560.75" width="70" height="26" as="geometry" />
        </mxCell>
        <mxCell id="ZDbLmmGyUOGMyYLeXSUg-163" style="edgeStyle=none;rounded=0;orthogonalLoop=1;jettySize=auto;html=1;entryX=1;entryY=0.75;entryDx=0;entryDy=0;fontColor=#000000;endArrow=none;endFill=0;" parent="WIyWlLk6GJQsqaUBKTNV-1" source="ZDbLmmGyUOGMyYLeXSUg-164" target="ZDbLmmGyUOGMyYLeXSUg-152" edge="1">
          <mxGeometry relative="1" as="geometry" />
        </mxCell>
        <mxCell id="ZDbLmmGyUOGMyYLeXSUg-164" value="Montant" style="text;html=1;align=center;verticalAlign=middle;resizable=0;points=[];autosize=1;strokeColor=none;fillColor=none;fontColor=#000000;" parent="WIyWlLk6GJQsqaUBKTNV-1" vertex="1">
          <mxGeometry x="598.3900000000003" y="589.75" width="61" height="26" as="geometry" />
        </mxCell>
        <mxCell id="ZDbLmmGyUOGMyYLeXSUg-173" style="edgeStyle=none;rounded=0;orthogonalLoop=1;jettySize=auto;html=1;entryX=1;entryY=0.25;entryDx=0;entryDy=0;fontColor=#000000;endArrow=none;endFill=0;exitX=0;exitY=0.5;exitDx=0;exitDy=0;dashed=1;shape=link;" parent="WIyWlLk6GJQsqaUBKTNV-1" source="ZDbLmmGyUOGMyYLeXSUg-174" target="ZDbLmmGyUOGMyYLeXSUg-114" edge="1">
          <mxGeometry relative="1" as="geometry" />
        </mxCell>
        <mxCell id="ZDbLmmGyUOGMyYLeXSUg-258" style="edgeStyle=none;rounded=0;orthogonalLoop=1;jettySize=auto;html=1;exitX=1;exitY=0;exitDx=0;exitDy=0;entryX=0.25;entryY=1;entryDx=0;entryDy=0;fontColor=#000000;endArrow=none;endFill=0;" parent="WIyWlLk6GJQsqaUBKTNV-1" source="ZDbLmmGyUOGMyYLeXSUg-174" target="ZDbLmmGyUOGMyYLeXSUg-152" edge="1">
          <mxGeometry relative="1" as="geometry" />
        </mxCell>
        <mxCell id="ZDbLmmGyUOGMyYLeXSUg-174" value="Établit" style="rhombus;whiteSpace=wrap;html=1;" parent="WIyWlLk6GJQsqaUBKTNV-1" vertex="1">
          <mxGeometry x="309" y="678.5" width="108" height="68" as="geometry" />
        </mxCell>
        <mxCell id="ZDbLmmGyUOGMyYLeXSUg-175" style="edgeStyle=none;rounded=0;orthogonalLoop=1;jettySize=auto;html=1;exitX=0;exitY=0.5;exitDx=0;exitDy=0;entryX=0;entryY=0.5;entryDx=0;entryDy=0;fontColor=#000000;endArrow=none;endFill=0;dashed=1;shape=link;" parent="WIyWlLk6GJQsqaUBKTNV-1" source="ZDbLmmGyUOGMyYLeXSUg-177" target="ZDbLmmGyUOGMyYLeXSUg-116" edge="1">
          <mxGeometry relative="1" as="geometry">
            <Array as="points">
              <mxPoint x="-61" y="584" />
              <mxPoint x="-63" y="930" />
            </Array>
          </mxGeometry>
        </mxCell>
        <mxCell id="ZDbLmmGyUOGMyYLeXSUg-257" style="edgeStyle=none;rounded=0;orthogonalLoop=1;jettySize=auto;html=1;exitX=1;exitY=0.5;exitDx=0;exitDy=0;entryX=0;entryY=0.5;entryDx=0;entryDy=0;fontColor=#000000;endArrow=none;endFill=0;" parent="WIyWlLk6GJQsqaUBKTNV-1" source="ZDbLmmGyUOGMyYLeXSUg-177" target="ZDbLmmGyUOGMyYLeXSUg-152" edge="1">
          <mxGeometry relative="1" as="geometry" />
        </mxCell>
        <mxCell id="ZDbLmmGyUOGMyYLeXSUg-177" value="Reçoit" style="rhombus;whiteSpace=wrap;html=1;" parent="WIyWlLk6GJQsqaUBKTNV-1" vertex="1">
          <mxGeometry x="201.82000000000016" y="552.25" width="93" height="58" as="geometry" />
        </mxCell>
        <mxCell id="ZDbLmmGyUOGMyYLeXSUg-178" style="edgeStyle=none;rounded=0;orthogonalLoop=1;jettySize=auto;html=1;entryX=0.5;entryY=0;entryDx=0;entryDy=0;fontColor=#000000;endArrow=none;endFill=0;exitX=0.5;exitY=1;exitDx=0;exitDy=0;dashed=1;shape=link;" parent="WIyWlLk6GJQsqaUBKTNV-1" source="ZDbLmmGyUOGMyYLeXSUg-124" target="ZDbLmmGyUOGMyYLeXSUg-213" edge="1">
          <mxGeometry relative="1" as="geometry">
            <mxPoint x="576" y="928" as="sourcePoint" />
            <mxPoint x="340" y="1058.56" as="targetPoint" />
          </mxGeometry>
        </mxCell>
        <mxCell id="ZDbLmmGyUOGMyYLeXSUg-214" style="edgeStyle=none;shape=link;rounded=0;orthogonalLoop=1;jettySize=auto;html=1;exitX=0.25;exitY=0;exitDx=0;exitDy=0;entryX=0;entryY=1;entryDx=0;entryDy=0;dashed=1;fontColor=#000000;endArrow=none;endFill=0;" parent="WIyWlLk6GJQsqaUBKTNV-1" source="ZDbLmmGyUOGMyYLeXSUg-186" target="ZDbLmmGyUOGMyYLeXSUg-213" edge="1">
          <mxGeometry relative="1" as="geometry" />
        </mxCell>
        <mxCell id="ZDbLmmGyUOGMyYLeXSUg-216" value="Répare" style="edgeLabel;html=1;align=center;verticalAlign=middle;resizable=0;points=[];fontColor=#000000;" parent="ZDbLmmGyUOGMyYLeXSUg-214" vertex="1" connectable="0">
          <mxGeometry x="0.176" y="1" relative="1" as="geometry">
            <mxPoint x="-25" as="offset" />
          </mxGeometry>
        </mxCell>
        <mxCell id="ZDbLmmGyUOGMyYLeXSUg-215" style="edgeStyle=none;shape=link;rounded=0;orthogonalLoop=1;jettySize=auto;html=1;exitX=0.75;exitY=0;exitDx=0;exitDy=0;entryX=1;entryY=1;entryDx=0;entryDy=0;dashed=1;fontColor=#000000;endArrow=none;endFill=0;" parent="WIyWlLk6GJQsqaUBKTNV-1" source="ZDbLmmGyUOGMyYLeXSUg-186" target="ZDbLmmGyUOGMyYLeXSUg-213" edge="1">
          <mxGeometry relative="1" as="geometry" />
        </mxCell>
        <mxCell id="ZDbLmmGyUOGMyYLeXSUg-217" value="Entretient" style="edgeLabel;html=1;align=center;verticalAlign=middle;resizable=0;points=[];fontColor=#000000;" parent="ZDbLmmGyUOGMyYLeXSUg-215" vertex="1" connectable="0">
          <mxGeometry x="0.3328" y="-1" relative="1" as="geometry">
            <mxPoint x="33" y="4" as="offset" />
          </mxGeometry>
        </mxCell>
        <mxCell id="ZDbLmmGyUOGMyYLeXSUg-186" value="Mécanicien" style="rounded=0;whiteSpace=wrap;html=1;" parent="WIyWlLk6GJQsqaUBKTNV-1" vertex="1">
          <mxGeometry x="571.1799999999998" y="1167" width="120" height="60" as="geometry" />
        </mxCell>
        <mxCell id="ZDbLmmGyUOGMyYLeXSUg-188" style="edgeStyle=none;rounded=0;orthogonalLoop=1;jettySize=auto;html=1;entryX=0.5;entryY=1;entryDx=0;entryDy=0;fontColor=#000000;endArrow=none;endFill=0;" parent="WIyWlLk6GJQsqaUBKTNV-1" source="ZDbLmmGyUOGMyYLeXSUg-189" target="ZDbLmmGyUOGMyYLeXSUg-186" edge="1">
          <mxGeometry relative="1" as="geometry" />
        </mxCell>
        <mxCell id="ZDbLmmGyUOGMyYLeXSUg-189" value="Nom" style="text;html=1;align=center;verticalAlign=middle;resizable=0;points=[];autosize=1;strokeColor=none;fillColor=none;" parent="WIyWlLk6GJQsqaUBKTNV-1" vertex="1">
          <mxGeometry x="620.9999999999995" y="1266.67" width="43" height="26" as="geometry" />
        </mxCell>
        <mxCell id="ZDbLmmGyUOGMyYLeXSUg-190" style="edgeStyle=none;rounded=0;orthogonalLoop=1;jettySize=auto;html=1;entryX=0.25;entryY=1;entryDx=0;entryDy=0;fontColor=#000000;endArrow=none;endFill=0;" parent="WIyWlLk6GJQsqaUBKTNV-1" source="ZDbLmmGyUOGMyYLeXSUg-191" target="ZDbLmmGyUOGMyYLeXSUg-186" edge="1">
          <mxGeometry relative="1" as="geometry" />
        </mxCell>
        <mxCell id="ZDbLmmGyUOGMyYLeXSUg-191" value="&lt;u&gt;ID_Mécanicien&lt;/u&gt;" style="text;html=1;align=center;verticalAlign=middle;resizable=0;points=[];autosize=1;strokeColor=none;fillColor=none;" parent="WIyWlLk6GJQsqaUBKTNV-1" vertex="1">
          <mxGeometry x="522" y="1266.67" width="99" height="26" as="geometry" />
        </mxCell>
        <mxCell id="ZDbLmmGyUOGMyYLeXSUg-192" style="edgeStyle=none;rounded=0;orthogonalLoop=1;jettySize=auto;html=1;entryX=0.75;entryY=1;entryDx=0;entryDy=0;fontColor=#000000;endArrow=none;endFill=0;" parent="WIyWlLk6GJQsqaUBKTNV-1" source="ZDbLmmGyUOGMyYLeXSUg-194" target="ZDbLmmGyUOGMyYLeXSUg-186" edge="1">
          <mxGeometry relative="1" as="geometry" />
        </mxCell>
        <mxCell id="ZDbLmmGyUOGMyYLeXSUg-193" value="1:N" style="edgeLabel;html=1;align=center;verticalAlign=middle;resizable=0;points=[];fontColor=#000000;" parent="ZDbLmmGyUOGMyYLeXSUg-192" vertex="1" connectable="0">
          <mxGeometry x="-0.4483" y="1" relative="1" as="geometry">
            <mxPoint x="16" y="-1" as="offset" />
          </mxGeometry>
        </mxCell>
        <mxCell id="ZDbLmmGyUOGMyYLeXSUg-194" value="Prénom" style="text;html=1;align=center;verticalAlign=middle;resizable=0;points=[];autosize=1;strokeColor=none;fillColor=none;" parent="WIyWlLk6GJQsqaUBKTNV-1" vertex="1">
          <mxGeometry x="661.1799999999998" y="1266.67" width="62" height="26" as="geometry" />
        </mxCell>
        <mxCell id="ZDbLmmGyUOGMyYLeXSUg-242" style="edgeStyle=none;rounded=0;orthogonalLoop=1;jettySize=auto;html=1;entryX=1;entryY=0.5;entryDx=0;entryDy=0;fontColor=#000000;endArrow=none;endFill=0;" parent="WIyWlLk6GJQsqaUBKTNV-1" source="ZDbLmmGyUOGMyYLeXSUg-196" target="ZDbLmmGyUOGMyYLeXSUg-213" edge="1">
          <mxGeometry relative="1" as="geometry" />
        </mxCell>
        <mxCell id="ZDbLmmGyUOGMyYLeXSUg-196" value="Date de l&#39;intervention" style="text;html=1;align=center;verticalAlign=middle;resizable=0;points=[];autosize=1;strokeColor=none;fillColor=none;fontSize=12;fontColor=#000000;" parent="WIyWlLk6GJQsqaUBKTNV-1" vertex="1">
          <mxGeometry x="744.3200000000002" y="1034.37" width="132" height="26" as="geometry" />
        </mxCell>
        <mxCell id="ZDbLmmGyUOGMyYLeXSUg-197" style="edgeStyle=none;rounded=0;orthogonalLoop=1;jettySize=auto;html=1;entryX=1.013;entryY=0.499;entryDx=0;entryDy=0;entryPerimeter=0;fontColor=#000000;endArrow=none;endFill=0;" parent="WIyWlLk6GJQsqaUBKTNV-1" source="ZDbLmmGyUOGMyYLeXSUg-198" target="ZDbLmmGyUOGMyYLeXSUg-196" edge="1">
          <mxGeometry relative="1" as="geometry" />
        </mxCell>
        <mxCell id="ZDbLmmGyUOGMyYLeXSUg-198" value="m" style="text;html=1;align=center;verticalAlign=middle;resizable=0;points=[];autosize=1;strokeColor=none;fillColor=none;" parent="WIyWlLk6GJQsqaUBKTNV-1" vertex="1">
          <mxGeometry x="893.0000000000005" y="1030.12" width="29" height="26" as="geometry" />
        </mxCell>
        <mxCell id="ZDbLmmGyUOGMyYLeXSUg-199" style="edgeStyle=none;rounded=0;orthogonalLoop=1;jettySize=auto;html=1;entryX=1.014;entryY=0.502;entryDx=0;entryDy=0;entryPerimeter=0;endArrow=none;endFill=0;" parent="WIyWlLk6GJQsqaUBKTNV-1" source="ZDbLmmGyUOGMyYLeXSUg-200" target="ZDbLmmGyUOGMyYLeXSUg-196" edge="1">
          <mxGeometry relative="1" as="geometry" />
        </mxCell>
        <mxCell id="ZDbLmmGyUOGMyYLeXSUg-200" value="a" style="text;html=1;align=center;verticalAlign=middle;resizable=0;points=[];autosize=1;strokeColor=none;fillColor=none;" parent="WIyWlLk6GJQsqaUBKTNV-1" vertex="1">
          <mxGeometry x="894.5000000000005" y="1054.12" width="25" height="26" as="geometry" />
        </mxCell>
        <mxCell id="ZDbLmmGyUOGMyYLeXSUg-201" style="edgeStyle=none;rounded=0;orthogonalLoop=1;jettySize=auto;html=1;endArrow=none;endFill=0;" parent="WIyWlLk6GJQsqaUBKTNV-1" source="ZDbLmmGyUOGMyYLeXSUg-202" edge="1">
          <mxGeometry relative="1" as="geometry">
            <mxPoint x="872.0000000000005" y="1046.62" as="targetPoint" />
          </mxGeometry>
        </mxCell>
        <mxCell id="ZDbLmmGyUOGMyYLeXSUg-202" value="j" style="text;html=1;align=center;verticalAlign=middle;resizable=0;points=[];autosize=1;strokeColor=none;fillColor=none;fontSize=12;fontColor=#000000;" parent="WIyWlLk6GJQsqaUBKTNV-1" vertex="1">
          <mxGeometry x="897.0000000000005" y="1009.1199999999999" width="21" height="26" as="geometry" />
        </mxCell>
        <mxCell id="ZDbLmmGyUOGMyYLeXSUg-245" style="edgeStyle=none;rounded=0;orthogonalLoop=1;jettySize=auto;html=1;entryX=1;entryY=0.5;entryDx=0;entryDy=0;fontColor=#000000;endArrow=none;endFill=0;" parent="WIyWlLk6GJQsqaUBKTNV-1" source="ZDbLmmGyUOGMyYLeXSUg-204" target="ZDbLmmGyUOGMyYLeXSUg-213" edge="1">
          <mxGeometry relative="1" as="geometry" />
        </mxCell>
        <mxCell id="ZDbLmmGyUOGMyYLeXSUg-204" value="&lt;u&gt;#-Intervention&lt;/u&gt;" style="text;html=1;align=center;verticalAlign=middle;resizable=0;points=[];autosize=1;strokeColor=none;fillColor=none;fontColor=#000000;" parent="WIyWlLk6GJQsqaUBKTNV-1" vertex="1">
          <mxGeometry x="745.3200000000002" y="1083.62" width="92" height="26" as="geometry" />
        </mxCell>
        <mxCell id="ZDbLmmGyUOGMyYLeXSUg-244" style="edgeStyle=none;rounded=0;orthogonalLoop=1;jettySize=auto;html=1;entryX=1;entryY=0.5;entryDx=0;entryDy=0;fontColor=#000000;endArrow=none;endFill=0;" parent="WIyWlLk6GJQsqaUBKTNV-1" source="ZDbLmmGyUOGMyYLeXSUg-206" target="ZDbLmmGyUOGMyYLeXSUg-213" edge="1">
          <mxGeometry relative="1" as="geometry" />
        </mxCell>
        <mxCell id="ZDbLmmGyUOGMyYLeXSUg-206" value="Coût" style="text;html=1;align=center;verticalAlign=middle;resizable=0;points=[];autosize=1;strokeColor=none;fillColor=none;fontColor=#000000;" parent="WIyWlLk6GJQsqaUBKTNV-1" vertex="1">
          <mxGeometry x="750.3200000000002" y="1059.37" width="44" height="26" as="geometry" />
        </mxCell>
        <mxCell id="ZDbLmmGyUOGMyYLeXSUg-272" style="edgeStyle=none;rounded=0;orthogonalLoop=1;jettySize=auto;html=1;exitX=1;exitY=0.5;exitDx=0;exitDy=0;entryX=0.022;entryY=0.566;entryDx=0;entryDy=0;entryPerimeter=0;fontSize=29;fontColor=#000000;endArrow=none;endFill=0;" parent="WIyWlLk6GJQsqaUBKTNV-1" source="ZDbLmmGyUOGMyYLeXSUg-213" target="ZDbLmmGyUOGMyYLeXSUg-271" edge="1">
          <mxGeometry relative="1" as="geometry" />
        </mxCell>
        <mxCell id="ZDbLmmGyUOGMyYLeXSUg-213" value="Intervention" style="rhombus;whiteSpace=wrap;html=1;" parent="WIyWlLk6GJQsqaUBKTNV-1" vertex="1">
          <mxGeometry x="573.0899999999997" y="1038.62" width="119.82" height="68" as="geometry" />
        </mxCell>
        <mxCell id="ZDbLmmGyUOGMyYLeXSUg-220" style="edgeStyle=none;rounded=0;orthogonalLoop=1;jettySize=auto;html=1;entryX=0;entryY=0.5;entryDx=0;entryDy=0;fontColor=#000000;endArrow=none;endFill=0;" parent="WIyWlLk6GJQsqaUBKTNV-1" source="ZDbLmmGyUOGMyYLeXSUg-218" target="ZDbLmmGyUOGMyYLeXSUg-124" edge="1">
          <mxGeometry relative="1" as="geometry" />
        </mxCell>
        <mxCell id="ZDbLmmGyUOGMyYLeXSUg-218" value="Possède" style="rhombus;whiteSpace=wrap;html=1;" parent="WIyWlLk6GJQsqaUBKTNV-1" vertex="1">
          <mxGeometry x="373" y="948.5" width="108" height="68" as="geometry" />
        </mxCell>
        <mxCell id="ZDbLmmGyUOGMyYLeXSUg-222" style="edgeStyle=none;rounded=0;orthogonalLoop=1;jettySize=auto;html=1;entryX=0.5;entryY=0;entryDx=0;entryDy=0;fontColor=#000000;endArrow=none;endFill=0;" parent="WIyWlLk6GJQsqaUBKTNV-1" source="ZDbLmmGyUOGMyYLeXSUg-221" target="ZDbLmmGyUOGMyYLeXSUg-218" edge="1">
          <mxGeometry relative="1" as="geometry" />
        </mxCell>
        <mxCell id="ZDbLmmGyUOGMyYLeXSUg-221" value="Date d&#39;achat" style="text;html=1;align=center;verticalAlign=middle;resizable=0;points=[];autosize=1;strokeColor=none;fillColor=none;fontColor=#000000;" parent="WIyWlLk6GJQsqaUBKTNV-1" vertex="1">
          <mxGeometry x="384" y="891.5" width="86" height="26" as="geometry" />
        </mxCell>
        <mxCell id="ZDbLmmGyUOGMyYLeXSUg-228" style="edgeStyle=none;rounded=0;orthogonalLoop=1;jettySize=auto;html=1;entryX=1;entryY=0.545;entryDx=0;entryDy=0;entryPerimeter=0;fontColor=#000000;endArrow=none;endFill=0;" parent="WIyWlLk6GJQsqaUBKTNV-1" source="ZDbLmmGyUOGMyYLeXSUg-223" target="ZDbLmmGyUOGMyYLeXSUg-221" edge="1">
          <mxGeometry relative="1" as="geometry" />
        </mxCell>
        <mxCell id="ZDbLmmGyUOGMyYLeXSUg-223" value="m" style="text;html=1;align=center;verticalAlign=middle;resizable=0;points=[];autosize=1;strokeColor=none;fillColor=none;" parent="WIyWlLk6GJQsqaUBKTNV-1" vertex="1">
          <mxGeometry x="479.99999999999955" y="893" width="29" height="26" as="geometry" />
        </mxCell>
        <mxCell id="ZDbLmmGyUOGMyYLeXSUg-227" style="edgeStyle=none;rounded=0;orthogonalLoop=1;jettySize=auto;html=1;entryX=1.008;entryY=0.545;entryDx=0;entryDy=0;entryPerimeter=0;fontColor=#000000;endArrow=none;endFill=0;exitX=0.015;exitY=0.591;exitDx=0;exitDy=0;exitPerimeter=0;" parent="WIyWlLk6GJQsqaUBKTNV-1" source="ZDbLmmGyUOGMyYLeXSUg-224" target="ZDbLmmGyUOGMyYLeXSUg-221" edge="1">
          <mxGeometry relative="1" as="geometry" />
        </mxCell>
        <mxCell id="ZDbLmmGyUOGMyYLeXSUg-224" value="a" style="text;html=1;align=center;verticalAlign=middle;resizable=0;points=[];autosize=1;strokeColor=none;fillColor=none;rotation=0;" parent="WIyWlLk6GJQsqaUBKTNV-1" vertex="1">
          <mxGeometry x="483.99999999999955" y="909.5" width="25" height="26" as="geometry" />
        </mxCell>
        <mxCell id="ZDbLmmGyUOGMyYLeXSUg-226" style="edgeStyle=none;rounded=0;orthogonalLoop=1;jettySize=auto;html=1;entryX=1.004;entryY=0.519;entryDx=0;entryDy=0;entryPerimeter=0;fontColor=#000000;endArrow=none;endFill=0;exitX=-0.051;exitY=0.498;exitDx=0;exitDy=0;exitPerimeter=0;" parent="WIyWlLk6GJQsqaUBKTNV-1" source="ZDbLmmGyUOGMyYLeXSUg-225" target="ZDbLmmGyUOGMyYLeXSUg-221" edge="1">
          <mxGeometry relative="1" as="geometry">
            <mxPoint x="482" y="916.631928145875" as="sourcePoint" />
          </mxGeometry>
        </mxCell>
        <mxCell id="ZDbLmmGyUOGMyYLeXSUg-225" value="j" style="text;html=1;align=center;verticalAlign=middle;resizable=0;points=[];autosize=1;strokeColor=none;fillColor=none;fontSize=12;fontColor=#000000;" parent="WIyWlLk6GJQsqaUBKTNV-1" vertex="1">
          <mxGeometry x="484.99999999999955" y="876" width="21" height="26" as="geometry" />
        </mxCell>
        <mxCell id="ZDbLmmGyUOGMyYLeXSUg-235" style="edgeStyle=none;rounded=0;orthogonalLoop=1;jettySize=auto;html=1;entryX=1;entryY=0;entryDx=0;entryDy=0;fontColor=#000000;endArrow=none;endFill=0;" parent="WIyWlLk6GJQsqaUBKTNV-1" source="ZDbLmmGyUOGMyYLeXSUg-233" target="ZDbLmmGyUOGMyYLeXSUg-114" edge="1">
          <mxGeometry relative="1" as="geometry" />
        </mxCell>
        <mxCell id="ZDbLmmGyUOGMyYLeXSUg-233" value="Tel" style="text;html=1;align=center;verticalAlign=middle;resizable=0;points=[];autosize=1;strokeColor=none;fillColor=none;" parent="WIyWlLk6GJQsqaUBKTNV-1" vertex="1">
          <mxGeometry x="199.99999999999955" y="623" width="34" height="26" as="geometry" />
        </mxCell>
        <mxCell id="ZDbLmmGyUOGMyYLeXSUg-237" style="edgeStyle=none;rounded=0;orthogonalLoop=1;jettySize=auto;html=1;entryX=0.877;entryY=0.998;entryDx=0;entryDy=0;entryPerimeter=0;fontColor=#000000;endArrow=none;endFill=0;" parent="WIyWlLk6GJQsqaUBKTNV-1" source="ZDbLmmGyUOGMyYLeXSUg-236" target="ZDbLmmGyUOGMyYLeXSUg-116" edge="1">
          <mxGeometry relative="1" as="geometry" />
        </mxCell>
        <mxCell id="ZDbLmmGyUOGMyYLeXSUg-236" value="Tel" style="text;html=1;align=center;verticalAlign=middle;resizable=0;points=[];autosize=1;strokeColor=none;fillColor=none;" parent="WIyWlLk6GJQsqaUBKTNV-1" vertex="1">
          <mxGeometry x="162.99999999999955" y="1028.5" width="34" height="26" as="geometry" />
        </mxCell>
        <mxCell id="ZDbLmmGyUOGMyYLeXSUg-239" style="edgeStyle=none;rounded=0;orthogonalLoop=1;jettySize=auto;html=1;entryX=0.912;entryY=1.003;entryDx=0;entryDy=0;entryPerimeter=0;fontColor=#000000;endArrow=none;endFill=0;" parent="WIyWlLk6GJQsqaUBKTNV-1" source="ZDbLmmGyUOGMyYLeXSUg-238" target="ZDbLmmGyUOGMyYLeXSUg-186" edge="1">
          <mxGeometry relative="1" as="geometry" />
        </mxCell>
        <mxCell id="ZDbLmmGyUOGMyYLeXSUg-238" value="Tel" style="text;html=1;align=center;verticalAlign=middle;resizable=0;points=[];autosize=1;strokeColor=none;fillColor=none;" parent="WIyWlLk6GJQsqaUBKTNV-1" vertex="1">
          <mxGeometry x="723.1799999999994" y="1266.6699999999998" width="34" height="26" as="geometry" />
        </mxCell>
        <mxCell id="ZDbLmmGyUOGMyYLeXSUg-247" style="edgeStyle=none;rounded=0;orthogonalLoop=1;jettySize=auto;html=1;entryX=1;entryY=0.5;entryDx=0;entryDy=0;fontColor=#000000;endArrow=none;endFill=0;dashed=1;shape=link;" parent="WIyWlLk6GJQsqaUBKTNV-1" source="ZDbLmmGyUOGMyYLeXSUg-246" target="ZDbLmmGyUOGMyYLeXSUg-213" edge="1">
          <mxGeometry relative="1" as="geometry" />
        </mxCell>
        <mxCell id="ZDbLmmGyUOGMyYLeXSUg-246" value="Pièce" style="text;html=1;align=center;verticalAlign=middle;resizable=0;points=[];autosize=1;strokeColor=none;fillColor=none;fontColor=#000000;" parent="WIyWlLk6GJQsqaUBKTNV-1" vertex="1">
          <mxGeometry x="745.3200000000002" y="1008" width="49" height="26" as="geometry" />
        </mxCell>
        <mxCell id="ZDbLmmGyUOGMyYLeXSUg-250" style="edgeStyle=none;rounded=0;orthogonalLoop=1;jettySize=auto;html=1;entryX=0;entryY=0.5;entryDx=0;entryDy=0;fontColor=#000000;endArrow=none;endFill=0;exitX=1;exitY=1;exitDx=0;exitDy=0;" parent="WIyWlLk6GJQsqaUBKTNV-1" source="ZDbLmmGyUOGMyYLeXSUg-248" target="ZDbLmmGyUOGMyYLeXSUg-124" edge="1">
          <mxGeometry relative="1" as="geometry" />
        </mxCell>
        <mxCell id="ZDbLmmGyUOGMyYLeXSUg-248" value="&lt;div&gt;Transaction&lt;/div&gt;" style="rhombus;whiteSpace=wrap;html=1;" parent="WIyWlLk6GJQsqaUBKTNV-1" vertex="1">
          <mxGeometry x="365.07000000000016" y="777" width="108" height="68" as="geometry" />
        </mxCell>
        <mxCell id="ZDbLmmGyUOGMyYLeXSUg-267" value="&lt;font style=&quot;font-size: 29px;&quot;&gt;Version 1&lt;/font&gt;" style="text;html=1;align=center;verticalAlign=middle;resizable=0;points=[];autosize=1;strokeColor=none;fillColor=none;fontColor=#000000;" parent="WIyWlLk6GJQsqaUBKTNV-1" vertex="1">
          <mxGeometry x="1129" y="740.16" width="139" height="47" as="geometry" />
        </mxCell>
        <mxCell id="ZDbLmmGyUOGMyYLeXSUg-268" value="&lt;font style=&quot;font-size: 29px;&quot;&gt;Version 2&lt;br&gt;&lt;/font&gt;" style="text;html=1;align=center;verticalAlign=middle;resizable=0;points=[];autosize=1;strokeColor=none;fillColor=none;fontColor=#000000;" parent="WIyWlLk6GJQsqaUBKTNV-1" vertex="1">
          <mxGeometry x="-285" y="724" width="139" height="47" as="geometry" />
        </mxCell>
        <mxCell id="ZDbLmmGyUOGMyYLeXSUg-271" value="Description" style="text;html=1;align=center;verticalAlign=middle;resizable=0;points=[];autosize=1;strokeColor=none;fillColor=none;fontColor=#000000;" parent="WIyWlLk6GJQsqaUBKTNV-1" vertex="1">
          <mxGeometry x="756.3200000000002" y="1112" width="81" height="26" as="geometry" />
        </mxCell>
        <mxCell id="ZDbLmmGyUOGMyYLeXSUg-274" style="edgeStyle=none;rounded=0;orthogonalLoop=1;jettySize=auto;html=1;exitX=0.5;exitY=1;exitDx=0;exitDy=0;fontSize=29;fontColor=#000000;endArrow=none;endFill=0;" parent="WIyWlLk6GJQsqaUBKTNV-1" source="TLsfVrz0yq-yXyJu7jA5-22" target="TLsfVrz0yq-yXyJu7jA5-22" edge="1">
          <mxGeometry relative="1" as="geometry" />
        </mxCell>
        <mxCell id="yDomjnnmyjTK1vdxLF3f-0" value="Composé de" style="rhombus;whiteSpace=wrap;html=1;" parent="WIyWlLk6GJQsqaUBKTNV-1" vertex="1">
          <mxGeometry x="5.289999999999679" y="1904" width="119.82" height="68" as="geometry" />
        </mxCell>
        <mxCell id="yDomjnnmyjTK1vdxLF3f-11" style="edgeStyle=none;rounded=0;orthogonalLoop=1;jettySize=auto;html=1;entryX=0.707;entryY=1.026;entryDx=0;entryDy=0;entryPerimeter=0;endArrow=none;endFill=0;" parent="WIyWlLk6GJQsqaUBKTNV-1" source="yDomjnnmyjTK1vdxLF3f-10" target="t3gbEmW65aFLrgszG5lH-0" edge="1">
          <mxGeometry relative="1" as="geometry" />
        </mxCell>
        <mxCell id="yDomjnnmyjTK1vdxLF3f-10" value="Établissement" style="text;html=1;align=center;verticalAlign=middle;resizable=0;points=[];autosize=1;strokeColor=none;fillColor=none;" parent="WIyWlLk6GJQsqaUBKTNV-1" vertex="1">
          <mxGeometry x="43" y="2263" width="93" height="26" as="geometry" />
        </mxCell>
        <mxCell id="yDomjnnmyjTK1vdxLF3f-18" style="edgeStyle=none;rounded=0;orthogonalLoop=1;jettySize=auto;html=1;entryX=0;entryY=0.5;entryDx=0;entryDy=0;endArrow=none;endFill=0;exitX=1.006;exitY=0.596;exitDx=0;exitDy=0;exitPerimeter=0;" parent="WIyWlLk6GJQsqaUBKTNV-1" source="yDomjnnmyjTK1vdxLF3f-16" target="t3gbEmW65aFLrgszG5lH-0" edge="1">
          <mxGeometry relative="1" as="geometry" />
        </mxCell>
        <mxCell id="yDomjnnmyjTK1vdxLF3f-19" value="1:N" style="edgeLabel;html=1;align=center;verticalAlign=middle;resizable=0;points=[];" parent="yDomjnnmyjTK1vdxLF3f-18" vertex="1" connectable="0">
          <mxGeometry x="-0.7542" y="2" relative="1" as="geometry">
            <mxPoint x="-7" y="-8" as="offset" />
          </mxGeometry>
        </mxCell>
        <mxCell id="yDomjnnmyjTK1vdxLF3f-16" value="Prénom" style="text;html=1;align=center;verticalAlign=middle;resizable=0;points=[];autosize=1;strokeColor=none;fillColor=none;" parent="WIyWlLk6GJQsqaUBKTNV-1" vertex="1">
          <mxGeometry x="-150.34" y="2237" width="60" height="26" as="geometry" />
        </mxCell>
        <mxCell id="yDomjnnmyjTK1vdxLF3f-21" style="edgeStyle=none;rounded=0;orthogonalLoop=1;jettySize=auto;html=1;entryX=0;entryY=0.5;entryDx=0;entryDy=0;endArrow=none;endFill=0;" parent="WIyWlLk6GJQsqaUBKTNV-1" source="yDomjnnmyjTK1vdxLF3f-20" target="t3gbEmW65aFLrgszG5lH-0" edge="1">
          <mxGeometry relative="1" as="geometry" />
        </mxCell>
        <mxCell id="yDomjnnmyjTK1vdxLF3f-20" value="Date de naissance" style="text;html=1;align=center;verticalAlign=middle;resizable=0;points=[];autosize=1;strokeColor=none;fillColor=none;" parent="WIyWlLk6GJQsqaUBKTNV-1" vertex="1">
          <mxGeometry x="-173" y="2260.5" width="117" height="26" as="geometry" />
        </mxCell>
        <mxCell id="yDomjnnmyjTK1vdxLF3f-23" style="edgeStyle=none;rounded=0;orthogonalLoop=1;jettySize=auto;html=1;entryX=0;entryY=0.5;entryDx=0;entryDy=0;endArrow=none;endFill=0;exitX=1.018;exitY=0.56;exitDx=0;exitDy=0;exitPerimeter=0;" parent="WIyWlLk6GJQsqaUBKTNV-1" source="yDomjnnmyjTK1vdxLF3f-22" target="t3gbEmW65aFLrgszG5lH-0" edge="1">
          <mxGeometry relative="1" as="geometry" />
        </mxCell>
        <mxCell id="yDomjnnmyjTK1vdxLF3f-22" value="&lt;u&gt;Matricule&lt;/u&gt;" style="text;html=1;align=center;verticalAlign=middle;resizable=0;points=[];autosize=1;strokeColor=none;fillColor=none;" parent="WIyWlLk6GJQsqaUBKTNV-1" vertex="1">
          <mxGeometry x="-149.5" y="2286.5" width="67" height="26" as="geometry" />
        </mxCell>
        <mxCell id="yDomjnnmyjTK1vdxLF3f-26" style="edgeStyle=none;rounded=0;orthogonalLoop=1;jettySize=auto;html=1;entryX=0;entryY=0.5;entryDx=0;entryDy=0;endArrow=none;endFill=0;exitX=1.013;exitY=0.577;exitDx=0;exitDy=0;exitPerimeter=0;" parent="WIyWlLk6GJQsqaUBKTNV-1" source="yDomjnnmyjTK1vdxLF3f-25" target="t3gbEmW65aFLrgszG5lH-1" edge="1">
          <mxGeometry relative="1" as="geometry" />
        </mxCell>
        <mxCell id="yDomjnnmyjTK1vdxLF3f-25" value="Date d&#39;inscription" style="text;html=1;align=center;verticalAlign=middle;resizable=0;points=[];autosize=1;strokeColor=none;fillColor=none;" parent="WIyWlLk6GJQsqaUBKTNV-1" vertex="1">
          <mxGeometry x="-155" y="2037" width="110" height="26" as="geometry" />
        </mxCell>
        <mxCell id="yDomjnnmyjTK1vdxLF3f-57" style="edgeStyle=none;rounded=0;orthogonalLoop=1;jettySize=auto;html=1;entryX=0;entryY=0.5;entryDx=0;entryDy=0;endArrow=none;endFill=0;dashed=1;shape=link;" parent="WIyWlLk6GJQsqaUBKTNV-1" source="yDomjnnmyjTK1vdxLF3f-27" target="yDomjnnmyjTK1vdxLF3f-56" edge="1">
          <mxGeometry relative="1" as="geometry" />
        </mxCell>
        <mxCell id="yDomjnnmyjTK1vdxLF3f-27" value="Évenement" style="rounded=0;whiteSpace=wrap;html=1;" parent="WIyWlLk6GJQsqaUBKTNV-1" vertex="1">
          <mxGeometry x="337" y="1608" width="120" height="44" as="geometry" />
        </mxCell>
        <mxCell id="yDomjnnmyjTK1vdxLF3f-37" style="edgeStyle=none;rounded=0;orthogonalLoop=1;jettySize=auto;html=1;entryX=0.5;entryY=1;entryDx=0;entryDy=0;endArrow=none;endFill=0;" parent="WIyWlLk6GJQsqaUBKTNV-1" source="yDomjnnmyjTK1vdxLF3f-35" target="yDomjnnmyjTK1vdxLF3f-27" edge="1">
          <mxGeometry relative="1" as="geometry" />
        </mxCell>
        <mxCell id="Ph438IjxgKNGPO0ka1Jd-134" value="1:N" style="edgeLabel;html=1;align=center;verticalAlign=middle;resizable=0;points=[];" vertex="1" connectable="0" parent="yDomjnnmyjTK1vdxLF3f-37">
          <mxGeometry x="-0.4659" y="1" relative="1" as="geometry">
            <mxPoint x="11" y="-7" as="offset" />
          </mxGeometry>
        </mxCell>
        <mxCell id="yDomjnnmyjTK1vdxLF3f-35" value="Organise" style="rhombus;whiteSpace=wrap;html=1;" parent="WIyWlLk6GJQsqaUBKTNV-1" vertex="1">
          <mxGeometry x="337.17999999999967" y="1697" width="119.82" height="68" as="geometry" />
        </mxCell>
        <mxCell id="yDomjnnmyjTK1vdxLF3f-38" value="Cotisation" style="rounded=0;whiteSpace=wrap;html=1;" parent="WIyWlLk6GJQsqaUBKTNV-1" vertex="1">
          <mxGeometry x="337.18" y="2028" width="120" height="44" as="geometry" />
        </mxCell>
        <mxCell id="yDomjnnmyjTK1vdxLF3f-42" style="edgeStyle=none;rounded=0;orthogonalLoop=1;jettySize=auto;html=1;entryX=0;entryY=0.5;entryDx=0;entryDy=0;endArrow=none;endFill=0;" parent="WIyWlLk6GJQsqaUBKTNV-1" source="yDomjnnmyjTK1vdxLF3f-39" target="yDomjnnmyjTK1vdxLF3f-38" edge="1">
          <mxGeometry relative="1" as="geometry" />
        </mxCell>
        <mxCell id="yDomjnnmyjTK1vdxLF3f-39" value="Paye" style="rhombus;whiteSpace=wrap;html=1;" parent="WIyWlLk6GJQsqaUBKTNV-1" vertex="1">
          <mxGeometry x="171.9999999999997" y="2018.5" width="119.82" height="68" as="geometry" />
        </mxCell>
        <mxCell id="yDomjnnmyjTK1vdxLF3f-44" style="edgeStyle=none;rounded=0;orthogonalLoop=1;jettySize=auto;html=1;entryX=0;entryY=0.5;entryDx=0;entryDy=0;endArrow=none;endFill=0;" parent="WIyWlLk6GJQsqaUBKTNV-1" source="yDomjnnmyjTK1vdxLF3f-43" target="t3gbEmW65aFLrgszG5lH-17" edge="1">
          <mxGeometry relative="1" as="geometry" />
        </mxCell>
        <mxCell id="yDomjnnmyjTK1vdxLF3f-43" value="Frais" style="text;html=1;align=center;verticalAlign=middle;resizable=0;points=[];autosize=1;strokeColor=none;fillColor=none;" parent="WIyWlLk6GJQsqaUBKTNV-1" vertex="1">
          <mxGeometry x="-93.5" y="1762" width="45" height="26" as="geometry" />
        </mxCell>
        <mxCell id="yDomjnnmyjTK1vdxLF3f-49" style="edgeStyle=none;rounded=0;orthogonalLoop=1;jettySize=auto;html=1;exitX=0.5;exitY=0;exitDx=0;exitDy=0;entryX=0;entryY=0.5;entryDx=0;entryDy=0;endArrow=none;endFill=0;shape=link;dashed=1;" parent="WIyWlLk6GJQsqaUBKTNV-1" source="yDomjnnmyjTK1vdxLF3f-47" target="yDomjnnmyjTK1vdxLF3f-27" edge="1">
          <mxGeometry relative="1" as="geometry">
            <Array as="points">
              <mxPoint x="-242" y="1628" />
            </Array>
          </mxGeometry>
        </mxCell>
        <mxCell id="yDomjnnmyjTK1vdxLF3f-47" value="Participe" style="rhombus;whiteSpace=wrap;html=1;" parent="WIyWlLk6GJQsqaUBKTNV-1" vertex="1">
          <mxGeometry x="-308.00000000000034" y="1802" width="119.82" height="68" as="geometry" />
        </mxCell>
        <mxCell id="Ph438IjxgKNGPO0ka1Jd-24" style="edgeStyle=none;rounded=0;orthogonalLoop=1;jettySize=auto;html=1;entryX=-0.001;entryY=0.538;entryDx=0;entryDy=0;entryPerimeter=0;endArrow=none;endFill=0;" edge="1" parent="WIyWlLk6GJQsqaUBKTNV-1" source="yDomjnnmyjTK1vdxLF3f-55" target="Ph438IjxgKNGPO0ka1Jd-23">
          <mxGeometry relative="1" as="geometry" />
        </mxCell>
        <mxCell id="Ph438IjxgKNGPO0ka1Jd-26" style="edgeStyle=none;rounded=0;orthogonalLoop=1;jettySize=auto;html=1;exitX=1;exitY=0.5;exitDx=0;exitDy=0;entryX=-0.032;entryY=0.522;entryDx=0;entryDy=0;entryPerimeter=0;endArrow=none;endFill=0;" edge="1" parent="WIyWlLk6GJQsqaUBKTNV-1" source="yDomjnnmyjTK1vdxLF3f-55" target="Ph438IjxgKNGPO0ka1Jd-25">
          <mxGeometry relative="1" as="geometry" />
        </mxCell>
        <mxCell id="yDomjnnmyjTK1vdxLF3f-55" value="Sponsor" style="rounded=0;whiteSpace=wrap;html=1;" parent="WIyWlLk6GJQsqaUBKTNV-1" vertex="1">
          <mxGeometry x="700" y="1610" width="120" height="44" as="geometry" />
        </mxCell>
        <mxCell id="yDomjnnmyjTK1vdxLF3f-58" style="edgeStyle=none;rounded=0;orthogonalLoop=1;jettySize=auto;html=1;entryX=0;entryY=0.5;entryDx=0;entryDy=0;endArrow=none;endFill=0;" parent="WIyWlLk6GJQsqaUBKTNV-1" source="yDomjnnmyjTK1vdxLF3f-56" target="yDomjnnmyjTK1vdxLF3f-55" edge="1">
          <mxGeometry relative="1" as="geometry" />
        </mxCell>
        <mxCell id="yDomjnnmyjTK1vdxLF3f-56" value="Contient" style="rhombus;whiteSpace=wrap;html=1;" parent="WIyWlLk6GJQsqaUBKTNV-1" vertex="1">
          <mxGeometry x="521.9999999999997" y="1598" width="119.82" height="68" as="geometry" />
        </mxCell>
        <mxCell id="yDomjnnmyjTK1vdxLF3f-60" style="edgeStyle=none;rounded=0;orthogonalLoop=1;jettySize=auto;html=1;entryX=1;entryY=0.5;entryDx=0;entryDy=0;endArrow=none;endFill=0;" parent="WIyWlLk6GJQsqaUBKTNV-1" source="yDomjnnmyjTK1vdxLF3f-59" target="yDomjnnmyjTK1vdxLF3f-38" edge="1">
          <mxGeometry relative="1" as="geometry" />
        </mxCell>
        <mxCell id="yDomjnnmyjTK1vdxLF3f-59" value="Montant" style="text;html=1;align=center;verticalAlign=middle;resizable=0;points=[];autosize=1;strokeColor=none;fillColor=none;" parent="WIyWlLk6GJQsqaUBKTNV-1" vertex="1">
          <mxGeometry x="480" y="2017.58" width="61" height="26" as="geometry" />
        </mxCell>
        <mxCell id="yDomjnnmyjTK1vdxLF3f-61" value="Majeure" style="rounded=0;whiteSpace=wrap;html=1;" parent="WIyWlLk6GJQsqaUBKTNV-1" vertex="1">
          <mxGeometry x="-10" y="1445" width="120" height="44" as="geometry" />
        </mxCell>
        <mxCell id="yDomjnnmyjTK1vdxLF3f-66" style="edgeStyle=none;rounded=0;orthogonalLoop=1;jettySize=auto;html=1;entryX=0.5;entryY=0;entryDx=0;entryDy=0;endArrow=none;endFill=0;" parent="WIyWlLk6GJQsqaUBKTNV-1" source="yDomjnnmyjTK1vdxLF3f-62" target="yDomjnnmyjTK1vdxLF3f-64" edge="1">
          <mxGeometry relative="1" as="geometry" />
        </mxCell>
        <mxCell id="yDomjnnmyjTK1vdxLF3f-79" value="1:N" style="edgeLabel;html=1;align=center;verticalAlign=middle;resizable=0;points=[];" parent="yDomjnnmyjTK1vdxLF3f-66" vertex="1" connectable="0">
          <mxGeometry x="-0.4842" y="-1" relative="1" as="geometry">
            <mxPoint x="14" y="11" as="offset" />
          </mxGeometry>
        </mxCell>
        <mxCell id="yDomjnnmyjTK1vdxLF3f-68" style="edgeStyle=none;rounded=0;orthogonalLoop=1;jettySize=auto;html=1;entryX=0.483;entryY=1.064;entryDx=0;entryDy=0;entryPerimeter=0;endArrow=none;endFill=0;" parent="WIyWlLk6GJQsqaUBKTNV-1" source="yDomjnnmyjTK1vdxLF3f-62" target="yDomjnnmyjTK1vdxLF3f-67" edge="1">
          <mxGeometry relative="1" as="geometry" />
        </mxCell>
        <mxCell id="yDomjnnmyjTK1vdxLF3f-62" value="Cours" style="rounded=0;whiteSpace=wrap;html=1;" parent="WIyWlLk6GJQsqaUBKTNV-1" vertex="1">
          <mxGeometry x="-10" y="1257.67" width="120" height="44" as="geometry" />
        </mxCell>
        <mxCell id="yDomjnnmyjTK1vdxLF3f-65" style="edgeStyle=none;rounded=0;orthogonalLoop=1;jettySize=auto;html=1;entryX=0.5;entryY=0;entryDx=0;entryDy=0;endArrow=none;endFill=0;" parent="WIyWlLk6GJQsqaUBKTNV-1" source="yDomjnnmyjTK1vdxLF3f-64" target="yDomjnnmyjTK1vdxLF3f-61" edge="1">
          <mxGeometry relative="1" as="geometry" />
        </mxCell>
        <mxCell id="yDomjnnmyjTK1vdxLF3f-78" value="1:N" style="edgeLabel;html=1;align=center;verticalAlign=middle;resizable=0;points=[];" parent="yDomjnnmyjTK1vdxLF3f-65" vertex="1" connectable="0">
          <mxGeometry x="-0.5006" y="-2" relative="1" as="geometry">
            <mxPoint x="13" y="5" as="offset" />
          </mxGeometry>
        </mxCell>
        <mxCell id="yDomjnnmyjTK1vdxLF3f-64" value="Contient" style="rhombus;whiteSpace=wrap;html=1;" parent="WIyWlLk6GJQsqaUBKTNV-1" vertex="1">
          <mxGeometry x="-9.82000000000031" y="1346" width="119.82" height="68" as="geometry" />
        </mxCell>
        <mxCell id="yDomjnnmyjTK1vdxLF3f-67" value="&lt;u&gt;ID_Cours&lt;/u&gt;" style="text;html=1;align=center;verticalAlign=middle;resizable=0;points=[];autosize=1;strokeColor=none;fillColor=none;" parent="WIyWlLk6GJQsqaUBKTNV-1" vertex="1">
          <mxGeometry x="-64" y="1169" width="69" height="26" as="geometry" />
        </mxCell>
        <mxCell id="yDomjnnmyjTK1vdxLF3f-70" style="edgeStyle=none;rounded=0;orthogonalLoop=1;jettySize=auto;html=1;entryX=0.5;entryY=0;entryDx=0;entryDy=0;endArrow=none;endFill=0;" parent="WIyWlLk6GJQsqaUBKTNV-1" source="yDomjnnmyjTK1vdxLF3f-69" target="yDomjnnmyjTK1vdxLF3f-62" edge="1">
          <mxGeometry relative="1" as="geometry" />
        </mxCell>
        <mxCell id="yDomjnnmyjTK1vdxLF3f-69" value="Nom de cours" style="text;html=1;align=center;verticalAlign=middle;resizable=0;points=[];autosize=1;strokeColor=none;fillColor=none;" parent="WIyWlLk6GJQsqaUBKTNV-1" vertex="1">
          <mxGeometry x="-2.710000000000001" y="1169" width="93" height="26" as="geometry" />
        </mxCell>
        <mxCell id="yDomjnnmyjTK1vdxLF3f-72" style="edgeStyle=none;rounded=0;orthogonalLoop=1;jettySize=auto;html=1;entryX=0.75;entryY=0;entryDx=0;entryDy=0;endArrow=none;endFill=0;" parent="WIyWlLk6GJQsqaUBKTNV-1" source="yDomjnnmyjTK1vdxLF3f-71" target="yDomjnnmyjTK1vdxLF3f-62" edge="1">
          <mxGeometry relative="1" as="geometry" />
        </mxCell>
        <mxCell id="yDomjnnmyjTK1vdxLF3f-71" value="Nb crédits" style="text;html=1;align=center;verticalAlign=middle;resizable=0;points=[];autosize=1;strokeColor=none;fillColor=none;" parent="WIyWlLk6GJQsqaUBKTNV-1" vertex="1">
          <mxGeometry x="91" y="1169" width="72" height="26" as="geometry" />
        </mxCell>
        <mxCell id="yDomjnnmyjTK1vdxLF3f-74" style="edgeStyle=none;rounded=0;orthogonalLoop=1;jettySize=auto;html=1;entryX=0;entryY=0.5;entryDx=0;entryDy=0;endArrow=none;endFill=0;exitX=1.012;exitY=0.577;exitDx=0;exitDy=0;exitPerimeter=0;" parent="WIyWlLk6GJQsqaUBKTNV-1" source="yDomjnnmyjTK1vdxLF3f-73" target="yDomjnnmyjTK1vdxLF3f-61" edge="1">
          <mxGeometry relative="1" as="geometry" />
        </mxCell>
        <mxCell id="yDomjnnmyjTK1vdxLF3f-73" value="Nom de majeure" style="text;html=1;align=center;verticalAlign=middle;resizable=0;points=[];autosize=1;strokeColor=none;fillColor=none;" parent="WIyWlLk6GJQsqaUBKTNV-1" vertex="1">
          <mxGeometry x="-155" y="1423" width="107" height="26" as="geometry" />
        </mxCell>
        <mxCell id="yDomjnnmyjTK1vdxLF3f-76" style="edgeStyle=none;rounded=0;orthogonalLoop=1;jettySize=auto;html=1;entryX=0.089;entryY=-0.026;entryDx=0;entryDy=0;entryPerimeter=0;endArrow=none;endFill=0;" parent="WIyWlLk6GJQsqaUBKTNV-1" source="yDomjnnmyjTK1vdxLF3f-75" target="t3gbEmW65aFLrgszG5lH-1" edge="1">
          <mxGeometry relative="1" as="geometry">
            <Array as="points">
              <mxPoint x="-384" y="2005" />
              <mxPoint x="14" y="2012" />
            </Array>
          </mxGeometry>
        </mxCell>
        <mxCell id="yDomjnnmyjTK1vdxLF3f-77" style="edgeStyle=none;rounded=0;orthogonalLoop=1;jettySize=auto;html=1;entryX=0.5;entryY=1;entryDx=0;entryDy=0;endArrow=none;endFill=0;dashed=1;shape=link;" parent="WIyWlLk6GJQsqaUBKTNV-1" source="yDomjnnmyjTK1vdxLF3f-75" target="yDomjnnmyjTK1vdxLF3f-61" edge="1">
          <mxGeometry relative="1" as="geometry">
            <Array as="points">
              <mxPoint x="-373" y="1571" />
              <mxPoint x="50" y="1576" />
            </Array>
          </mxGeometry>
        </mxCell>
        <mxCell id="yDomjnnmyjTK1vdxLF3f-75" value="Assigné" style="rhombus;whiteSpace=wrap;html=1;" parent="WIyWlLk6GJQsqaUBKTNV-1" vertex="1">
          <mxGeometry x="-439.00000000000034" y="1802" width="119.82" height="68" as="geometry" />
        </mxCell>
        <mxCell id="yDomjnnmyjTK1vdxLF3f-81" style="edgeStyle=none;rounded=0;orthogonalLoop=1;jettySize=auto;html=1;entryX=0;entryY=0.5;entryDx=0;entryDy=0;endArrow=none;endFill=0;exitX=1.025;exitY=0.416;exitDx=0;exitDy=0;exitPerimeter=0;" parent="WIyWlLk6GJQsqaUBKTNV-1" source="yDomjnnmyjTK1vdxLF3f-80" target="t3gbEmW65aFLrgszG5lH-0" edge="1">
          <mxGeometry relative="1" as="geometry" />
        </mxCell>
        <mxCell id="yDomjnnmyjTK1vdxLF3f-80" value="GPA" style="text;html=1;align=center;verticalAlign=middle;resizable=0;points=[];autosize=1;strokeColor=none;fillColor=none;" parent="WIyWlLk6GJQsqaUBKTNV-1" vertex="1">
          <mxGeometry x="-130.33999999999997" y="2312.5" width="42" height="26" as="geometry" />
        </mxCell>
        <mxCell id="yDomjnnmyjTK1vdxLF3f-83" style="edgeStyle=none;rounded=0;orthogonalLoop=1;jettySize=auto;html=1;entryX=0;entryY=0.5;entryDx=0;entryDy=0;endArrow=none;endFill=0;" parent="WIyWlLk6GJQsqaUBKTNV-1" source="yDomjnnmyjTK1vdxLF3f-82" target="t3gbEmW65aFLrgszG5lH-17" edge="1">
          <mxGeometry relative="1" as="geometry" />
        </mxCell>
        <mxCell id="yDomjnnmyjTK1vdxLF3f-82" value="GPA min" style="text;html=1;align=center;verticalAlign=middle;resizable=0;points=[];autosize=1;strokeColor=none;fillColor=none;" parent="WIyWlLk6GJQsqaUBKTNV-1" vertex="1">
          <mxGeometry x="-99" y="1786" width="64" height="26" as="geometry" />
        </mxCell>
        <mxCell id="Ph438IjxgKNGPO0ka1Jd-1" style="rounded=0;orthogonalLoop=1;jettySize=auto;html=1;entryX=0;entryY=0.5;entryDx=0;entryDy=0;endArrow=none;endFill=0;" edge="1" parent="WIyWlLk6GJQsqaUBKTNV-1" source="Ph438IjxgKNGPO0ka1Jd-0" target="yDomjnnmyjTK1vdxLF3f-61">
          <mxGeometry relative="1" as="geometry" />
        </mxCell>
        <mxCell id="Ph438IjxgKNGPO0ka1Jd-0" value="Credits requis" style="text;html=1;align=center;verticalAlign=middle;resizable=0;points=[];autosize=1;strokeColor=none;fillColor=none;" vertex="1" parent="WIyWlLk6GJQsqaUBKTNV-1">
          <mxGeometry x="-147.5" y="1449" width="96" height="26" as="geometry" />
        </mxCell>
        <mxCell id="Ph438IjxgKNGPO0ka1Jd-3" style="edgeStyle=none;rounded=0;orthogonalLoop=1;jettySize=auto;html=1;entryX=0;entryY=0.5;entryDx=0;entryDy=0;endArrow=none;endFill=0;exitX=1.011;exitY=0.544;exitDx=0;exitDy=0;exitPerimeter=0;" edge="1" parent="WIyWlLk6GJQsqaUBKTNV-1" source="Ph438IjxgKNGPO0ka1Jd-2" target="yDomjnnmyjTK1vdxLF3f-61">
          <mxGeometry relative="1" as="geometry" />
        </mxCell>
        <mxCell id="Ph438IjxgKNGPO0ka1Jd-2" value="Description majeure" style="text;html=1;align=center;verticalAlign=middle;resizable=0;points=[];autosize=1;strokeColor=none;fillColor=none;" vertex="1" parent="WIyWlLk6GJQsqaUBKTNV-1">
          <mxGeometry x="-173.39" y="1479" width="130" height="26" as="geometry" />
        </mxCell>
        <mxCell id="Ph438IjxgKNGPO0ka1Jd-5" style="edgeStyle=none;rounded=0;orthogonalLoop=1;jettySize=auto;html=1;entryX=-0.007;entryY=0.647;entryDx=0;entryDy=0;entryPerimeter=0;endArrow=none;endFill=0;" edge="1" parent="WIyWlLk6GJQsqaUBKTNV-1" source="Ph438IjxgKNGPO0ka1Jd-6" target="yDomjnnmyjTK1vdxLF3f-20">
          <mxGeometry relative="1" as="geometry">
            <mxPoint x="-178.5" y="2180.92" as="targetPoint" />
          </mxGeometry>
        </mxCell>
        <mxCell id="Ph438IjxgKNGPO0ka1Jd-6" value="m" style="text;html=1;align=center;verticalAlign=middle;resizable=0;points=[];autosize=1;strokeColor=none;fillColor=none;" vertex="1" parent="WIyWlLk6GJQsqaUBKTNV-1">
          <mxGeometry x="-292.84000000000003" y="2262.09" width="29" height="26" as="geometry" />
        </mxCell>
        <mxCell id="Ph438IjxgKNGPO0ka1Jd-7" style="edgeStyle=none;rounded=0;orthogonalLoop=1;jettySize=auto;html=1;entryX=-0.003;entryY=0.635;entryDx=0;entryDy=0;entryPerimeter=0;endArrow=none;endFill=0;exitX=1.013;exitY=0.551;exitDx=0;exitDy=0;exitPerimeter=0;" edge="1" parent="WIyWlLk6GJQsqaUBKTNV-1" source="Ph438IjxgKNGPO0ka1Jd-8" target="yDomjnnmyjTK1vdxLF3f-20">
          <mxGeometry relative="1" as="geometry">
            <mxPoint x="-178.5" y="2181.92" as="targetPoint" />
            <mxPoint x="-266.34000000000015" y="2203.921063268893" as="sourcePoint" />
          </mxGeometry>
        </mxCell>
        <mxCell id="Ph438IjxgKNGPO0ka1Jd-8" value="a" style="text;html=1;align=center;verticalAlign=middle;resizable=0;points=[];autosize=1;strokeColor=none;fillColor=none;" vertex="1" parent="WIyWlLk6GJQsqaUBKTNV-1">
          <mxGeometry x="-290.84000000000003" y="2279.92" width="25" height="26" as="geometry" />
        </mxCell>
        <mxCell id="Ph438IjxgKNGPO0ka1Jd-9" style="edgeStyle=none;rounded=0;orthogonalLoop=1;jettySize=auto;html=1;entryX=-0.014;entryY=0.615;entryDx=0;entryDy=0;entryPerimeter=0;endArrow=none;endFill=0;" edge="1" parent="WIyWlLk6GJQsqaUBKTNV-1" source="Ph438IjxgKNGPO0ka1Jd-10" target="yDomjnnmyjTK1vdxLF3f-20">
          <mxGeometry relative="1" as="geometry">
            <mxPoint x="-178.5" y="2181.92" as="targetPoint" />
          </mxGeometry>
        </mxCell>
        <mxCell id="Ph438IjxgKNGPO0ka1Jd-10" value="j" style="text;html=1;align=center;verticalAlign=middle;resizable=0;points=[];autosize=1;strokeColor=none;fillColor=none;fontSize=12;fontColor=#000000;" vertex="1" parent="WIyWlLk6GJQsqaUBKTNV-1">
          <mxGeometry x="-288.84000000000003" y="2241.09" width="21" height="26" as="geometry" />
        </mxCell>
        <mxCell id="Ph438IjxgKNGPO0ka1Jd-15" style="edgeStyle=none;rounded=0;orthogonalLoop=1;jettySize=auto;html=1;entryX=-0.006;entryY=0.54;entryDx=0;entryDy=0;entryPerimeter=0;endArrow=none;endFill=0;" edge="1" parent="WIyWlLk6GJQsqaUBKTNV-1" source="Ph438IjxgKNGPO0ka1Jd-11" target="yDomjnnmyjTK1vdxLF3f-25">
          <mxGeometry relative="1" as="geometry" />
        </mxCell>
        <mxCell id="Ph438IjxgKNGPO0ka1Jd-11" value="m" style="text;html=1;align=center;verticalAlign=middle;resizable=0;points=[];autosize=1;strokeColor=none;fillColor=none;" vertex="1" parent="WIyWlLk6GJQsqaUBKTNV-1">
          <mxGeometry x="-277.73" y="2038.5800000000002" width="29" height="26" as="geometry" />
        </mxCell>
        <mxCell id="Ph438IjxgKNGPO0ka1Jd-16" style="edgeStyle=none;rounded=0;orthogonalLoop=1;jettySize=auto;html=1;entryX=0.006;entryY=0.577;entryDx=0;entryDy=0;entryPerimeter=0;endArrow=none;endFill=0;" edge="1" parent="WIyWlLk6GJQsqaUBKTNV-1" source="Ph438IjxgKNGPO0ka1Jd-12" target="yDomjnnmyjTK1vdxLF3f-25">
          <mxGeometry relative="1" as="geometry" />
        </mxCell>
        <mxCell id="Ph438IjxgKNGPO0ka1Jd-12" value="a" style="text;html=1;align=center;verticalAlign=middle;resizable=0;points=[];autosize=1;strokeColor=none;fillColor=none;" vertex="1" parent="WIyWlLk6GJQsqaUBKTNV-1">
          <mxGeometry x="-275.73" y="2056.41" width="25" height="26" as="geometry" />
        </mxCell>
        <mxCell id="Ph438IjxgKNGPO0ka1Jd-14" style="edgeStyle=none;rounded=0;orthogonalLoop=1;jettySize=auto;html=1;entryX=-0.002;entryY=0.559;entryDx=0;entryDy=0;entryPerimeter=0;endArrow=none;endFill=0;" edge="1" parent="WIyWlLk6GJQsqaUBKTNV-1" source="Ph438IjxgKNGPO0ka1Jd-13" target="yDomjnnmyjTK1vdxLF3f-25">
          <mxGeometry relative="1" as="geometry" />
        </mxCell>
        <mxCell id="Ph438IjxgKNGPO0ka1Jd-13" value="j" style="text;html=1;align=center;verticalAlign=middle;resizable=0;points=[];autosize=1;strokeColor=none;fillColor=none;fontSize=12;fontColor=#000000;" vertex="1" parent="WIyWlLk6GJQsqaUBKTNV-1">
          <mxGeometry x="-273.73" y="2017.5800000000002" width="21" height="26" as="geometry" />
        </mxCell>
        <mxCell id="Ph438IjxgKNGPO0ka1Jd-18" style="edgeStyle=none;rounded=0;orthogonalLoop=1;jettySize=auto;html=1;entryX=0.5;entryY=0;entryDx=0;entryDy=0;endArrow=none;endFill=0;exitX=0.507;exitY=1.093;exitDx=0;exitDy=0;exitPerimeter=0;" edge="1" parent="WIyWlLk6GJQsqaUBKTNV-1" source="Ph438IjxgKNGPO0ka1Jd-17" target="yDomjnnmyjTK1vdxLF3f-27">
          <mxGeometry relative="1" as="geometry" />
        </mxCell>
        <mxCell id="Ph438IjxgKNGPO0ka1Jd-17" value="Description évenement" style="text;html=1;align=center;verticalAlign=middle;resizable=0;points=[];autosize=1;strokeColor=none;fillColor=none;" vertex="1" parent="WIyWlLk6GJQsqaUBKTNV-1">
          <mxGeometry x="424" y="1479" width="145" height="26" as="geometry" />
        </mxCell>
        <mxCell id="Ph438IjxgKNGPO0ka1Jd-20" style="edgeStyle=none;rounded=0;orthogonalLoop=1;jettySize=auto;html=1;entryX=0.5;entryY=0;entryDx=0;entryDy=0;endArrow=none;endFill=0;exitX=0.532;exitY=1.049;exitDx=0;exitDy=0;exitPerimeter=0;" edge="1" parent="WIyWlLk6GJQsqaUBKTNV-1" source="Ph438IjxgKNGPO0ka1Jd-19" target="yDomjnnmyjTK1vdxLF3f-27">
          <mxGeometry relative="1" as="geometry" />
        </mxCell>
        <mxCell id="Ph438IjxgKNGPO0ka1Jd-19" value="Début evenement" style="text;html=1;align=center;verticalAlign=middle;resizable=0;points=[];autosize=1;strokeColor=none;fillColor=none;" vertex="1" parent="WIyWlLk6GJQsqaUBKTNV-1">
          <mxGeometry x="220" y="1479" width="115" height="26" as="geometry" />
        </mxCell>
        <mxCell id="Ph438IjxgKNGPO0ka1Jd-22" style="edgeStyle=none;rounded=0;orthogonalLoop=1;jettySize=auto;html=1;entryX=0.5;entryY=0;entryDx=0;entryDy=0;endArrow=none;endFill=0;" edge="1" parent="WIyWlLk6GJQsqaUBKTNV-1" source="Ph438IjxgKNGPO0ka1Jd-21" target="yDomjnnmyjTK1vdxLF3f-27">
          <mxGeometry relative="1" as="geometry" />
        </mxCell>
        <mxCell id="Ph438IjxgKNGPO0ka1Jd-21" value="Fin évenement" style="text;html=1;align=center;verticalAlign=middle;resizable=0;points=[];autosize=1;strokeColor=none;fillColor=none;" vertex="1" parent="WIyWlLk6GJQsqaUBKTNV-1">
          <mxGeometry x="325" y="1479" width="99" height="26" as="geometry" />
        </mxCell>
        <mxCell id="Ph438IjxgKNGPO0ka1Jd-23" value="Nom du sponsor" style="text;html=1;align=center;verticalAlign=middle;resizable=0;points=[];autosize=1;strokeColor=none;fillColor=none;" vertex="1" parent="WIyWlLk6GJQsqaUBKTNV-1">
          <mxGeometry x="861.5" y="1619" width="111" height="26" as="geometry" />
        </mxCell>
        <mxCell id="Ph438IjxgKNGPO0ka1Jd-25" value="Montant financé" style="text;html=1;align=center;verticalAlign=middle;resizable=0;points=[];autosize=1;strokeColor=none;fillColor=none;" vertex="1" parent="WIyWlLk6GJQsqaUBKTNV-1">
          <mxGeometry x="861.5" y="1645" width="104" height="26" as="geometry" />
        </mxCell>
        <mxCell id="Ph438IjxgKNGPO0ka1Jd-28" style="edgeStyle=none;rounded=0;orthogonalLoop=1;jettySize=auto;html=1;entryX=0.5;entryY=0;entryDx=0;entryDy=0;endArrow=none;endFill=0;" edge="1" parent="WIyWlLk6GJQsqaUBKTNV-1" source="Ph438IjxgKNGPO0ka1Jd-27" target="yDomjnnmyjTK1vdxLF3f-38">
          <mxGeometry relative="1" as="geometry" />
        </mxCell>
        <mxCell id="Ph438IjxgKNGPO0ka1Jd-29" style="edgeStyle=none;rounded=0;orthogonalLoop=1;jettySize=auto;html=1;entryX=0;entryY=0.5;entryDx=0;entryDy=0;endArrow=none;endFill=0;exitX=1;exitY=0.5;exitDx=0;exitDy=0;" edge="1" parent="WIyWlLk6GJQsqaUBKTNV-1" source="Ph438IjxgKNGPO0ka1Jd-27" target="t3gbEmW65aFLrgszG5lH-8">
          <mxGeometry relative="1" as="geometry">
            <mxPoint x="397" y="1858" as="targetPoint" />
          </mxGeometry>
        </mxCell>
        <mxCell id="Ph438IjxgKNGPO0ka1Jd-52" value="1:N" style="edgeLabel;html=1;align=center;verticalAlign=middle;resizable=0;points=[];" vertex="1" connectable="0" parent="Ph438IjxgKNGPO0ka1Jd-29">
          <mxGeometry x="-0.3564" y="1" relative="1" as="geometry">
            <mxPoint x="37" y="-14" as="offset" />
          </mxGeometry>
        </mxCell>
        <mxCell id="Ph438IjxgKNGPO0ka1Jd-27" value="Reçoit" style="rhombus;whiteSpace=wrap;html=1;" vertex="1" parent="WIyWlLk6GJQsqaUBKTNV-1">
          <mxGeometry x="337.3599999999997" y="1904" width="119.82" height="68" as="geometry" />
        </mxCell>
        <mxCell id="Ph438IjxgKNGPO0ka1Jd-31" style="edgeStyle=none;rounded=0;orthogonalLoop=1;jettySize=auto;html=1;entryX=0.479;entryY=-0.042;entryDx=0;entryDy=0;entryPerimeter=0;endArrow=none;endFill=0;" edge="1" parent="WIyWlLk6GJQsqaUBKTNV-1" source="Ph438IjxgKNGPO0ka1Jd-30" target="Ph438IjxgKNGPO0ka1Jd-19">
          <mxGeometry relative="1" as="geometry" />
        </mxCell>
        <mxCell id="Ph438IjxgKNGPO0ka1Jd-30" value="j" style="text;html=1;align=center;verticalAlign=middle;resizable=0;points=[];autosize=1;strokeColor=none;fillColor=none;" vertex="1" parent="WIyWlLk6GJQsqaUBKTNV-1">
          <mxGeometry x="208.87" y="1414" width="21" height="26" as="geometry" />
        </mxCell>
        <mxCell id="Ph438IjxgKNGPO0ka1Jd-33" style="edgeStyle=none;rounded=0;orthogonalLoop=1;jettySize=auto;html=1;entryX=0.467;entryY=-0.042;entryDx=0;entryDy=0;entryPerimeter=0;endArrow=none;endFill=0;" edge="1" parent="WIyWlLk6GJQsqaUBKTNV-1" source="Ph438IjxgKNGPO0ka1Jd-32" target="Ph438IjxgKNGPO0ka1Jd-19">
          <mxGeometry relative="1" as="geometry" />
        </mxCell>
        <mxCell id="Ph438IjxgKNGPO0ka1Jd-32" value="m" style="text;html=1;align=center;verticalAlign=middle;resizable=0;points=[];autosize=1;strokeColor=none;fillColor=none;" vertex="1" parent="WIyWlLk6GJQsqaUBKTNV-1">
          <mxGeometry x="229.69" y="1414" width="29" height="26" as="geometry" />
        </mxCell>
        <mxCell id="Ph438IjxgKNGPO0ka1Jd-34" value="a" style="text;html=1;align=center;verticalAlign=middle;resizable=0;points=[];autosize=1;strokeColor=none;fillColor=none;" vertex="1" parent="WIyWlLk6GJQsqaUBKTNV-1">
          <mxGeometry x="255.87" y="1414" width="25" height="26" as="geometry" />
        </mxCell>
        <mxCell id="Ph438IjxgKNGPO0ka1Jd-36" style="edgeStyle=none;rounded=0;orthogonalLoop=1;jettySize=auto;html=1;entryX=0.473;entryY=-0.042;entryDx=0;entryDy=0;entryPerimeter=0;endArrow=none;endFill=0;" edge="1" parent="WIyWlLk6GJQsqaUBKTNV-1" source="Ph438IjxgKNGPO0ka1Jd-35" target="Ph438IjxgKNGPO0ka1Jd-19">
          <mxGeometry relative="1" as="geometry" />
        </mxCell>
        <mxCell id="Ph438IjxgKNGPO0ka1Jd-35" value="heure" style="text;html=1;align=center;verticalAlign=middle;resizable=0;points=[];autosize=1;strokeColor=none;fillColor=none;" vertex="1" parent="WIyWlLk6GJQsqaUBKTNV-1">
          <mxGeometry x="274.87" y="1414" width="50" height="26" as="geometry" />
        </mxCell>
        <mxCell id="Ph438IjxgKNGPO0ka1Jd-41" style="edgeStyle=none;rounded=0;orthogonalLoop=1;jettySize=auto;html=1;entryX=0.471;entryY=-0.016;entryDx=0;entryDy=0;entryPerimeter=0;endArrow=none;endFill=0;" edge="1" parent="WIyWlLk6GJQsqaUBKTNV-1" source="Ph438IjxgKNGPO0ka1Jd-37" target="Ph438IjxgKNGPO0ka1Jd-21">
          <mxGeometry relative="1" as="geometry" />
        </mxCell>
        <mxCell id="Ph438IjxgKNGPO0ka1Jd-37" value="j" style="text;html=1;align=center;verticalAlign=middle;resizable=0;points=[];autosize=1;strokeColor=none;fillColor=none;" vertex="1" parent="WIyWlLk6GJQsqaUBKTNV-1">
          <mxGeometry x="335.14" y="1414" width="21" height="26" as="geometry" />
        </mxCell>
        <mxCell id="Ph438IjxgKNGPO0ka1Jd-42" style="edgeStyle=none;rounded=0;orthogonalLoop=1;jettySize=auto;html=1;entryX=0.457;entryY=0.011;entryDx=0;entryDy=0;entryPerimeter=0;endArrow=none;endFill=0;" edge="1" parent="WIyWlLk6GJQsqaUBKTNV-1" source="Ph438IjxgKNGPO0ka1Jd-38" target="Ph438IjxgKNGPO0ka1Jd-21">
          <mxGeometry relative="1" as="geometry" />
        </mxCell>
        <mxCell id="Ph438IjxgKNGPO0ka1Jd-38" value="m" style="text;html=1;align=center;verticalAlign=middle;resizable=0;points=[];autosize=1;strokeColor=none;fillColor=none;" vertex="1" parent="WIyWlLk6GJQsqaUBKTNV-1">
          <mxGeometry x="355.96" y="1414" width="29" height="26" as="geometry" />
        </mxCell>
        <mxCell id="Ph438IjxgKNGPO0ka1Jd-43" style="edgeStyle=none;rounded=0;orthogonalLoop=1;jettySize=auto;html=1;entryX=0.457;entryY=-0.069;entryDx=0;entryDy=0;entryPerimeter=0;endArrow=none;endFill=0;" edge="1" parent="WIyWlLk6GJQsqaUBKTNV-1" source="Ph438IjxgKNGPO0ka1Jd-39" target="Ph438IjxgKNGPO0ka1Jd-21">
          <mxGeometry relative="1" as="geometry" />
        </mxCell>
        <mxCell id="Ph438IjxgKNGPO0ka1Jd-39" value="a" style="text;html=1;align=center;verticalAlign=middle;resizable=0;points=[];autosize=1;strokeColor=none;fillColor=none;" vertex="1" parent="WIyWlLk6GJQsqaUBKTNV-1">
          <mxGeometry x="382.14" y="1414" width="25" height="26" as="geometry" />
        </mxCell>
        <mxCell id="Ph438IjxgKNGPO0ka1Jd-44" style="edgeStyle=none;rounded=0;orthogonalLoop=1;jettySize=auto;html=1;entryX=0.478;entryY=0.037;entryDx=0;entryDy=0;entryPerimeter=0;endArrow=none;endFill=0;" edge="1" parent="WIyWlLk6GJQsqaUBKTNV-1" source="Ph438IjxgKNGPO0ka1Jd-40" target="Ph438IjxgKNGPO0ka1Jd-21">
          <mxGeometry relative="1" as="geometry" />
        </mxCell>
        <mxCell id="Ph438IjxgKNGPO0ka1Jd-40" value="heure" style="text;html=1;align=center;verticalAlign=middle;resizable=0;points=[];autosize=1;strokeColor=none;fillColor=none;" vertex="1" parent="WIyWlLk6GJQsqaUBKTNV-1">
          <mxGeometry x="401.14" y="1414" width="50" height="26" as="geometry" />
        </mxCell>
        <mxCell id="Ph438IjxgKNGPO0ka1Jd-47" style="edgeStyle=none;rounded=0;orthogonalLoop=1;jettySize=auto;html=1;entryX=0.25;entryY=0;entryDx=0;entryDy=0;endArrow=none;endFill=0;" edge="1" parent="WIyWlLk6GJQsqaUBKTNV-1" source="Ph438IjxgKNGPO0ka1Jd-46" target="yDomjnnmyjTK1vdxLF3f-27">
          <mxGeometry relative="1" as="geometry" />
        </mxCell>
        <mxCell id="Ph438IjxgKNGPO0ka1Jd-46" value="&lt;u&gt;ID_Evenement&lt;/u&gt;" style="text;html=1;align=center;verticalAlign=middle;resizable=0;points=[];autosize=1;strokeColor=none;fillColor=none;" vertex="1" parent="WIyWlLk6GJQsqaUBKTNV-1">
          <mxGeometry x="175.87" y="1514" width="99" height="26" as="geometry" />
        </mxCell>
        <mxCell id="Ph438IjxgKNGPO0ka1Jd-49" style="edgeStyle=none;rounded=0;orthogonalLoop=1;jettySize=auto;html=1;entryX=1;entryY=0.5;entryDx=0;entryDy=0;endArrow=none;endFill=0;" edge="1" parent="WIyWlLk6GJQsqaUBKTNV-1" source="Ph438IjxgKNGPO0ka1Jd-48" target="yDomjnnmyjTK1vdxLF3f-55">
          <mxGeometry relative="1" as="geometry" />
        </mxCell>
        <mxCell id="Ph438IjxgKNGPO0ka1Jd-48" value="&lt;u&gt;ID_Sponsor&lt;/u&gt;" style="text;html=1;align=center;verticalAlign=middle;resizable=0;points=[];autosize=1;strokeColor=none;fillColor=none;" vertex="1" parent="WIyWlLk6GJQsqaUBKTNV-1">
          <mxGeometry x="865.75" y="1589" width="84" height="26" as="geometry" />
        </mxCell>
        <mxCell id="Ph438IjxgKNGPO0ka1Jd-54" style="edgeStyle=none;rounded=0;orthogonalLoop=1;jettySize=auto;html=1;entryX=0;entryY=0.5;entryDx=0;entryDy=0;endArrow=none;endFill=0;exitX=1.005;exitY=0.538;exitDx=0;exitDy=0;exitPerimeter=0;" edge="1" parent="WIyWlLk6GJQsqaUBKTNV-1" source="Ph438IjxgKNGPO0ka1Jd-53" target="yDomjnnmyjTK1vdxLF3f-61">
          <mxGeometry relative="1" as="geometry" />
        </mxCell>
        <mxCell id="Ph438IjxgKNGPO0ka1Jd-53" value="&lt;u&gt;ID_Majeure&lt;/u&gt;" style="text;html=1;align=center;verticalAlign=middle;resizable=0;points=[];autosize=1;strokeColor=none;fillColor=none;" vertex="1" parent="WIyWlLk6GJQsqaUBKTNV-1">
          <mxGeometry x="-129" y="1505" width="81" height="26" as="geometry" />
        </mxCell>
        <mxCell id="Ph438IjxgKNGPO0ka1Jd-56" style="edgeStyle=none;rounded=0;orthogonalLoop=1;jettySize=auto;html=1;entryX=1;entryY=0.5;entryDx=0;entryDy=0;endArrow=none;endFill=0;" edge="1" parent="WIyWlLk6GJQsqaUBKTNV-1" source="Ph438IjxgKNGPO0ka1Jd-55" target="yDomjnnmyjTK1vdxLF3f-38">
          <mxGeometry relative="1" as="geometry" />
        </mxCell>
        <mxCell id="Ph438IjxgKNGPO0ka1Jd-55" value="&lt;u&gt;# Facture&lt;/u&gt;" style="text;html=1;align=center;verticalAlign=middle;resizable=0;points=[];autosize=1;strokeColor=none;fillColor=none;" vertex="1" parent="WIyWlLk6GJQsqaUBKTNV-1">
          <mxGeometry x="480" y="2039.5" width="69" height="26" as="geometry" />
        </mxCell>
        <mxCell id="Ph438IjxgKNGPO0ka1Jd-58" style="edgeStyle=none;rounded=0;orthogonalLoop=1;jettySize=auto;html=1;entryX=1;entryY=0.5;entryDx=0;entryDy=0;endArrow=none;endFill=0;exitX=0.006;exitY=0.5;exitDx=0;exitDy=0;exitPerimeter=0;" edge="1" parent="WIyWlLk6GJQsqaUBKTNV-1" source="Ph438IjxgKNGPO0ka1Jd-57" target="yDomjnnmyjTK1vdxLF3f-38">
          <mxGeometry relative="1" as="geometry" />
        </mxCell>
        <mxCell id="Ph438IjxgKNGPO0ka1Jd-57" value="Date paiement" style="text;html=1;align=center;verticalAlign=middle;resizable=0;points=[];autosize=1;strokeColor=none;fillColor=none;" vertex="1" parent="WIyWlLk6GJQsqaUBKTNV-1">
          <mxGeometry x="474.09" y="2063" width="99" height="26" as="geometry" />
        </mxCell>
        <mxCell id="Ph438IjxgKNGPO0ka1Jd-63" style="edgeStyle=none;rounded=0;orthogonalLoop=1;jettySize=auto;html=1;entryX=0.998;entryY=0.529;entryDx=0;entryDy=0;entryPerimeter=0;endArrow=none;endFill=0;" edge="1" parent="WIyWlLk6GJQsqaUBKTNV-1" source="Ph438IjxgKNGPO0ka1Jd-59" target="Ph438IjxgKNGPO0ka1Jd-57">
          <mxGeometry relative="1" as="geometry" />
        </mxCell>
        <mxCell id="Ph438IjxgKNGPO0ka1Jd-59" value="m" style="text;html=1;align=center;verticalAlign=middle;resizable=0;points=[];autosize=1;strokeColor=none;fillColor=none;" vertex="1" parent="WIyWlLk6GJQsqaUBKTNV-1">
          <mxGeometry x="598.39" y="2064.58" width="29" height="26" as="geometry" />
        </mxCell>
        <mxCell id="Ph438IjxgKNGPO0ka1Jd-64" style="edgeStyle=none;rounded=0;orthogonalLoop=1;jettySize=auto;html=1;entryX=1.012;entryY=0.511;entryDx=0;entryDy=0;entryPerimeter=0;endArrow=none;endFill=0;" edge="1" parent="WIyWlLk6GJQsqaUBKTNV-1" source="Ph438IjxgKNGPO0ka1Jd-60" target="Ph438IjxgKNGPO0ka1Jd-57">
          <mxGeometry relative="1" as="geometry" />
        </mxCell>
        <mxCell id="Ph438IjxgKNGPO0ka1Jd-60" value="a" style="text;html=1;align=center;verticalAlign=middle;resizable=0;points=[];autosize=1;strokeColor=none;fillColor=none;" vertex="1" parent="WIyWlLk6GJQsqaUBKTNV-1">
          <mxGeometry x="600.39" y="2082.41" width="25" height="26" as="geometry" />
        </mxCell>
        <mxCell id="Ph438IjxgKNGPO0ka1Jd-62" style="edgeStyle=none;rounded=0;orthogonalLoop=1;jettySize=auto;html=1;entryX=0.998;entryY=0.511;entryDx=0;entryDy=0;entryPerimeter=0;endArrow=none;endFill=0;" edge="1" parent="WIyWlLk6GJQsqaUBKTNV-1" source="Ph438IjxgKNGPO0ka1Jd-61" target="Ph438IjxgKNGPO0ka1Jd-57">
          <mxGeometry relative="1" as="geometry" />
        </mxCell>
        <mxCell id="Ph438IjxgKNGPO0ka1Jd-61" value="j" style="text;html=1;align=center;verticalAlign=middle;resizable=0;points=[];autosize=1;strokeColor=none;fillColor=none;fontSize=12;fontColor=#000000;" vertex="1" parent="WIyWlLk6GJQsqaUBKTNV-1">
          <mxGeometry x="602.39" y="2043.5800000000002" width="21" height="26" as="geometry" />
        </mxCell>
        <mxCell id="Ph438IjxgKNGPO0ka1Jd-66" style="edgeStyle=none;rounded=0;orthogonalLoop=1;jettySize=auto;html=1;entryX=0;entryY=0.5;entryDx=0;entryDy=0;endArrow=none;endFill=0;exitX=1.004;exitY=0.522;exitDx=0;exitDy=0;exitPerimeter=0;dashed=1;" edge="1" parent="WIyWlLk6GJQsqaUBKTNV-1" source="Ph438IjxgKNGPO0ka1Jd-65" target="t3gbEmW65aFLrgszG5lH-1">
          <mxGeometry relative="1" as="geometry" />
        </mxCell>
        <mxCell id="Ph438IjxgKNGPO0ka1Jd-65" value="&lt;div&gt;Fin inscription&lt;/div&gt;" style="text;html=1;align=center;verticalAlign=middle;resizable=0;points=[];autosize=1;strokeColor=none;fillColor=none;" vertex="1" parent="WIyWlLk6GJQsqaUBKTNV-1">
          <mxGeometry x="-146.5" y="2063" width="95" height="26" as="geometry" />
        </mxCell>
        <mxCell id="Ph438IjxgKNGPO0ka1Jd-71" style="edgeStyle=none;rounded=0;orthogonalLoop=1;jettySize=auto;html=1;entryX=-0.013;entryY=0.478;entryDx=0;entryDy=0;entryPerimeter=0;endArrow=none;endFill=0;" edge="1" parent="WIyWlLk6GJQsqaUBKTNV-1" source="Ph438IjxgKNGPO0ka1Jd-67" target="Ph438IjxgKNGPO0ka1Jd-65">
          <mxGeometry relative="1" as="geometry" />
        </mxCell>
        <mxCell id="Ph438IjxgKNGPO0ka1Jd-67" value="m" style="text;html=1;align=center;verticalAlign=middle;resizable=0;points=[];autosize=1;strokeColor=none;fillColor=none;" vertex="1" parent="WIyWlLk6GJQsqaUBKTNV-1">
          <mxGeometry x="-277.73" y="2101.17" width="29" height="26" as="geometry" />
        </mxCell>
        <mxCell id="Ph438IjxgKNGPO0ka1Jd-72" style="edgeStyle=none;rounded=0;orthogonalLoop=1;jettySize=auto;html=1;entryX=-0.007;entryY=0.61;entryDx=0;entryDy=0;entryPerimeter=0;endArrow=none;endFill=0;" edge="1" parent="WIyWlLk6GJQsqaUBKTNV-1" source="Ph438IjxgKNGPO0ka1Jd-68" target="Ph438IjxgKNGPO0ka1Jd-65">
          <mxGeometry relative="1" as="geometry" />
        </mxCell>
        <mxCell id="Ph438IjxgKNGPO0ka1Jd-68" value="a" style="text;html=1;align=center;verticalAlign=middle;resizable=0;points=[];autosize=1;strokeColor=none;fillColor=none;" vertex="1" parent="WIyWlLk6GJQsqaUBKTNV-1">
          <mxGeometry x="-275.73" y="2119" width="25" height="26" as="geometry" />
        </mxCell>
        <mxCell id="Ph438IjxgKNGPO0ka1Jd-70" style="edgeStyle=none;rounded=0;orthogonalLoop=1;jettySize=auto;html=1;entryX=-0.007;entryY=0.478;entryDx=0;entryDy=0;entryPerimeter=0;endArrow=none;endFill=0;" edge="1" parent="WIyWlLk6GJQsqaUBKTNV-1" source="Ph438IjxgKNGPO0ka1Jd-69" target="Ph438IjxgKNGPO0ka1Jd-65">
          <mxGeometry relative="1" as="geometry" />
        </mxCell>
        <mxCell id="Ph438IjxgKNGPO0ka1Jd-69" value="j" style="text;html=1;align=center;verticalAlign=middle;resizable=0;points=[];autosize=1;strokeColor=none;fillColor=none;fontSize=12;fontColor=#000000;" vertex="1" parent="WIyWlLk6GJQsqaUBKTNV-1">
          <mxGeometry x="-273.73" y="2080.17" width="21" height="26" as="geometry" />
        </mxCell>
        <mxCell id="Ph438IjxgKNGPO0ka1Jd-77" style="edgeStyle=none;rounded=0;orthogonalLoop=1;jettySize=auto;html=1;entryX=0.75;entryY=0;entryDx=0;entryDy=0;endArrow=none;endFill=0;exitX=0.452;exitY=1.019;exitDx=0;exitDy=0;exitPerimeter=0;" edge="1" parent="WIyWlLk6GJQsqaUBKTNV-1" source="Ph438IjxgKNGPO0ka1Jd-76" target="yDomjnnmyjTK1vdxLF3f-27">
          <mxGeometry relative="1" as="geometry" />
        </mxCell>
        <mxCell id="Ph438IjxgKNGPO0ka1Jd-76" value="Lieu évenement" style="text;html=1;align=center;verticalAlign=middle;resizable=0;points=[];autosize=1;strokeColor=none;fillColor=none;" vertex="1" parent="WIyWlLk6GJQsqaUBKTNV-1">
          <mxGeometry x="583" y="1479" width="106" height="26" as="geometry" />
        </mxCell>
        <mxCell id="Ph438IjxgKNGPO0ka1Jd-80" style="edgeStyle=none;rounded=0;orthogonalLoop=1;jettySize=auto;html=1;entryX=0.472;entryY=-0.038;entryDx=0;entryDy=0;entryPerimeter=0;endArrow=none;endFill=0;" edge="1" parent="WIyWlLk6GJQsqaUBKTNV-1" source="Ph438IjxgKNGPO0ka1Jd-79" target="Ph438IjxgKNGPO0ka1Jd-76">
          <mxGeometry relative="1" as="geometry" />
        </mxCell>
        <mxCell id="Ph438IjxgKNGPO0ka1Jd-79" value="codeP" style="text;html=1;align=center;verticalAlign=middle;resizable=0;points=[];autosize=1;strokeColor=none;fillColor=none;" vertex="1" parent="WIyWlLk6GJQsqaUBKTNV-1">
          <mxGeometry x="564.5899999999999" y="1419" width="53" height="26" as="geometry" />
        </mxCell>
        <mxCell id="Ph438IjxgKNGPO0ka1Jd-82" style="edgeStyle=none;rounded=0;orthogonalLoop=1;jettySize=auto;html=1;endArrow=none;endFill=0;" edge="1" parent="WIyWlLk6GJQsqaUBKTNV-1" source="Ph438IjxgKNGPO0ka1Jd-81">
          <mxGeometry relative="1" as="geometry">
            <mxPoint x="632" y="1479" as="targetPoint" />
          </mxGeometry>
        </mxCell>
        <mxCell id="Ph438IjxgKNGPO0ka1Jd-81" value="Adresse" style="text;html=1;align=center;verticalAlign=middle;resizable=0;points=[];autosize=1;strokeColor=none;fillColor=none;" vertex="1" parent="WIyWlLk6GJQsqaUBKTNV-1">
          <mxGeometry x="612.5899999999999" y="1419" width="64" height="26" as="geometry" />
        </mxCell>
        <mxCell id="Ph438IjxgKNGPO0ka1Jd-84" style="edgeStyle=none;rounded=0;orthogonalLoop=1;jettySize=auto;html=1;entryX=0.465;entryY=0.016;entryDx=0;entryDy=0;entryPerimeter=0;endArrow=none;endFill=0;" edge="1" parent="WIyWlLk6GJQsqaUBKTNV-1" source="Ph438IjxgKNGPO0ka1Jd-83" target="Ph438IjxgKNGPO0ka1Jd-76">
          <mxGeometry relative="1" as="geometry" />
        </mxCell>
        <mxCell id="Ph438IjxgKNGPO0ka1Jd-83" value="Ville" style="text;html=1;align=center;verticalAlign=middle;resizable=0;points=[];autosize=1;strokeColor=none;fillColor=none;" vertex="1" parent="WIyWlLk6GJQsqaUBKTNV-1">
          <mxGeometry x="679.41" y="1419" width="41" height="26" as="geometry" />
        </mxCell>
        <mxCell id="Ph438IjxgKNGPO0ka1Jd-87" style="edgeStyle=none;rounded=0;orthogonalLoop=1;jettySize=auto;html=1;entryX=0;entryY=0.5;entryDx=0;entryDy=0;endArrow=none;endFill=0;exitX=1.005;exitY=0.518;exitDx=0;exitDy=0;exitPerimeter=0;" edge="1" parent="WIyWlLk6GJQsqaUBKTNV-1" source="Ph438IjxgKNGPO0ka1Jd-86" target="t3gbEmW65aFLrgszG5lH-0">
          <mxGeometry relative="1" as="geometry" />
        </mxCell>
        <mxCell id="Ph438IjxgKNGPO0ka1Jd-86" value="Courriel étudiant" style="text;html=1;align=center;verticalAlign=middle;resizable=0;points=[];autosize=1;strokeColor=none;fillColor=none;" vertex="1" parent="WIyWlLk6GJQsqaUBKTNV-1">
          <mxGeometry x="-195.34" y="2338.5" width="109" height="26" as="geometry" />
        </mxCell>
        <mxCell id="Ph438IjxgKNGPO0ka1Jd-115" style="edgeStyle=none;rounded=0;orthogonalLoop=1;jettySize=auto;html=1;entryX=1;entryY=0.5;entryDx=0;entryDy=0;endArrow=none;endFill=0;exitX=0;exitY=0.5;exitDx=0;exitDy=0;dashed=1;shape=link;" edge="1" parent="WIyWlLk6GJQsqaUBKTNV-1" source="t3gbEmW65aFLrgszG5lH-7" target="yDomjnnmyjTK1vdxLF3f-35">
          <mxGeometry relative="1" as="geometry">
            <mxPoint x="862.5" y="1732.4547475832442" as="sourcePoint" />
          </mxGeometry>
        </mxCell>
        <mxCell id="Ph438IjxgKNGPO0ka1Jd-126" style="edgeStyle=none;rounded=0;orthogonalLoop=1;jettySize=auto;html=1;entryX=0.5;entryY=1;entryDx=0;entryDy=0;endArrow=block;endFill=0;exitX=1;exitY=0.5;exitDx=0;exitDy=0;" edge="1" parent="WIyWlLk6GJQsqaUBKTNV-1" source="Ph438IjxgKNGPO0ka1Jd-125" target="t3gbEmW65aFLrgszG5lH-7">
          <mxGeometry relative="1" as="geometry" />
        </mxCell>
        <mxCell id="Ph438IjxgKNGPO0ka1Jd-125" value="Secrétaire" style="rounded=0;whiteSpace=wrap;html=1;" vertex="1" parent="WIyWlLk6GJQsqaUBKTNV-1">
          <mxGeometry x="612.59" y="1859.5" width="120" height="39" as="geometry" />
        </mxCell>
        <mxCell id="Ph438IjxgKNGPO0ka1Jd-131" style="edgeStyle=none;rounded=0;orthogonalLoop=1;jettySize=auto;html=1;entryX=0;entryY=0.5;entryDx=0;entryDy=0;endArrow=none;endFill=0;exitX=1;exitY=0.5;exitDx=0;exitDy=0;" edge="1" parent="WIyWlLk6GJQsqaUBKTNV-1" source="Ph438IjxgKNGPO0ka1Jd-130" target="t3gbEmW65aFLrgszG5lH-5">
          <mxGeometry relative="1" as="geometry" />
        </mxCell>
        <mxCell id="Ph438IjxgKNGPO0ka1Jd-133" style="edgeStyle=none;rounded=0;orthogonalLoop=1;jettySize=auto;html=1;entryX=1;entryY=0.5;entryDx=0;entryDy=0;endArrow=none;endFill=0;" edge="1" parent="WIyWlLk6GJQsqaUBKTNV-1" source="Ph438IjxgKNGPO0ka1Jd-130" target="t3gbEmW65aFLrgszG5lH-17">
          <mxGeometry relative="1" as="geometry" />
        </mxCell>
        <mxCell id="Ph438IjxgKNGPO0ka1Jd-130" value="Gère" style="rhombus;whiteSpace=wrap;html=1;" vertex="1" parent="WIyWlLk6GJQsqaUBKTNV-1">
          <mxGeometry x="337.3599999999997" y="1773" width="119.82" height="68" as="geometry" />
        </mxCell>
        <mxCell id="Ph438IjxgKNGPO0ka1Jd-137" style="edgeStyle=none;rounded=0;orthogonalLoop=1;jettySize=auto;html=1;exitX=1;exitY=0.5;exitDx=0;exitDy=0;entryX=0;entryY=0.5;entryDx=0;entryDy=0;endArrow=none;endFill=0;dashed=1;shape=link;" edge="1" parent="WIyWlLk6GJQsqaUBKTNV-1" source="Ph438IjxgKNGPO0ka1Jd-135" target="Ph438IjxgKNGPO0ka1Jd-125">
          <mxGeometry relative="1" as="geometry" />
        </mxCell>
        <mxCell id="Ph438IjxgKNGPO0ka1Jd-141" style="edgeStyle=none;rounded=0;orthogonalLoop=1;jettySize=auto;html=1;exitX=0.5;exitY=0;exitDx=0;exitDy=0;entryX=0.51;entryY=1;entryDx=0;entryDy=0;entryPerimeter=0;endArrow=none;endFill=0;" edge="1" parent="WIyWlLk6GJQsqaUBKTNV-1" source="Ph438IjxgKNGPO0ka1Jd-135" target="Ph438IjxgKNGPO0ka1Jd-140">
          <mxGeometry relative="1" as="geometry" />
        </mxCell>
        <mxCell id="Ph438IjxgKNGPO0ka1Jd-135" value="Communique" style="rhombus;whiteSpace=wrap;html=1;" vertex="1" parent="WIyWlLk6GJQsqaUBKTNV-1">
          <mxGeometry x="189.17999999999967" y="1843" width="119.82" height="68" as="geometry" />
        </mxCell>
        <mxCell id="Ph438IjxgKNGPO0ka1Jd-138" value="Courriel d&#39;exécutif" style="text;html=1;align=center;verticalAlign=middle;resizable=0;points=[];autosize=1;strokeColor=none;fillColor=none;" vertex="1" parent="WIyWlLk6GJQsqaUBKTNV-1">
          <mxGeometry x="1016.9999999999999" y="1718" width="115" height="26" as="geometry" />
        </mxCell>
        <mxCell id="Ph438IjxgKNGPO0ka1Jd-140" value="message" style="text;html=1;align=center;verticalAlign=middle;resizable=0;points=[];autosize=1;strokeColor=none;fillColor=none;" vertex="1" parent="WIyWlLk6GJQsqaUBKTNV-1">
          <mxGeometry x="212.82" y="1809" width="71" height="26" as="geometry" />
        </mxCell>
        <mxCell id="Ph438IjxgKNGPO0ka1Jd-145" value="Date Alumni" style="text;html=1;align=center;verticalAlign=middle;resizable=0;points=[];autosize=1;strokeColor=none;fillColor=none;" vertex="1" parent="WIyWlLk6GJQsqaUBKTNV-1">
          <mxGeometry x="-143" y="2101.17" width="85" height="26" as="geometry" />
        </mxCell>
        <mxCell id="Ph438IjxgKNGPO0ka1Jd-151" style="edgeStyle=none;rounded=0;orthogonalLoop=1;jettySize=auto;html=1;entryX=-0.015;entryY=0.581;entryDx=0;entryDy=0;entryPerimeter=0;endArrow=none;endFill=0;" edge="1" parent="WIyWlLk6GJQsqaUBKTNV-1" source="Ph438IjxgKNGPO0ka1Jd-147" target="Ph438IjxgKNGPO0ka1Jd-145">
          <mxGeometry relative="1" as="geometry" />
        </mxCell>
        <mxCell id="Ph438IjxgKNGPO0ka1Jd-147" value="m" style="text;html=1;align=center;verticalAlign=middle;resizable=0;points=[];autosize=1;strokeColor=none;fillColor=none;" vertex="1" parent="WIyWlLk6GJQsqaUBKTNV-1">
          <mxGeometry x="-281.73" y="2163" width="29" height="26" as="geometry" />
        </mxCell>
        <mxCell id="Ph438IjxgKNGPO0ka1Jd-152" style="edgeStyle=none;rounded=0;orthogonalLoop=1;jettySize=auto;html=1;entryX=-0.01;entryY=0.563;entryDx=0;entryDy=0;entryPerimeter=0;endArrow=none;endFill=0;" edge="1" parent="WIyWlLk6GJQsqaUBKTNV-1" source="Ph438IjxgKNGPO0ka1Jd-148" target="Ph438IjxgKNGPO0ka1Jd-145">
          <mxGeometry relative="1" as="geometry" />
        </mxCell>
        <mxCell id="Ph438IjxgKNGPO0ka1Jd-148" value="a" style="text;html=1;align=center;verticalAlign=middle;resizable=0;points=[];autosize=1;strokeColor=none;fillColor=none;" vertex="1" parent="WIyWlLk6GJQsqaUBKTNV-1">
          <mxGeometry x="-279.73" y="2180.83" width="25" height="26" as="geometry" />
        </mxCell>
        <mxCell id="Ph438IjxgKNGPO0ka1Jd-150" style="edgeStyle=none;rounded=0;orthogonalLoop=1;jettySize=auto;html=1;entryX=-0.015;entryY=0.545;entryDx=0;entryDy=0;entryPerimeter=0;endArrow=none;endFill=0;" edge="1" parent="WIyWlLk6GJQsqaUBKTNV-1" source="Ph438IjxgKNGPO0ka1Jd-149" target="Ph438IjxgKNGPO0ka1Jd-145">
          <mxGeometry relative="1" as="geometry" />
        </mxCell>
        <mxCell id="Ph438IjxgKNGPO0ka1Jd-149" value="j" style="text;html=1;align=center;verticalAlign=middle;resizable=0;points=[];autosize=1;strokeColor=none;fillColor=none;fontSize=12;fontColor=#000000;" vertex="1" parent="WIyWlLk6GJQsqaUBKTNV-1">
          <mxGeometry x="-277.73" y="2142" width="21" height="26" as="geometry" />
        </mxCell>
      </root>
    </mxGraphModel>
  </diagram>
  <diagram id="FDYWRBlrTtgfFky_-EV9" name="Page-2">
    <mxGraphModel dx="1434" dy="754" grid="1" gridSize="10" guides="1" tooltips="1" connect="1" arrows="1" fold="1" page="1" pageScale="1" pageWidth="850" pageHeight="1100" math="0" shadow="0">
      <root>
        <mxCell id="0" />
        <mxCell id="1" parent="0" />
      </root>
    </mxGraphModel>
  </diagram>
</mxfile>
